{"glyphs":{"0":{"ha":764,"x_min":36,"x_max":728,"o":"m 728 447 l 728 447 q 728 338 704 252 q 680 165 634 106 q 589 47 523 16 q 457 -16 372 -16 l 372 -16 q 299 -16 237 10 q 176 36 131 91 q 86 146 61 233 q 36 319 36 439 l 36 439 q 36 548 60 634 q 84 720 130 780 q 175 839 241 870 q 308 901 392 901 l 392 901 q 465 901 527 876 q 589 850 633 795 q 677 740 703 654 q 728 568 728 447 z m 203 444 l 203 444 q 203 431 203 419 q 203 407 204 395 l 204 395 l 536 635 q 513 702 474 734 q 435 766 382 766 l 382 766 q 344 766 311 747 q 279 728 255 688 q 231 648 217 587 q 203 527 203 444 z m 561 441 l 561 441 q 561 453 560 465 q 559 477 559 488 l 559 488 l 229 249 q 251 183 290 151 q 330 119 382 119 l 382 119 q 420 119 453 139 q 486 159 510 198 q 534 238 547 299 q 561 359 561 441 z "},"1":{"ha":764,"x_min":78,"x_max":693,"o":"m 693 0 l 103 0 l 103 147 l 329 147 l 329 717 l 132 608 l 78 743 l 359 892 l 498 892 l 498 147 l 693 147 l 693 0 z "},"2":{"ha":764,"x_min":83,"x_max":689,"o":"m 689 0 l 87 0 l 87 122 l 297 332 q 356 391 392 433 q 427 476 447 510 q 466 543 472 572 q 478 600 478 631 l 478 631 q 478 656 470 679 q 462 701 446 718 q 431 734 407 744 q 383 754 353 754 l 353 754 q 300 754 256 731 q 211 709 171 671 l 171 671 l 83 783 q 141 837 213 869 q 286 901 370 901 l 370 901 q 435 901 488 885 q 541 868 578 836 q 616 803 636 754 q 657 705 657 642 l 657 642 q 657 589 643 543 q 629 497 602 454 q 574 410 535 367 q 495 323 444 275 l 444 275 l 315 153 l 689 153 l 689 0 z "},"3":{"ha":764,"x_min":94,"x_max":692,"o":"m 692 271 l 692 271 q 692 205 667 152 q 643 100 592 63 q 542 26 465 6 q 389 -14 285 -14 l 285 -14 q 262 -14 236 -13 q 211 -12 186 -10 q 161 -8 137 -6 q 113 -3 94 0 l 94 0 l 94 144 q 137 136 190 131 q 243 125 301 125 l 301 125 q 357 125 398 135 q 439 144 465 162 q 492 180 504 207 q 517 233 517 267 l 517 267 q 517 296 504 319 q 491 343 465 360 q 438 376 397 386 q 356 395 300 395 l 300 395 l 201 395 l 201 521 l 292 521 q 345 521 379 531 q 414 542 435 559 q 456 577 465 601 q 473 625 473 652 l 473 652 q 473 706 438 734 q 403 762 329 762 l 329 762 q 276 762 224 752 q 173 742 118 725 l 118 725 l 118 864 q 149 874 176 881 q 204 888 232 892 q 260 897 288 899 q 317 901 347 901 l 347 901 q 420 901 476 886 q 531 870 569 841 q 606 812 625 771 q 644 730 644 679 l 644 679 q 644 598 607 548 q 570 498 504 472 l 504 472 q 547 465 581 449 q 616 432 641 406 q 665 380 679 346 q 692 312 692 271 z "},"4":{"ha":764,"x_min":26,"x_max":734,"o":"m 734 180 l 600 180 l 600 0 l 439 0 l 439 180 l 26 180 l 26 322 l 372 886 l 600 886 l 600 326 l 734 326 l 734 180 z m 441 326 l 441 726 l 189 326 l 441 326 z "},"5":{"ha":764,"x_min":106,"x_max":682,"o":"m 682 283 l 682 283 q 682 212 652 157 q 623 102 570 64 q 517 26 445 6 q 373 -14 289 -14 l 289 -14 q 268 -14 244 -12 q 220 -11 196 -9 q 172 -7 149 -4 q 125 -1 106 3 l 106 3 l 106 147 q 144 138 195 132 q 245 126 297 126 l 297 126 q 399 126 452 165 q 505 204 505 273 l 505 273 q 505 345 456 380 q 406 415 296 415 l 296 415 l 122 415 l 122 886 l 633 886 l 633 730 l 277 730 l 277 550 l 340 550 q 408 550 470 538 q 532 526 579 495 q 626 465 654 414 q 682 362 682 283 z "},"6":{"ha":764,"x_min":66,"x_max":711,"o":"m 711 281 l 711 281 q 711 214 687 159 q 663 104 620 65 q 576 26 517 5 q 457 -16 386 -16 l 386 -16 q 231 -16 149 82 q 66 180 66 380 l 66 380 q 66 454 75 520 q 84 586 105 642 q 125 698 160 743 q 195 789 248 820 q 300 852 371 869 q 442 886 536 886 l 536 886 l 637 886 l 637 746 l 519 746 q 446 746 397 731 q 347 716 316 688 q 285 661 269 621 q 254 581 249 530 l 249 530 l 248 514 q 283 531 328 542 q 373 553 422 553 l 422 553 q 494 553 549 534 q 603 515 639 480 q 675 445 693 395 q 711 345 711 281 z m 539 273 l 539 273 q 539 304 531 331 q 523 357 506 375 q 488 394 461 405 q 435 415 397 415 l 397 415 q 376 415 354 411 q 333 408 313 401 q 293 395 275 388 q 257 380 243 372 l 243 372 q 243 304 252 257 q 262 210 281 180 q 300 150 329 137 q 358 123 396 123 l 396 123 q 429 123 455 134 q 481 145 500 165 q 519 185 529 213 q 539 240 539 273 z "},"7":{"ha":764,"x_min":72,"x_max":688,"o":"m 688 742 l 332 0 l 144 0 l 497 726 l 72 726 l 72 886 l 688 886 l 688 742 z "},"8":{"ha":764,"x_min":69,"x_max":694,"o":"m 529 469 l 529 469 q 562 451 592 429 q 623 407 645 378 q 668 349 681 313 q 694 277 694 231 l 694 231 q 694 170 670 124 q 646 78 603 47 q 559 16 502 0 q 444 -16 376 -16 l 376 -16 q 302 -16 244 0 q 187 16 148 45 q 109 75 89 116 q 69 157 69 208 l 69 208 q 69 254 82 289 q 96 325 119 354 q 142 383 172 406 q 202 429 236 449 l 236 449 q 205 467 179 488 q 152 509 132 535 q 111 562 99 594 q 87 627 87 668 l 87 668 q 87 716 106 759 q 125 801 162 833 q 199 865 255 883 q 311 901 386 901 l 386 901 q 455 901 509 887 q 564 872 601 845 q 637 818 657 780 q 676 743 676 697 l 676 697 q 676 655 665 621 q 653 587 633 560 q 614 532 587 510 q 559 488 529 469 z m 399 533 l 399 533 q 423 547 445 562 q 466 577 481 595 q 497 614 507 635 q 516 657 516 684 l 516 684 q 516 728 481 751 q 447 774 382 774 l 382 774 q 318 774 283 750 q 249 726 249 679 l 249 679 q 249 653 260 633 q 272 612 292 595 q 313 578 340 563 q 368 548 399 533 z m 364 383 l 364 383 q 338 369 314 353 q 291 336 274 317 q 256 297 246 274 q 236 250 236 221 l 236 221 q 236 170 276 142 q 316 115 382 115 l 382 115 q 412 115 438 121 q 465 127 485 140 q 505 153 516 173 q 528 193 528 221 l 528 221 q 528 250 515 272 q 502 295 479 314 q 457 333 427 350 q 397 367 364 383 z "},"9":{"ha":764,"x_min":49,"x_max":693,"o":"m 693 496 l 693 496 q 693 391 675 314 q 658 236 626 181 q 593 126 549 91 q 504 56 449 35 q 395 15 333 7 q 271 0 204 0 l 204 0 l 102 0 l 102 142 l 222 142 q 302 142 355 156 q 408 170 441 196 q 474 223 490 263 q 506 303 511 355 l 511 355 l 513 372 q 477 355 431 345 q 385 334 338 334 l 338 334 q 273 334 220 349 q 168 363 129 396 q 91 429 70 480 q 49 532 49 606 l 49 606 q 49 672 73 727 q 97 781 140 820 q 183 859 242 880 q 302 901 372 901 l 372 901 q 441 901 500 882 q 559 862 602 815 q 645 768 669 690 q 693 612 693 496 z m 364 762 l 364 762 q 332 762 305 751 q 279 741 260 721 q 241 701 231 674 q 221 646 221 612 l 221 612 q 221 541 259 506 q 297 471 364 471 l 364 471 q 382 471 403 474 q 424 477 445 484 q 465 490 484 497 q 503 505 517 514 l 517 514 q 517 574 509 621 q 501 667 483 698 q 465 730 436 746 q 407 762 364 762 z "},"\u0000":{"ha":764,"x_min":0,"x_max":0,"o":""},"\r":{"ha":0,"x_min":0,"x_max":0,"o":""}," ":{"ha":764,"x_min":0,"x_max":0,"o":""},"A":{"ha":764,"x_min":3,"x_max":761,"o":"m 761 0 l 576 0 l 528 175 l 218 175 l 168 0 l 3 0 l 265 886 l 498 886 l 761 0 z m 490 311 l 375 724 l 258 311 l 490 311 z "},"B":{"ha":764,"x_min":87,"x_max":711,"o":"m 358 0 l 87 0 l 87 886 l 374 886 q 525 886 601 833 q 676 781 676 673 l 676 673 q 676 640 668 609 q 661 577 644 551 q 628 524 604 504 q 579 484 546 472 l 546 472 q 579 467 609 451 q 640 435 662 409 q 685 384 698 349 q 711 315 711 272 l 711 272 q 711 136 621 68 q 530 0 358 0 l 358 0 z m 503 644 l 503 644 q 503 669 494 690 q 486 710 468 724 q 450 739 422 746 q 394 754 354 754 l 354 754 l 253 754 l 253 519 l 354 519 q 395 519 423 529 q 451 539 469 556 q 487 574 495 596 q 503 618 503 644 z m 253 136 l 370 136 q 410 136 440 146 q 470 157 490 175 q 511 193 521 217 q 532 241 532 269 l 532 269 q 532 327 489 359 q 446 392 357 392 l 357 392 l 253 392 l 253 136 z "},"C":{"ha":764,"x_min":56,"x_max":681,"o":"m 681 191 l 681 35 q 622 11 567 -1 q 511 -12 452 -12 l 452 -12 q 356 -12 282 16 q 209 44 158 100 q 108 155 82 238 q 56 320 56 429 l 56 429 q 56 541 84 628 q 113 715 165 775 q 218 836 294 867 q 370 899 464 899 l 464 899 q 494 899 521 897 q 548 896 574 892 q 600 888 626 882 q 652 876 681 867 l 681 867 l 681 701 q 623 728 571 740 q 519 751 476 751 l 476 751 q 413 751 368 729 q 323 706 295 665 q 266 624 252 567 q 239 511 239 443 l 239 443 q 239 371 253 314 q 267 258 296 218 q 325 179 370 158 q 416 138 478 138 l 478 138 q 500 138 527 142 q 553 146 579 154 q 606 161 632 171 q 659 180 681 191 l 681 191 z "},"D":{"ha":764,"x_min":58,"x_max":728,"o":"m 728 454 l 728 454 q 728 351 702 267 q 677 183 623 124 q 569 64 485 32 q 401 0 283 0 l 283 0 l 58 0 l 58 886 l 321 886 q 422 886 499 861 q 575 836 626 783 q 677 730 702 648 q 728 567 728 454 z m 549 444 l 549 444 q 549 515 537 572 q 526 628 498 667 q 471 706 425 726 q 378 747 310 747 l 310 747 l 225 747 l 225 140 l 298 140 q 421 140 485 213 q 549 286 549 444 z "},"E":{"ha":764,"x_min":125,"x_max":659,"o":"m 659 0 l 125 0 l 125 886 l 659 886 l 659 745 l 294 745 l 294 525 l 642 525 l 642 387 l 294 387 l 294 141 l 659 141 l 659 0 z "},"F":{"ha":764,"x_min":125,"x_max":648,"o":"m 648 745 l 294 745 l 294 500 l 629 500 l 629 363 l 294 363 l 294 0 l 125 0 l 125 886 l 648 886 l 648 745 z "},"G":{"ha":764,"x_min":32,"x_max":701,"o":"m 536 375 l 386 375 l 386 513 l 701 513 l 701 40 q 640 12 574 -2 q 507 -16 429 -16 l 429 -16 q 337 -16 263 13 q 190 41 138 98 q 87 154 59 237 q 32 321 32 431 l 32 431 q 32 541 61 629 q 90 716 145 777 q 200 838 280 869 q 361 901 464 901 l 464 901 q 525 901 583 891 q 641 880 699 863 l 699 863 l 699 698 q 648 722 588 737 q 527 752 465 752 l 465 752 q 403 752 355 730 q 307 709 275 669 q 243 629 226 570 q 210 512 210 439 l 210 439 q 210 368 222 312 q 235 255 264 215 q 293 176 338 155 q 384 134 449 134 l 449 134 q 465 134 476 135 q 488 136 498 138 q 508 140 517 142 q 526 145 536 149 l 536 149 l 536 375 z "},"H":{"ha":764,"x_min":64,"x_max":699,"o":"m 699 0 l 532 0 l 532 386 l 231 386 l 231 0 l 64 0 l 64 886 l 231 886 l 231 530 l 532 530 l 532 886 l 699 886 l 699 0 z "},"I":{"ha":764,"x_min":102,"x_max":662,"o":"m 297 750 l 102 750 l 102 886 l 662 886 l 662 750 l 467 750 l 467 138 l 662 138 l 662 0 l 102 0 l 102 138 l 297 138 l 297 750 z "},"J":{"ha":764,"x_min":117,"x_max":614,"o":"m 614 886 l 614 265 q 614 203 594 151 q 574 100 536 63 q 498 26 442 6 q 386 -14 311 -14 l 311 -14 q 256 -14 205 -1 q 155 12 117 32 l 117 32 l 117 193 q 134 179 156 167 q 179 155 205 145 q 231 136 258 131 q 285 126 311 126 l 311 126 q 334 126 358 134 q 382 142 401 161 q 420 180 432 211 q 444 242 444 288 l 444 288 l 444 749 l 123 749 l 123 886 l 614 886 z "},"K":{"ha":764,"x_min":87,"x_max":739,"o":"m 739 0 l 524 0 l 257 429 l 257 0 l 87 0 l 87 886 l 257 886 l 257 483 l 522 886 l 724 886 l 422 464 l 739 0 z "},"L":{"ha":764,"x_min":134,"x_max":677,"o":"m 677 0 l 134 0 l 134 886 l 303 886 l 303 143 l 677 143 l 677 0 z "},"M":{"ha":764,"x_min":31,"x_max":733,"o":"m 733 0 l 586 0 l 570 501 l 564 701 l 521 566 l 422 264 l 318 264 l 229 566 l 192 701 l 187 505 l 172 0 l 31 0 l 74 886 l 262 886 l 340 635 l 378 493 l 415 627 l 497 886 l 689 886 l 733 0 z "},"N":{"ha":764,"x_min":64,"x_max":705,"o":"m 705 0 l 502 0 l 264 529 l 216 643 l 216 275 l 216 0 l 64 0 l 64 886 l 269 886 l 511 354 l 553 250 l 553 642 l 553 886 l 705 886 l 705 0 z "},"O":{"ha":764,"x_min":25,"x_max":739,"o":"m 739 447 l 739 447 q 739 326 710 239 q 682 151 633 95 q 584 39 518 12 q 452 -16 376 -16 l 376 -16 q 201 -16 113 101 q 25 217 25 439 l 25 439 q 25 559 53 647 q 81 734 131 791 q 180 847 246 874 q 312 901 387 901 l 387 901 q 562 901 650 785 q 739 669 739 447 z m 562 439 l 562 439 q 562 596 520 673 q 478 751 382 751 l 382 751 q 334 751 300 731 q 266 711 244 672 q 222 633 212 577 q 201 520 201 447 l 201 447 q 201 290 244 212 q 286 135 382 135 l 382 135 q 430 135 464 155 q 498 175 520 214 q 542 252 552 309 q 562 366 562 439 z "},"P":{"ha":764,"x_min":92,"x_max":707,"o":"m 707 604 l 707 604 q 707 535 684 476 q 661 418 615 375 q 570 332 502 309 q 434 285 345 285 l 345 285 l 260 285 l 260 0 l 92 0 l 92 886 l 351 886 q 437 886 504 868 q 570 849 615 813 q 660 777 683 725 q 707 672 707 604 z m 532 593 l 532 593 q 532 628 520 657 q 509 686 487 706 q 464 726 429 737 q 395 748 347 748 l 347 748 l 260 748 l 260 423 l 353 423 q 396 423 429 435 q 463 447 485 469 q 508 492 520 523 q 532 554 532 593 z "},"Q":{"ha":764,"x_min":25,"x_max":768,"o":"m 296 -7 l 296 -7 q 159 18 92 130 q 25 241 25 435 l 25 435 q 25 555 53 643 q 81 730 131 788 q 180 845 246 873 q 312 901 387 901 l 387 901 q 562 901 650 786 q 739 671 739 453 l 739 453 q 739 349 718 269 q 696 189 658 132 q 620 75 568 41 q 515 6 454 -7 l 454 -7 q 460 -39 472 -60 q 485 -81 502 -94 q 519 -106 540 -111 q 560 -115 582 -115 l 582 -115 q 611 -115 640 -103 q 669 -91 692 -69 l 692 -69 l 768 -183 q 726 -219 675 -238 q 625 -257 574 -257 l 574 -257 q 510 -257 459 -242 q 409 -227 373 -196 q 338 -165 318 -118 q 298 -71 296 -7 z m 562 439 l 562 439 q 562 596 521 673 q 479 751 385 751 l 385 751 q 336 751 302 731 q 267 711 245 672 q 222 633 212 576 q 201 519 201 447 l 201 447 q 201 291 244 213 q 286 135 382 135 l 382 135 q 430 135 464 155 q 498 175 520 214 q 542 252 552 309 q 562 366 562 439 z "},"R":{"ha":764,"x_min":87,"x_max":730,"o":"m 730 0 l 534 0 l 410 285 q 392 326 360 346 q 329 367 286 367 l 286 367 l 254 367 l 254 0 l 87 0 l 87 886 l 346 886 q 419 886 479 874 q 538 861 581 832 q 623 803 645 756 q 668 709 668 642 l 668 642 q 668 593 654 555 q 640 517 614 489 q 588 462 552 445 q 517 428 475 421 l 475 421 q 507 414 534 384 q 562 354 589 297 l 589 297 l 730 0 z m 493 625 l 493 625 q 493 690 452 719 q 410 747 328 747 l 328 747 l 254 747 l 254 497 l 322 497 q 361 497 392 505 q 424 513 446 530 q 469 546 481 570 q 493 594 493 625 z "},"S":{"ha":764,"x_min":66,"x_max":692,"o":"m 692 268 l 692 268 q 692 195 665 142 q 638 88 590 53 q 542 18 475 1 q 409 -16 330 -16 l 330 -16 q 260 -16 195 -7 q 130 1 66 20 l 66 20 l 66 184 q 98 174 132 164 q 165 155 200 148 q 234 140 268 136 q 302 132 334 132 l 334 132 q 381 132 414 140 q 448 149 469 163 q 490 177 499 197 q 509 216 509 240 l 509 240 q 509 273 490 295 q 471 317 441 334 q 410 351 371 364 q 332 378 292 393 q 252 409 213 429 q 174 448 143 477 q 113 507 94 547 q 75 587 75 644 l 75 644 q 75 696 94 743 q 113 790 154 825 q 195 860 258 881 q 322 901 412 901 l 412 901 q 439 901 468 899 q 496 897 525 893 q 553 889 579 884 q 605 879 627 873 l 627 873 l 627 721 q 605 729 579 736 q 553 743 526 748 q 498 753 471 755 q 443 758 418 758 l 418 758 q 374 758 343 751 q 313 744 293 731 q 273 719 264 701 q 256 682 256 660 l 256 660 q 256 632 274 612 q 293 592 324 576 q 355 560 394 546 q 433 532 474 516 q 515 500 554 480 q 593 460 624 431 q 654 401 673 362 q 692 322 692 268 z "},"T":{"ha":764,"x_min":54,"x_max":710,"o":"m 710 747 l 467 747 l 467 0 l 296 0 l 296 747 l 54 747 l 54 886 l 710 886 l 710 747 z "},"U":{"ha":764,"x_min":59,"x_max":705,"o":"m 705 886 l 705 326 q 705 241 682 177 q 659 113 617 71 q 574 28 513 6 q 452 -16 376 -16 l 376 -16 q 291 -16 230 6 q 169 28 131 68 q 93 109 76 168 q 59 226 59 298 l 59 298 l 59 886 l 226 886 l 226 309 q 226 264 234 229 q 241 195 261 171 q 280 146 309 134 q 338 122 382 122 l 382 122 q 424 122 452 133 q 481 143 500 166 q 519 190 528 227 q 538 263 538 315 l 538 315 l 538 886 l 705 886 z "},"V":{"ha":764,"x_min":0,"x_max":764,"o":"m 764 886 l 492 0 l 271 0 l 0 886 l 189 886 l 339 353 l 387 178 l 437 363 l 586 886 l 764 886 z "},"W":{"ha":764,"x_min":22,"x_max":742,"o":"m 742 886 l 692 0 l 496 0 l 408 273 l 376 385 l 346 271 l 260 0 l 72 0 l 22 886 l 170 886 l 191 318 l 196 163 l 236 301 l 334 616 l 439 616 l 542 282 l 575 164 l 578 302 l 600 886 l 742 886 z "},"X":{"ha":764,"x_min":5,"x_max":758,"o":"m 758 0 l 546 0 l 375 326 l 207 0 l 5 0 l 261 454 l 22 886 l 218 886 l 379 578 l 534 886 l 730 886 l 493 454 l 758 0 z "},"Y":{"ha":764,"x_min":7,"x_max":755,"o":"m 755 886 l 465 314 l 465 0 l 295 0 l 295 313 l 7 886 l 192 886 l 322 612 l 382 478 l 441 616 l 578 886 l 755 886 z "},"Z":{"ha":764,"x_min":71,"x_max":693,"o":"m 693 0 l 71 0 l 71 126 l 476 735 l 83 735 l 83 886 l 688 886 l 688 751 l 279 151 l 693 151 l 693 0 z "},"À":{"ha":764,"x_min":0,"x_max":761,"o":"m 761 0 l 576 0 l 528 175 l 218 175 l 168 0 l 3 0 l 265 886 l 498 886 l 761 0 z m 490 311 l 375 724 l 258 311 l 490 311 z m 90 1133 l 314 1133 l 465 981 l 300 981 l 90 1133 z m 0 886 l 0 886 z "},"Á":{"ha":764,"x_min":0,"x_max":761,"o":"m 761 0 l 576 0 l 528 175 l 218 175 l 168 0 l 3 0 l 265 886 l 498 886 l 761 0 z m 490 311 l 375 724 l 258 311 l 490 311 z m 673 1133 l 464 981 l 298 981 l 450 1133 l 673 1133 z m 0 886 l 0 886 z "},"Â":{"ha":764,"x_min":0,"x_max":761,"o":"m 761 0 l 576 0 l 528 175 l 218 175 l 168 0 l 3 0 l 265 886 l 498 886 l 761 0 z m 490 311 l 375 724 l 258 311 l 490 311 z m 453 1133 l 614 981 l 465 981 l 382 1044 l 298 981 l 153 981 l 314 1133 l 453 1133 z m 0 886 l 0 886 z "},"Ã":{"ha":764,"x_min":0,"x_max":761,"o":"m 761 0 l 576 0 l 528 175 l 218 175 l 168 0 l 3 0 l 265 886 l 498 886 l 761 0 z m 490 311 l 375 724 l 258 311 l 490 311 z m 564 1141 l 637 1071 q 609 1017 571 990 q 533 964 478 964 l 478 964 q 438 964 411 975 q 383 985 362 999 q 340 1012 322 1023 q 304 1034 282 1034 l 282 1034 q 257 1034 238 1018 q 219 1002 200 972 l 200 972 l 126 1043 q 155 1098 193 1124 q 231 1150 286 1150 l 286 1150 q 326 1150 354 1139 q 381 1128 402 1115 q 424 1102 442 1091 q 460 1080 482 1080 l 482 1080 q 507 1080 526 1096 q 545 1112 564 1141 l 564 1141 z m 0 886 l 0 886 z "},"Ä":{"ha":764,"x_min":0,"x_max":761,"o":"m 761 0 l 576 0 l 528 175 l 218 175 l 168 0 l 3 0 l 265 886 l 498 886 l 761 0 z m 490 311 l 375 724 l 258 311 l 490 311 z m 325 1053 l 325 1053 q 325 1034 318 1017 q 311 1000 298 987 q 285 975 268 967 q 251 960 232 960 l 232 960 q 212 960 196 967 q 179 975 166 987 q 153 1000 146 1017 q 139 1034 139 1053 l 139 1053 q 139 1072 146 1089 q 153 1106 166 1119 q 179 1131 196 1139 q 212 1146 232 1146 l 232 1146 q 251 1146 268 1139 q 285 1131 298 1119 q 311 1106 318 1089 q 325 1072 325 1053 z m 625 1053 l 625 1053 q 625 1034 617 1017 q 610 1000 597 987 q 585 975 568 967 q 551 960 532 960 l 532 960 q 513 960 496 967 q 479 975 466 987 q 454 1000 446 1017 q 439 1034 439 1053 l 439 1053 q 439 1072 446 1089 q 454 1106 466 1119 q 479 1131 496 1139 q 513 1146 532 1146 l 532 1146 q 551 1146 568 1139 q 585 1131 597 1119 q 610 1106 617 1089 q 625 1072 625 1053 z m 0 886 l 0 886 z "},"Ā":{"ha":764,"x_min":0,"x_max":761,"o":"m 761 0 l 576 0 l 528 175 l 218 175 l 168 0 l 3 0 l 265 886 l 498 886 l 761 0 z m 490 311 l 375 724 l 258 311 l 490 311 z m 579 991 l 184 991 l 184 1109 l 579 1109 l 579 991 z m 0 886 l 0 886 z "},"Ă":{"ha":764,"x_min":0,"x_max":761,"o":"m 761 0 l 576 0 l 528 175 l 218 175 l 168 0 l 3 0 l 265 886 l 498 886 l 761 0 z m 490 311 l 375 724 l 258 311 l 490 311 z m 463 1139 l 581 1139 q 581 1105 569 1074 q 557 1042 532 1019 q 507 995 469 981 q 431 966 380 966 l 380 966 q 328 966 291 981 q 254 996 230 1020 q 205 1044 194 1075 q 182 1106 182 1139 l 182 1139 l 301 1139 q 301 1127 306 1116 q 311 1105 320 1096 q 330 1086 345 1081 q 360 1075 382 1075 l 382 1075 q 422 1075 443 1093 q 463 1112 463 1139 l 463 1139 z m 0 886 l 0 886 z "},"Å":{"ha":764,"x_min":0,"x_max":761,"o":"m 761 0 l 576 0 l 528 175 l 218 175 l 168 0 l 3 0 l 265 886 l 498 886 l 761 0 z m 490 311 l 375 724 l 258 311 l 490 311 z m 534 1044 l 534 1044 q 534 1013 523 987 q 511 962 490 944 q 469 926 441 917 q 414 907 382 907 l 382 907 q 350 907 322 916 q 294 926 274 943 q 253 961 241 986 q 229 1011 229 1044 l 229 1044 q 229 1076 241 1102 q 253 1127 274 1145 q 294 1162 322 1172 q 350 1181 382 1181 l 382 1181 q 414 1181 442 1172 q 470 1162 490 1145 q 511 1127 523 1102 q 534 1076 534 1044 z m 440 1044 l 440 1044 q 440 1069 424 1084 q 408 1099 382 1099 l 382 1099 q 356 1099 340 1084 q 323 1069 323 1044 l 323 1044 q 323 1018 340 1003 q 356 988 382 988 l 382 988 q 408 988 424 1003 q 440 1018 440 1044 z m 0 886 l 0 886 z "},"Ǻ":{"ha":764,"x_min":0,"x_max":761,"o":"m 761 0 l 576 0 l 528 175 l 218 175 l 168 0 l 3 0 l 265 886 l 498 886 l 761 0 z m 490 311 l 375 724 l 258 311 l 490 311 z m 663 1322 l 464 1187 l 307 1187 l 451 1322 l 663 1322 z m 540 1037 l 540 1037 q 540 1008 527 985 q 515 962 493 945 q 471 928 441 919 q 412 910 378 910 l 378 910 q 344 910 314 919 q 285 928 263 944 q 241 960 228 984 q 216 1007 216 1037 l 216 1037 q 216 1067 228 1090 q 241 1113 263 1129 q 285 1145 314 1154 q 344 1162 378 1162 l 378 1162 q 412 1162 442 1154 q 471 1145 493 1129 q 515 1113 527 1090 q 540 1067 540 1037 z m 439 1036 l 439 1036 q 439 1060 422 1074 q 405 1087 378 1087 l 378 1087 q 350 1087 333 1074 q 316 1060 316 1036 l 316 1036 q 316 1013 333 999 q 350 985 378 985 l 378 985 q 405 985 422 999 q 439 1013 439 1036 z m 0 886 l 0 886 z "},"Ą":{"ha":764,"x_min":3,"x_max":761,"o":"m 746 -161 l 746 -261 q 724 -267 697 -271 q 669 -275 648 -275 l 648 -275 q 605 -275 575 -266 q 546 -256 528 -240 q 509 -224 501 -202 q 493 -180 493 -154 l 493 -154 q 493 -136 497 -118 q 500 -100 510 -81 q 519 -62 535 -42 q 551 -22 576 0 l 576 0 l 528 175 l 218 175 l 168 0 l 3 0 l 265 886 l 498 886 l 761 0 l 720 0 q 694 -26 679 -44 q 664 -63 656 -77 q 648 -92 645 -103 q 643 -115 643 -125 l 643 -125 q 643 -146 654 -156 q 665 -167 696 -167 l 696 -167 q 707 -167 721 -165 q 735 -163 746 -161 l 746 -161 z m 490 311 l 375 724 l 258 311 l 490 311 z "},"Æ":{"ha":764,"x_min":-28,"x_max":736,"o":"m 736 0 l 399 0 l 399 178 l 191 178 l 126 0 l -28 0 l 311 886 l 729 886 l 729 751 l 547 751 l 547 522 l 718 522 l 718 390 l 547 390 l 547 135 l 736 135 l 736 0 z m 399 304 l 399 751 l 236 304 l 399 304 z "},"Ǽ":{"ha":764,"x_min":-28,"x_max":736,"o":"m 736 0 l 399 0 l 399 178 l 191 178 l 126 0 l -28 0 l 311 886 l 729 886 l 729 751 l 547 751 l 547 522 l 718 522 l 718 390 l 547 390 l 547 135 l 736 135 l 736 0 z m 399 304 l 399 751 l 236 304 l 399 304 z m 701 1133 l 492 981 l 326 981 l 478 1133 l 701 1133 z m 28 886 l 28 886 z "},"Ć":{"ha":764,"x_min":28,"x_max":701,"o":"m 681 191 l 681 35 q 622 11 567 -1 q 511 -12 452 -12 l 452 -12 q 356 -12 282 16 q 209 44 158 100 q 108 155 82 238 q 56 320 56 429 l 56 429 q 56 541 84 628 q 113 715 165 775 q 218 836 294 867 q 370 899 464 899 l 464 899 q 494 899 521 897 q 548 896 574 892 q 600 888 626 882 q 652 876 681 867 l 681 867 l 681 701 q 623 728 571 740 q 519 751 476 751 l 476 751 q 413 751 368 729 q 323 706 295 665 q 266 624 252 567 q 239 511 239 443 l 239 443 q 239 371 253 314 q 267 258 296 218 q 325 179 370 158 q 416 138 478 138 l 478 138 q 500 138 527 142 q 553 146 579 154 q 606 161 632 171 q 659 180 681 191 l 681 191 z m 701 1133 l 492 981 l 326 981 l 478 1133 l 701 1133 z m 28 886 l 28 886 z "},"Ĉ":{"ha":764,"x_min":41,"x_max":681,"o":"m 681 191 l 681 35 q 622 11 567 -1 q 511 -12 452 -12 l 452 -12 q 356 -12 282 16 q 209 44 158 100 q 108 155 82 238 q 56 320 56 429 l 56 429 q 56 541 84 628 q 113 715 165 775 q 218 836 294 867 q 370 899 464 899 l 464 899 q 494 899 521 897 q 548 896 574 892 q 600 888 626 882 q 652 876 681 867 l 681 867 l 681 701 q 623 728 571 740 q 519 751 476 751 l 476 751 q 413 751 368 729 q 323 706 295 665 q 266 624 252 567 q 239 511 239 443 l 239 443 q 239 371 253 314 q 267 258 296 218 q 325 179 370 158 q 416 138 478 138 l 478 138 q 500 138 527 142 q 553 146 579 154 q 606 161 632 171 q 659 180 681 191 l 681 191 z m 494 1133 l 655 981 l 507 981 l 423 1044 l 340 981 l 194 981 l 355 1133 l 494 1133 z m 41 886 l 41 886 z "},"Č":{"ha":764,"x_min":41,"x_max":681,"o":"m 681 191 l 681 35 q 622 11 567 -1 q 511 -12 452 -12 l 452 -12 q 356 -12 282 16 q 209 44 158 100 q 108 155 82 238 q 56 320 56 429 l 56 429 q 56 541 84 628 q 113 715 165 775 q 218 836 294 867 q 370 899 464 899 l 464 899 q 494 899 521 897 q 548 896 574 892 q 600 888 626 882 q 652 876 681 867 l 681 867 l 681 701 q 623 728 571 740 q 519 751 476 751 l 476 751 q 413 751 368 729 q 323 706 295 665 q 266 624 252 567 q 239 511 239 443 l 239 443 q 239 371 253 314 q 267 258 296 218 q 325 179 370 158 q 416 138 478 138 l 478 138 q 500 138 527 142 q 553 146 579 154 q 606 161 632 171 q 659 180 681 191 l 681 191 z m 354 981 l 193 1133 l 341 1133 l 425 1069 l 508 1133 l 654 1133 l 493 981 l 354 981 z m 41 886 l 41 886 z "},"Ċ":{"ha":764,"x_min":41,"x_max":681,"o":"m 681 191 l 681 35 q 622 11 567 -1 q 511 -12 452 -12 l 452 -12 q 356 -12 282 16 q 209 44 158 100 q 108 155 82 238 q 56 320 56 429 l 56 429 q 56 541 84 628 q 113 715 165 775 q 218 836 294 867 q 370 899 464 899 l 464 899 q 494 899 521 897 q 548 896 574 892 q 600 888 626 882 q 652 876 681 867 l 681 867 l 681 701 q 623 728 571 740 q 519 751 476 751 l 476 751 q 413 751 368 729 q 323 706 295 665 q 266 624 252 567 q 239 511 239 443 l 239 443 q 239 371 253 314 q 267 258 296 218 q 325 179 370 158 q 416 138 478 138 l 478 138 q 500 138 527 142 q 553 146 579 154 q 606 161 632 171 q 659 180 681 191 l 681 191 z m 528 1053 l 528 1053 q 528 1031 520 1013 q 512 994 498 981 q 484 967 465 959 q 446 951 423 951 l 423 951 q 401 951 383 959 q 364 967 351 981 q 337 994 329 1013 q 321 1031 321 1053 l 321 1053 q 321 1074 329 1093 q 337 1112 351 1125 q 364 1139 383 1146 q 401 1154 423 1154 l 423 1154 q 444 1154 463 1146 q 482 1139 496 1125 q 511 1112 519 1093 q 528 1074 528 1053 z m 41 886 l 41 886 z "},"Ç":{"ha":764,"x_min":56,"x_max":681,"o":"m 297 -200 l 338 0 q 296 7 243 34 q 191 60 148 112 q 104 163 80 244 q 56 325 56 429 l 56 429 q 56 541 84 628 q 113 715 165 775 q 218 836 294 867 q 370 899 464 899 l 464 899 q 494 899 521 897 q 548 896 574 892 q 600 888 626 882 q 652 876 681 867 l 681 867 l 681 701 q 623 728 571 740 q 519 751 476 751 l 476 751 q 413 751 368 729 q 323 706 295 665 q 266 624 252 567 q 239 511 239 443 l 239 443 q 239 371 253 314 q 267 258 296 218 q 325 179 370 158 q 416 138 478 138 l 478 138 q 500 138 527 142 q 553 146 579 154 q 606 161 632 171 q 659 180 681 191 l 681 191 l 681 35 q 622 11 575 1 q 528 -9 489 -11 l 489 -11 l 418 -200 l 297 -200 z "},"Ď":{"ha":764,"x_min":-26,"x_max":728,"o":"m 728 454 l 728 454 q 728 351 702 267 q 677 183 623 124 q 569 64 485 32 q 401 0 283 0 l 283 0 l 58 0 l 58 886 l 321 886 q 422 886 499 861 q 575 836 626 783 q 677 730 702 648 q 728 567 728 454 z m 549 444 l 549 444 q 549 515 537 572 q 526 628 498 667 q 471 706 425 726 q 378 747 310 747 l 310 747 l 225 747 l 225 140 l 298 140 q 421 140 485 213 q 549 286 549 444 z m 286 981 l 125 1133 l 273 1133 l 357 1069 l 440 1133 l 586 1133 l 425 981 l 286 981 z m -26 886 l -26 886 z "},"Ð":{"ha":764,"x_min":0,"x_max":728,"o":"m 0 387 l 0 525 l 72 525 l 72 886 l 321 886 q 422 886 499 861 q 575 836 626 783 q 677 730 702 648 q 728 567 728 454 l 728 454 q 728 351 702 267 q 677 183 623 124 q 569 64 485 32 q 401 0 283 0 l 283 0 l 72 0 l 72 387 l 0 387 z m 549 444 l 549 444 q 549 515 537 572 q 526 628 498 667 q 471 706 425 726 q 378 747 310 747 l 310 747 l 239 747 l 239 525 l 396 525 l 396 387 l 239 387 l 239 140 l 298 140 q 421 140 485 213 q 549 286 549 444 z "},"Đ":{"ha":764,"x_min":0,"x_max":728,"o":"m 0 387 l 0 525 l 72 525 l 72 886 l 321 886 q 422 886 499 861 q 575 836 626 783 q 677 730 702 648 q 728 567 728 454 l 728 454 q 728 351 702 267 q 677 183 623 124 q 569 64 485 32 q 401 0 283 0 l 283 0 l 72 0 l 72 387 l 0 387 z m 549 444 l 549 444 q 549 515 537 572 q 526 628 498 667 q 471 706 425 726 q 378 747 310 747 l 310 747 l 239 747 l 239 525 l 396 525 l 396 387 l 239 387 l 239 140 l 298 140 q 421 140 485 213 q 549 286 549 444 z "},"È":{"ha":764,"x_min":0,"x_max":659,"o":"m 659 0 l 125 0 l 125 886 l 659 886 l 659 745 l 294 745 l 294 525 l 642 525 l 642 387 l 294 387 l 294 141 l 659 141 l 659 0 z m 90 1133 l 314 1133 l 465 981 l 300 981 l 90 1133 z m 0 886 l 0 886 z "},"É":{"ha":764,"x_min":0,"x_max":673,"o":"m 659 0 l 125 0 l 125 886 l 659 886 l 659 745 l 294 745 l 294 525 l 642 525 l 642 387 l 294 387 l 294 141 l 659 141 l 659 0 z m 673 1133 l 464 981 l 298 981 l 450 1133 l 673 1133 z m 0 886 l 0 886 z "},"Ê":{"ha":764,"x_min":0,"x_max":659,"o":"m 659 0 l 125 0 l 125 886 l 659 886 l 659 745 l 294 745 l 294 525 l 642 525 l 642 387 l 294 387 l 294 141 l 659 141 l 659 0 z m 453 1133 l 614 981 l 465 981 l 382 1044 l 298 981 l 153 981 l 314 1133 l 453 1133 z m 0 886 l 0 886 z "},"Ě":{"ha":764,"x_min":0,"x_max":659,"o":"m 659 0 l 125 0 l 125 886 l 659 886 l 659 745 l 294 745 l 294 525 l 642 525 l 642 387 l 294 387 l 294 141 l 659 141 l 659 0 z m 313 981 l 151 1133 l 300 1133 l 383 1069 l 467 1133 l 612 1133 l 452 981 l 313 981 z m 0 886 l 0 886 z "},"Ë":{"ha":764,"x_min":0,"x_max":659,"o":"m 659 0 l 125 0 l 125 886 l 659 886 l 659 745 l 294 745 l 294 525 l 642 525 l 642 387 l 294 387 l 294 141 l 659 141 l 659 0 z m 325 1053 l 325 1053 q 325 1034 318 1017 q 311 1000 298 987 q 285 975 268 967 q 251 960 232 960 l 232 960 q 212 960 196 967 q 179 975 166 987 q 153 1000 146 1017 q 139 1034 139 1053 l 139 1053 q 139 1072 146 1089 q 153 1106 166 1119 q 179 1131 196 1139 q 212 1146 232 1146 l 232 1146 q 251 1146 268 1139 q 285 1131 298 1119 q 311 1106 318 1089 q 325 1072 325 1053 z m 625 1053 l 625 1053 q 625 1034 617 1017 q 610 1000 597 987 q 585 975 568 967 q 551 960 532 960 l 532 960 q 513 960 496 967 q 479 975 466 987 q 454 1000 446 1017 q 439 1034 439 1053 l 439 1053 q 439 1072 446 1089 q 454 1106 466 1119 q 479 1131 496 1139 q 513 1146 532 1146 l 532 1146 q 551 1146 568 1139 q 585 1131 597 1119 q 610 1106 617 1089 q 625 1072 625 1053 z m 0 886 l 0 886 z "},"Ē":{"ha":764,"x_min":0,"x_max":659,"o":"m 659 0 l 125 0 l 125 886 l 659 886 l 659 745 l 294 745 l 294 525 l 642 525 l 642 387 l 294 387 l 294 141 l 659 141 l 659 0 z m 579 991 l 184 991 l 184 1109 l 579 1109 l 579 991 z m 0 886 l 0 886 z "},"Ĕ":{"ha":764,"x_min":0,"x_max":659,"o":"m 659 0 l 125 0 l 125 886 l 659 886 l 659 745 l 294 745 l 294 525 l 642 525 l 642 387 l 294 387 l 294 141 l 659 141 l 659 0 z m 463 1139 l 581 1139 q 581 1105 569 1074 q 557 1042 532 1019 q 507 995 469 981 q 431 966 380 966 l 380 966 q 328 966 291 981 q 254 996 230 1020 q 205 1044 194 1075 q 182 1106 182 1139 l 182 1139 l 301 1139 q 301 1127 306 1116 q 311 1105 320 1096 q 330 1086 345 1081 q 360 1075 382 1075 l 382 1075 q 422 1075 443 1093 q 463 1112 463 1139 l 463 1139 z m 0 886 l 0 886 z "},"Ė":{"ha":764,"x_min":0,"x_max":659,"o":"m 659 0 l 125 0 l 125 886 l 659 886 l 659 745 l 294 745 l 294 525 l 642 525 l 642 387 l 294 387 l 294 141 l 659 141 l 659 0 z m 486 1053 l 486 1053 q 486 1031 478 1013 q 471 994 456 981 q 442 967 423 959 q 404 951 382 951 l 382 951 q 360 951 341 959 q 323 967 309 981 q 296 994 288 1013 q 279 1031 279 1053 l 279 1053 q 279 1074 288 1093 q 296 1112 309 1125 q 323 1139 341 1146 q 360 1154 382 1154 l 382 1154 q 403 1154 422 1146 q 441 1139 455 1125 q 469 1112 478 1093 q 486 1074 486 1053 z m 0 886 l 0 886 z "},"Ę":{"ha":764,"x_min":125,"x_max":685,"o":"m 685 -161 l 685 -261 q 663 -267 636 -271 q 609 -275 588 -275 l 588 -275 q 545 -275 515 -266 q 485 -256 467 -240 q 448 -224 440 -202 q 432 -180 432 -154 l 432 -154 q 432 -136 436 -118 q 439 -100 449 -81 q 458 -62 474 -42 q 490 -22 515 0 l 515 0 l 125 0 l 125 886 l 659 886 l 659 745 l 294 745 l 294 525 l 642 525 l 642 387 l 294 387 l 294 141 l 659 141 l 659 0 q 633 -26 618 -44 q 603 -63 595 -77 q 587 -92 584 -103 q 582 -115 582 -125 l 582 -125 q 582 -146 593 -156 q 604 -167 635 -167 l 635 -167 q 646 -167 660 -165 q 674 -163 685 -161 l 685 -161 z "},"Ĝ":{"ha":764,"x_min":32,"x_max":701,"o":"m 536 375 l 386 375 l 386 513 l 701 513 l 701 40 q 640 12 574 -2 q 507 -16 429 -16 l 429 -16 q 337 -16 263 13 q 190 41 138 98 q 87 154 59 237 q 32 321 32 431 l 32 431 q 32 541 61 629 q 90 716 145 777 q 200 838 280 869 q 361 901 464 901 l 464 901 q 525 901 583 891 q 641 880 699 863 l 699 863 l 699 698 q 648 722 588 737 q 527 752 465 752 l 465 752 q 403 752 355 730 q 307 709 275 669 q 243 629 226 570 q 210 512 210 439 l 210 439 q 210 368 222 312 q 235 255 264 215 q 293 176 338 155 q 384 134 449 134 l 449 134 q 465 134 476 135 q 488 136 498 138 q 508 140 517 142 q 526 145 536 149 l 536 149 l 536 375 z m 494 1133 l 655 981 l 507 981 l 423 1044 l 340 981 l 194 981 l 355 1133 l 494 1133 z m 41 886 l 41 886 z "},"Ğ":{"ha":764,"x_min":32,"x_max":701,"o":"m 536 375 l 386 375 l 386 513 l 701 513 l 701 40 q 640 12 574 -2 q 507 -16 429 -16 l 429 -16 q 337 -16 263 13 q 190 41 138 98 q 87 154 59 237 q 32 321 32 431 l 32 431 q 32 541 61 629 q 90 716 145 777 q 200 838 280 869 q 361 901 464 901 l 464 901 q 525 901 583 891 q 641 880 699 863 l 699 863 l 699 698 q 648 722 588 737 q 527 752 465 752 l 465 752 q 403 752 355 730 q 307 709 275 669 q 243 629 226 570 q 210 512 210 439 l 210 439 q 210 368 222 312 q 235 255 264 215 q 293 176 338 155 q 384 134 449 134 l 449 134 q 465 134 476 135 q 488 136 498 138 q 508 140 517 142 q 526 145 536 149 l 536 149 l 536 375 z m 504 1139 l 623 1139 q 623 1105 610 1074 q 598 1042 573 1019 q 549 995 511 981 q 473 966 421 966 l 421 966 q 370 966 332 981 q 295 996 271 1020 q 247 1044 235 1075 q 224 1106 224 1139 l 224 1139 l 342 1139 q 342 1127 347 1116 q 352 1105 361 1096 q 371 1086 386 1081 q 401 1075 423 1075 l 423 1075 q 464 1075 484 1093 q 504 1112 504 1139 l 504 1139 z m 41 886 l 41 886 z "},"Ġ":{"ha":764,"x_min":32,"x_max":701,"o":"m 536 375 l 386 375 l 386 513 l 701 513 l 701 40 q 640 12 574 -2 q 507 -16 429 -16 l 429 -16 q 337 -16 263 13 q 190 41 138 98 q 87 154 59 237 q 32 321 32 431 l 32 431 q 32 541 61 629 q 90 716 145 777 q 200 838 280 869 q 361 901 464 901 l 464 901 q 525 901 583 891 q 641 880 699 863 l 699 863 l 699 698 q 648 722 588 737 q 527 752 465 752 l 465 752 q 403 752 355 730 q 307 709 275 669 q 243 629 226 570 q 210 512 210 439 l 210 439 q 210 368 222 312 q 235 255 264 215 q 293 176 338 155 q 384 134 449 134 l 449 134 q 465 134 476 135 q 488 136 498 138 q 508 140 517 142 q 526 145 536 149 l 536 149 l 536 375 z m 528 1053 l 528 1053 q 528 1031 520 1013 q 512 994 498 981 q 484 967 465 959 q 446 951 423 951 l 423 951 q 401 951 383 959 q 364 967 351 981 q 337 994 329 1013 q 321 1031 321 1053 l 321 1053 q 321 1074 329 1093 q 337 1112 351 1125 q 364 1139 383 1146 q 401 1154 423 1154 l 423 1154 q 444 1154 463 1146 q 482 1139 496 1125 q 511 1112 519 1093 q 528 1074 528 1053 z m 41 886 l 41 886 z "},"Ģ":{"ha":764,"x_min":32,"x_max":701,"o":"m 536 375 l 386 375 l 386 513 l 701 513 l 701 40 q 640 12 574 -2 q 507 -16 429 -16 l 429 -16 q 337 -16 263 13 q 190 41 138 98 q 87 154 59 237 q 32 321 32 431 l 32 431 q 32 541 61 629 q 90 716 145 777 q 200 838 280 869 q 361 901 464 901 l 464 901 q 525 901 583 891 q 641 880 699 863 l 699 863 l 699 698 q 648 722 588 737 q 527 752 465 752 l 465 752 q 403 752 355 730 q 307 709 275 669 q 243 629 226 570 q 210 512 210 439 l 210 439 q 210 368 222 312 q 235 255 264 215 q 293 176 338 155 q 384 134 449 134 l 449 134 q 465 134 476 135 q 488 136 498 138 q 508 140 517 142 q 526 145 536 149 l 536 149 l 536 375 z m 309 -78 l 463 -78 l 400 -278 l 269 -278 l 309 -78 z "},"Ĥ":{"ha":764,"x_min":0,"x_max":699,"o":"m 699 0 l 532 0 l 532 386 l 231 386 l 231 0 l 64 0 l 64 886 l 231 886 l 231 530 l 532 530 l 532 886 l 699 886 l 699 0 z m 453 1133 l 614 981 l 465 981 l 382 1044 l 298 981 l 153 981 l 314 1133 l 453 1133 z m 0 886 l 0 886 z "},"Ħ":{"ha":764,"x_min":14,"x_max":750,"o":"m 686 0 l 519 0 l 519 370 l 246 370 l 246 0 l 79 0 l 79 621 l 14 621 l 14 758 l 79 758 l 79 886 l 246 886 l 246 758 l 519 758 l 519 886 l 686 886 l 686 758 l 750 758 l 750 621 l 686 621 l 686 0 z m 246 507 l 519 507 l 519 621 l 246 621 l 246 507 z "},"Ì":{"ha":764,"x_min":0,"x_max":662,"o":"m 297 750 l 102 750 l 102 886 l 662 886 l 662 750 l 467 750 l 467 138 l 662 138 l 662 0 l 102 0 l 102 138 l 297 138 l 297 750 z m 90 1133 l 314 1133 l 465 981 l 300 981 l 90 1133 z m 0 886 l 0 886 z "},"Í":{"ha":764,"x_min":0,"x_max":673,"o":"m 297 750 l 102 750 l 102 886 l 662 886 l 662 750 l 467 750 l 467 138 l 662 138 l 662 0 l 102 0 l 102 138 l 297 138 l 297 750 z m 673 1133 l 464 981 l 298 981 l 450 1133 l 673 1133 z m 0 886 l 0 886 z "},"Î":{"ha":764,"x_min":0,"x_max":662,"o":"m 297 750 l 102 750 l 102 886 l 662 886 l 662 750 l 467 750 l 467 138 l 662 138 l 662 0 l 102 0 l 102 138 l 297 138 l 297 750 z m 453 1133 l 614 981 l 465 981 l 382 1044 l 298 981 l 153 981 l 314 1133 l 453 1133 z m 0 886 l 0 886 z "},"Ĩ":{"ha":764,"x_min":0,"x_max":662,"o":"m 297 750 l 102 750 l 102 886 l 662 886 l 662 750 l 467 750 l 467 138 l 662 138 l 662 0 l 102 0 l 102 138 l 297 138 l 297 750 z m 564 1141 l 637 1071 q 609 1017 571 990 q 533 964 478 964 l 478 964 q 438 964 411 975 q 383 985 362 999 q 340 1012 322 1023 q 304 1034 282 1034 l 282 1034 q 257 1034 238 1018 q 219 1002 200 972 l 200 972 l 126 1043 q 155 1098 193 1124 q 231 1150 286 1150 l 286 1150 q 326 1150 354 1139 q 381 1128 402 1115 q 424 1102 442 1091 q 460 1080 482 1080 l 482 1080 q 507 1080 526 1096 q 545 1112 564 1141 l 564 1141 z m 0 886 l 0 886 z "},"Ï":{"ha":764,"x_min":0,"x_max":662,"o":"m 297 750 l 102 750 l 102 886 l 662 886 l 662 750 l 467 750 l 467 138 l 662 138 l 662 0 l 102 0 l 102 138 l 297 138 l 297 750 z m 325 1053 l 325 1053 q 325 1034 318 1017 q 311 1000 298 987 q 285 975 268 967 q 251 960 232 960 l 232 960 q 212 960 196 967 q 179 975 166 987 q 153 1000 146 1017 q 139 1034 139 1053 l 139 1053 q 139 1072 146 1089 q 153 1106 166 1119 q 179 1131 196 1139 q 212 1146 232 1146 l 232 1146 q 251 1146 268 1139 q 285 1131 298 1119 q 311 1106 318 1089 q 325 1072 325 1053 z m 625 1053 l 625 1053 q 625 1034 617 1017 q 610 1000 597 987 q 585 975 568 967 q 551 960 532 960 l 532 960 q 513 960 496 967 q 479 975 466 987 q 454 1000 446 1017 q 439 1034 439 1053 l 439 1053 q 439 1072 446 1089 q 454 1106 466 1119 q 479 1131 496 1139 q 513 1146 532 1146 l 532 1146 q 551 1146 568 1139 q 585 1131 597 1119 q 610 1106 617 1089 q 625 1072 625 1053 z m 0 886 l 0 886 z "},"Ī":{"ha":764,"x_min":0,"x_max":662,"o":"m 297 750 l 102 750 l 102 886 l 662 886 l 662 750 l 467 750 l 467 138 l 662 138 l 662 0 l 102 0 l 102 138 l 297 138 l 297 750 z m 579 991 l 184 991 l 184 1109 l 579 1109 l 579 991 z m 0 886 l 0 886 z "},"Ĭ":{"ha":764,"x_min":0,"x_max":662,"o":"m 297 750 l 102 750 l 102 886 l 662 886 l 662 750 l 467 750 l 467 138 l 662 138 l 662 0 l 102 0 l 102 138 l 297 138 l 297 750 z m 463 1139 l 581 1139 q 581 1105 569 1074 q 557 1042 532 1019 q 507 995 469 981 q 431 966 380 966 l 380 966 q 328 966 291 981 q 254 996 230 1020 q 205 1044 194 1075 q 182 1106 182 1139 l 182 1139 l 301 1139 q 301 1127 306 1116 q 311 1105 320 1096 q 330 1086 345 1081 q 360 1075 382 1075 l 382 1075 q 422 1075 443 1093 q 463 1112 463 1139 l 463 1139 z m 0 886 l 0 886 z "},"İ":{"ha":764,"x_min":0,"x_max":662,"o":"m 297 750 l 102 750 l 102 886 l 662 886 l 662 750 l 467 750 l 467 138 l 662 138 l 662 0 l 102 0 l 102 138 l 297 138 l 297 750 z m 486 1053 l 486 1053 q 486 1031 478 1013 q 471 994 456 981 q 442 967 423 959 q 404 951 382 951 l 382 951 q 360 951 341 959 q 323 967 309 981 q 296 994 288 1013 q 279 1031 279 1053 l 279 1053 q 279 1074 288 1093 q 296 1112 309 1125 q 323 1139 341 1146 q 360 1154 382 1154 l 382 1154 q 403 1154 422 1146 q 441 1139 455 1125 q 469 1112 478 1093 q 486 1074 486 1053 z m 0 886 l 0 886 z "},"Į":{"ha":764,"x_min":102,"x_max":689,"o":"m 689 -161 l 689 -261 q 667 -267 640 -271 q 613 -275 592 -275 l 592 -275 q 549 -275 519 -266 q 489 -256 471 -240 q 452 -224 444 -202 q 436 -180 436 -154 l 436 -154 q 436 -136 440 -118 q 444 -100 453 -81 q 463 -62 478 -42 q 494 -22 519 0 l 519 0 l 102 0 l 102 138 l 297 138 l 297 750 l 102 750 l 102 886 l 663 886 l 663 750 l 467 750 l 467 138 l 663 138 l 663 0 q 637 -26 622 -44 q 607 -63 599 -77 q 591 -92 588 -103 q 586 -115 586 -125 l 586 -125 q 586 -146 597 -156 q 608 -167 639 -167 l 639 -167 q 650 -167 664 -165 q 678 -163 689 -161 l 689 -161 z "},"Ĳ":{"ha":764,"x_min":65,"x_max":700,"o":"m 232 886 l 232 0 l 65 0 l 65 886 l 232 886 z m 700 886 l 700 220 q 700 172 684 130 q 668 87 637 56 q 607 25 563 7 q 518 -11 461 -11 l 461 -11 q 425 -11 390 -5 q 355 1 325 13 l 325 13 l 325 160 q 350 146 382 138 q 415 130 448 130 l 448 130 q 463 130 477 134 q 492 139 505 150 q 517 161 525 180 q 533 199 533 228 l 533 228 l 533 886 l 700 886 z "},"Ĵ":{"ha":764,"x_min":0,"x_max":614,"o":"m 614 886 l 614 265 q 614 203 594 151 q 574 100 536 63 q 498 26 442 6 q 386 -14 311 -14 l 311 -14 q 256 -14 205 -1 q 155 12 117 32 l 117 32 l 117 193 q 134 179 156 167 q 179 155 205 145 q 231 136 258 131 q 285 126 311 126 l 311 126 q 334 126 358 134 q 382 142 401 161 q 420 180 432 211 q 444 242 444 288 l 444 288 l 444 749 l 123 749 l 123 886 l 614 886 z m 453 1133 l 614 981 l 465 981 l 382 1044 l 298 981 l 153 981 l 314 1133 l 453 1133 z m 0 886 l 0 886 z "},"Ķ":{"ha":764,"x_min":87,"x_max":739,"o":"m 739 0 l 524 0 l 257 429 l 257 0 l 87 0 l 87 886 l 257 886 l 257 483 l 522 886 l 724 886 l 422 464 l 739 0 z m 309 -78 l 463 -78 l 400 -278 l 269 -278 l 309 -78 z "},"Ĺ":{"ha":764,"x_min":0,"x_max":677,"o":"m 677 0 l 134 0 l 134 886 l 303 886 l 303 143 l 677 143 l 677 0 z m 673 1133 l 464 981 l 298 981 l 450 1133 l 673 1133 z m 0 886 l 0 886 z "},"Ľ":{"ha":764,"x_min":-165,"x_max":692,"o":"m 677 0 l 134 0 l 134 886 l 303 886 l 303 143 l 677 143 l 677 0 z m 692 1010 l 611 781 l 480 781 l 533 1010 l 692 1010 z m -165 689 l -165 689 z "},"Ļ":{"ha":764,"x_min":134,"x_max":677,"o":"m 677 0 l 134 0 l 134 886 l 303 886 l 303 143 l 677 143 l 677 0 z m 336 -78 l 490 -78 l 428 -278 l 297 -278 l 336 -78 z "},"Ł":{"ha":764,"x_min":24,"x_max":692,"o":"m 315 460 l 315 143 l 692 143 l 692 0 l 146 0 l 146 374 l 24 311 l 24 456 l 146 518 l 146 886 l 315 886 l 315 605 l 555 728 l 555 583 l 315 460 z "},"Ŀ":{"ha":764,"x_min":107,"x_max":764,"o":"m 651 0 l 107 0 l 107 886 l 277 886 l 277 143 l 651 143 l 651 0 z m 631 555 l 631 555 q 659 555 684 545 q 708 534 726 516 q 744 498 754 474 q 764 450 764 422 l 764 422 q 764 395 754 371 q 744 347 726 329 q 708 311 684 301 q 659 290 631 290 l 631 290 q 604 290 580 301 q 556 311 538 329 q 521 347 511 371 q 500 395 500 422 l 500 422 q 500 450 511 474 q 521 498 538 516 q 556 534 580 545 q 604 555 631 555 z "},"Ń":{"ha":764,"x_min":0,"x_max":705,"o":"m 705 0 l 502 0 l 264 529 l 216 643 l 216 275 l 216 0 l 64 0 l 64 886 l 269 886 l 511 354 l 553 250 l 553 642 l 553 886 l 705 886 l 705 0 z m 673 1133 l 464 981 l 298 981 l 450 1133 l 673 1133 z m 0 886 l 0 886 z "},"Ň":{"ha":764,"x_min":0,"x_max":705,"o":"m 705 0 l 502 0 l 264 529 l 216 643 l 216 275 l 216 0 l 64 0 l 64 886 l 269 886 l 511 354 l 553 250 l 553 642 l 553 886 l 705 886 l 705 0 z m 313 981 l 151 1133 l 300 1133 l 383 1069 l 467 1133 l 612 1133 l 452 981 l 313 981 z m 0 886 l 0 886 z "},"Ñ":{"ha":764,"x_min":0,"x_max":705,"o":"m 705 0 l 502 0 l 264 529 l 216 643 l 216 275 l 216 0 l 64 0 l 64 886 l 269 886 l 511 354 l 553 250 l 553 642 l 553 886 l 705 886 l 705 0 z m 564 1141 l 637 1071 q 609 1017 571 990 q 533 964 478 964 l 478 964 q 438 964 411 975 q 383 985 362 999 q 340 1012 322 1023 q 304 1034 282 1034 l 282 1034 q 257 1034 238 1018 q 219 1002 200 972 l 200 972 l 126 1043 q 155 1098 193 1124 q 231 1150 286 1150 l 286 1150 q 326 1150 354 1139 q 381 1128 402 1115 q 424 1102 442 1091 q 460 1080 482 1080 l 482 1080 q 507 1080 526 1096 q 545 1112 564 1141 l 564 1141 z m 0 886 l 0 886 z "},"Ņ":{"ha":764,"x_min":64,"x_max":705,"o":"m 705 0 l 502 0 l 264 529 l 216 643 l 216 275 l 216 0 l 64 0 l 64 886 l 269 886 l 511 354 l 553 250 l 553 642 l 553 886 l 705 886 l 705 0 z m 309 -78 l 463 -78 l 400 -278 l 269 -278 l 309 -78 z "},"Ŋ":{"ha":764,"x_min":64,"x_max":705,"o":"m 705 886 l 705 1 q 705 -76 683 -131 q 660 -185 618 -219 q 577 -254 518 -269 q 458 -285 385 -285 l 385 -285 l 385 -153 q 460 -153 499 -118 q 538 -83 538 0 l 538 0 l 216 643 l 216 553 l 216 0 l 64 0 l 64 886 l 259 886 l 524 368 l 553 304 l 553 378 l 553 886 l 705 886 z "},"Ò":{"ha":764,"x_min":0,"x_max":739,"o":"m 739 447 l 739 447 q 739 326 710 239 q 682 151 633 95 q 584 39 518 12 q 452 -16 376 -16 l 376 -16 q 201 -16 113 101 q 25 217 25 439 l 25 439 q 25 559 53 647 q 81 734 131 791 q 180 847 246 874 q 312 901 387 901 l 387 901 q 562 901 650 785 q 739 669 739 447 z m 562 439 l 562 439 q 562 596 520 673 q 478 751 382 751 l 382 751 q 334 751 300 731 q 266 711 244 672 q 222 633 212 577 q 201 520 201 447 l 201 447 q 201 290 244 212 q 286 135 382 135 l 382 135 q 430 135 464 155 q 498 175 520 214 q 542 252 552 309 q 562 366 562 439 z m 90 1133 l 314 1133 l 465 981 l 300 981 l 90 1133 z m 0 886 l 0 886 z "},"Ó":{"ha":764,"x_min":0,"x_max":739,"o":"m 739 447 l 739 447 q 739 326 710 239 q 682 151 633 95 q 584 39 518 12 q 452 -16 376 -16 l 376 -16 q 201 -16 113 101 q 25 217 25 439 l 25 439 q 25 559 53 647 q 81 734 131 791 q 180 847 246 874 q 312 901 387 901 l 387 901 q 562 901 650 785 q 739 669 739 447 z m 562 439 l 562 439 q 562 596 520 673 q 478 751 382 751 l 382 751 q 334 751 300 731 q 266 711 244 672 q 222 633 212 577 q 201 520 201 447 l 201 447 q 201 290 244 212 q 286 135 382 135 l 382 135 q 430 135 464 155 q 498 175 520 214 q 542 252 552 309 q 562 366 562 439 z m 673 1133 l 464 981 l 298 981 l 450 1133 l 673 1133 z m 0 886 l 0 886 z "},"Ô":{"ha":764,"x_min":0,"x_max":739,"o":"m 739 447 l 739 447 q 739 326 710 239 q 682 151 633 95 q 584 39 518 12 q 452 -16 376 -16 l 376 -16 q 201 -16 113 101 q 25 217 25 439 l 25 439 q 25 559 53 647 q 81 734 131 791 q 180 847 246 874 q 312 901 387 901 l 387 901 q 562 901 650 785 q 739 669 739 447 z m 562 439 l 562 439 q 562 596 520 673 q 478 751 382 751 l 382 751 q 334 751 300 731 q 266 711 244 672 q 222 633 212 577 q 201 520 201 447 l 201 447 q 201 290 244 212 q 286 135 382 135 l 382 135 q 430 135 464 155 q 498 175 520 214 q 542 252 552 309 q 562 366 562 439 z m 453 1133 l 614 981 l 465 981 l 382 1044 l 298 981 l 153 981 l 314 1133 l 453 1133 z m 0 886 l 0 886 z "},"Õ":{"ha":764,"x_min":0,"x_max":739,"o":"m 739 447 l 739 447 q 739 326 710 239 q 682 151 633 95 q 584 39 518 12 q 452 -16 376 -16 l 376 -16 q 201 -16 113 101 q 25 217 25 439 l 25 439 q 25 559 53 647 q 81 734 131 791 q 180 847 246 874 q 312 901 387 901 l 387 901 q 562 901 650 785 q 739 669 739 447 z m 562 439 l 562 439 q 562 596 520 673 q 478 751 382 751 l 382 751 q 334 751 300 731 q 266 711 244 672 q 222 633 212 577 q 201 520 201 447 l 201 447 q 201 290 244 212 q 286 135 382 135 l 382 135 q 430 135 464 155 q 498 175 520 214 q 542 252 552 309 q 562 366 562 439 z m 564 1141 l 637 1071 q 609 1017 571 990 q 533 964 478 964 l 478 964 q 438 964 411 975 q 383 985 362 999 q 340 1012 322 1023 q 304 1034 282 1034 l 282 1034 q 257 1034 238 1018 q 219 1002 200 972 l 200 972 l 126 1043 q 155 1098 193 1124 q 231 1150 286 1150 l 286 1150 q 326 1150 354 1139 q 381 1128 402 1115 q 424 1102 442 1091 q 460 1080 482 1080 l 482 1080 q 507 1080 526 1096 q 545 1112 564 1141 l 564 1141 z m 0 886 l 0 886 z "},"Ö":{"ha":764,"x_min":0,"x_max":739,"o":"m 739 447 l 739 447 q 739 326 710 239 q 682 151 633 95 q 584 39 518 12 q 452 -16 376 -16 l 376 -16 q 201 -16 113 101 q 25 217 25 439 l 25 439 q 25 559 53 647 q 81 734 131 791 q 180 847 246 874 q 312 901 387 901 l 387 901 q 562 901 650 785 q 739 669 739 447 z m 562 439 l 562 439 q 562 596 520 673 q 478 751 382 751 l 382 751 q 334 751 300 731 q 266 711 244 672 q 222 633 212 577 q 201 520 201 447 l 201 447 q 201 290 244 212 q 286 135 382 135 l 382 135 q 430 135 464 155 q 498 175 520 214 q 542 252 552 309 q 562 366 562 439 z m 325 1053 l 325 1053 q 325 1034 318 1017 q 311 1000 298 987 q 285 975 268 967 q 251 960 232 960 l 232 960 q 212 960 196 967 q 179 975 166 987 q 153 1000 146 1017 q 139 1034 139 1053 l 139 1053 q 139 1072 146 1089 q 153 1106 166 1119 q 179 1131 196 1139 q 212 1146 232 1146 l 232 1146 q 251 1146 268 1139 q 285 1131 298 1119 q 311 1106 318 1089 q 325 1072 325 1053 z m 625 1053 l 625 1053 q 625 1034 617 1017 q 610 1000 597 987 q 585 975 568 967 q 551 960 532 960 l 532 960 q 513 960 496 967 q 479 975 466 987 q 454 1000 446 1017 q 439 1034 439 1053 l 439 1053 q 439 1072 446 1089 q 454 1106 466 1119 q 479 1131 496 1139 q 513 1146 532 1146 l 532 1146 q 551 1146 568 1139 q 585 1131 597 1119 q 610 1106 617 1089 q 625 1072 625 1053 z m 0 886 l 0 886 z "},"Ō":{"ha":764,"x_min":0,"x_max":739,"o":"m 739 447 l 739 447 q 739 326 710 239 q 682 151 633 95 q 584 39 518 12 q 452 -16 376 -16 l 376 -16 q 201 -16 113 101 q 25 217 25 439 l 25 439 q 25 559 53 647 q 81 734 131 791 q 180 847 246 874 q 312 901 387 901 l 387 901 q 562 901 650 785 q 739 669 739 447 z m 562 439 l 562 439 q 562 596 520 673 q 478 751 382 751 l 382 751 q 334 751 300 731 q 266 711 244 672 q 222 633 212 577 q 201 520 201 447 l 201 447 q 201 290 244 212 q 286 135 382 135 l 382 135 q 430 135 464 155 q 498 175 520 214 q 542 252 552 309 q 562 366 562 439 z m 579 991 l 184 991 l 184 1109 l 579 1109 l 579 991 z m 0 886 l 0 886 z "},"Ŏ":{"ha":764,"x_min":0,"x_max":739,"o":"m 739 447 l 739 447 q 739 326 710 239 q 682 151 633 95 q 584 39 518 12 q 452 -16 376 -16 l 376 -16 q 201 -16 113 101 q 25 217 25 439 l 25 439 q 25 559 53 647 q 81 734 131 791 q 180 847 246 874 q 312 901 387 901 l 387 901 q 562 901 650 785 q 739 669 739 447 z m 562 439 l 562 439 q 562 596 520 673 q 478 751 382 751 l 382 751 q 334 751 300 731 q 266 711 244 672 q 222 633 212 577 q 201 520 201 447 l 201 447 q 201 290 244 212 q 286 135 382 135 l 382 135 q 430 135 464 155 q 498 175 520 214 q 542 252 552 309 q 562 366 562 439 z m 463 1139 l 581 1139 q 581 1105 569 1074 q 557 1042 532 1019 q 507 995 469 981 q 431 966 380 966 l 380 966 q 328 966 291 981 q 254 996 230 1020 q 205 1044 194 1075 q 182 1106 182 1139 l 182 1139 l 301 1139 q 301 1127 306 1116 q 311 1105 320 1096 q 330 1086 345 1081 q 360 1075 382 1075 l 382 1075 q 422 1075 443 1093 q 463 1112 463 1139 l 463 1139 z m 0 886 l 0 886 z "},"Ő":{"ha":764,"x_min":0,"x_max":800,"o":"m 739 447 l 739 447 q 739 326 710 239 q 682 151 633 95 q 584 39 518 12 q 452 -16 376 -16 l 376 -16 q 201 -16 113 101 q 25 217 25 439 l 25 439 q 25 559 53 647 q 81 734 131 791 q 180 847 246 874 q 312 901 387 901 l 387 901 q 562 901 650 785 q 739 669 739 447 z m 562 439 l 562 439 q 562 596 520 673 q 478 751 382 751 l 382 751 q 334 751 300 731 q 266 711 244 672 q 222 633 212 577 q 201 520 201 447 l 201 447 q 201 290 244 212 q 286 135 382 135 l 382 135 q 430 135 464 155 q 498 175 520 214 q 542 252 552 309 q 562 366 562 439 z m 315 1133 l 513 1133 l 317 981 l 170 981 l 315 1133 z m 590 1133 l 800 1133 l 583 981 l 432 981 l 590 1133 z m 0 886 l 0 886 z "},"Ø":{"ha":764,"x_min":25,"x_max":739,"o":"m 739 453 l 739 453 q 739 333 711 244 q 683 156 635 98 q 587 41 521 13 q 456 -16 380 -16 l 380 -16 q 361 -16 342 -14 q 323 -12 306 -8 l 306 -8 l 262 -146 l 129 -146 l 186 35 q 106 86 66 186 q 25 287 25 435 l 25 435 q 25 554 53 642 q 80 730 129 787 q 177 845 242 873 q 308 901 383 901 l 383 901 q 403 901 422 900 q 441 898 458 895 l 458 895 l 501 1032 l 635 1032 l 576 850 q 657 799 698 699 q 739 598 739 453 z m 568 439 l 568 439 q 568 520 557 581 q 547 642 524 682 l 524 682 l 350 133 q 358 130 367 130 q 376 130 386 130 l 386 130 q 434 130 469 151 q 503 172 525 212 q 547 252 557 309 q 568 366 568 439 z m 196 448 l 196 448 q 196 366 206 306 q 216 246 240 206 l 240 206 l 412 753 q 405 755 397 755 q 389 756 380 756 l 380 756 q 332 756 298 735 q 263 714 240 674 q 218 635 207 577 q 196 520 196 448 z "},"Ǿ":{"ha":764,"x_min":-138,"x_max":739,"o":"m 739 453 l 739 453 q 739 333 711 244 q 683 156 635 98 q 587 41 521 13 q 456 -16 380 -16 l 380 -16 q 361 -16 342 -14 q 323 -12 306 -8 l 306 -8 l 262 -146 l 129 -146 l 186 35 q 106 86 66 186 q 25 287 25 435 l 25 435 q 25 554 53 642 q 80 730 129 787 q 177 845 242 873 q 308 901 383 901 l 383 901 q 403 901 422 900 q 441 898 458 895 l 458 895 l 501 1032 l 635 1032 l 576 850 q 657 799 698 699 q 739 598 739 453 z m 568 439 l 568 439 q 568 520 557 581 q 547 642 524 682 l 524 682 l 350 133 q 358 130 367 130 q 376 130 386 130 l 386 130 q 434 130 469 151 q 503 172 525 212 q 547 252 557 309 q 568 366 568 439 z m 196 448 l 196 448 q 196 366 206 306 q 216 246 240 206 l 240 206 l 412 753 q 405 755 397 755 q 389 756 380 756 l 380 756 q 332 756 298 735 q 263 714 240 674 q 218 635 207 577 q 196 520 196 448 z m 536 1133 l 326 981 l 161 981 l 313 1133 l 536 1133 z m -138 886 l -138 886 z "},"Œ":{"ha":764,"x_min":18,"x_max":746,"o":"m 746 0 l 505 0 q 479 0 460 -2 q 440 -4 421 -6 q 403 -8 384 -10 q 364 -12 340 -12 l 340 -12 q 255 -12 194 17 q 133 46 94 104 q 55 161 37 246 q 18 330 18 441 l 18 441 q 18 562 43 648 q 68 734 112 790 q 156 846 216 872 q 276 899 347 899 l 347 899 q 375 899 395 897 q 415 895 432 892 q 449 890 465 888 q 481 886 500 886 l 500 886 l 746 886 l 746 753 l 550 753 l 550 522 l 730 522 l 730 393 l 550 393 l 550 134 l 746 134 l 746 0 z m 395 137 l 395 751 q 385 755 375 756 q 364 757 345 757 l 345 757 q 302 757 273 734 q 243 711 224 670 q 205 629 196 572 q 187 514 187 444 l 187 444 q 187 369 196 310 q 204 252 223 212 q 243 172 274 151 q 304 130 349 130 l 349 130 q 366 130 377 132 q 387 134 395 137 l 395 137 z "},"Þ":{"ha":764,"x_min":92,"x_max":707,"o":"m 532 473 l 532 473 q 532 543 487 584 q 441 626 347 626 l 347 626 l 260 626 l 260 301 l 353 301 q 396 301 429 313 q 463 326 485 348 q 508 370 520 402 q 532 434 532 473 z m 260 886 l 260 764 l 351 764 q 437 764 504 745 q 570 726 615 690 q 660 654 683 602 q 707 550 707 482 l 707 482 q 707 413 684 354 q 661 296 615 253 q 570 210 502 186 q 434 163 345 163 l 345 163 l 260 163 l 260 0 l 92 0 l 92 886 l 260 886 z "},"Ŕ":{"ha":764,"x_min":-26,"x_max":730,"o":"m 730 0 l 534 0 l 410 285 q 392 326 360 346 q 329 367 286 367 l 286 367 l 254 367 l 254 0 l 87 0 l 87 886 l 346 886 q 419 886 479 874 q 538 861 581 832 q 623 803 645 756 q 668 709 668 642 l 668 642 q 668 593 654 555 q 640 517 614 489 q 588 462 552 445 q 517 428 475 421 l 475 421 q 507 414 534 384 q 562 354 589 297 l 589 297 l 730 0 z m 493 625 l 493 625 q 493 690 452 719 q 410 747 328 747 l 328 747 l 254 747 l 254 497 l 322 497 q 361 497 392 505 q 424 513 446 530 q 469 546 481 570 q 493 594 493 625 z m 647 1133 l 437 981 l 272 981 l 424 1133 l 647 1133 z m -26 886 l -26 886 z "},"Ř":{"ha":764,"x_min":-26,"x_max":730,"o":"m 730 0 l 534 0 l 410 285 q 392 326 360 346 q 329 367 286 367 l 286 367 l 254 367 l 254 0 l 87 0 l 87 886 l 346 886 q 419 886 479 874 q 538 861 581 832 q 623 803 645 756 q 668 709 668 642 l 668 642 q 668 593 654 555 q 640 517 614 489 q 588 462 552 445 q 517 428 475 421 l 475 421 q 507 414 534 384 q 562 354 589 297 l 589 297 l 730 0 z m 493 625 l 493 625 q 493 690 452 719 q 410 747 328 747 l 328 747 l 254 747 l 254 497 l 322 497 q 361 497 392 505 q 424 513 446 530 q 469 546 481 570 q 493 594 493 625 z m 286 981 l 125 1133 l 273 1133 l 357 1069 l 440 1133 l 586 1133 l 425 981 l 286 981 z m -26 886 l -26 886 z "},"Ŗ":{"ha":764,"x_min":87,"x_max":730,"o":"m 730 0 l 534 0 l 410 285 q 392 326 360 346 q 329 367 286 367 l 286 367 l 254 367 l 254 0 l 87 0 l 87 886 l 346 886 q 419 886 479 874 q 538 861 581 832 q 623 803 645 756 q 668 709 668 642 l 668 642 q 668 593 654 555 q 640 517 614 489 q 588 462 552 445 q 517 428 475 421 l 475 421 q 507 414 534 384 q 562 354 589 297 l 589 297 l 730 0 z m 493 625 l 493 625 q 493 690 452 719 q 410 747 328 747 l 328 747 l 254 747 l 254 497 l 322 497 q 361 497 392 505 q 424 513 446 530 q 469 546 481 570 q 493 594 493 625 z m 309 -78 l 463 -78 l 400 -278 l 269 -278 l 309 -78 z "},"Ś":{"ha":764,"x_min":0,"x_max":692,"o":"m 692 268 l 692 268 q 692 195 665 142 q 638 88 590 53 q 542 18 475 1 q 409 -16 330 -16 l 330 -16 q 260 -16 195 -7 q 130 1 66 20 l 66 20 l 66 184 q 98 174 132 164 q 165 155 200 148 q 234 140 268 136 q 302 132 334 132 l 334 132 q 381 132 414 140 q 448 149 469 163 q 490 177 499 197 q 509 216 509 240 l 509 240 q 509 273 490 295 q 471 317 441 334 q 410 351 371 364 q 332 378 292 393 q 252 409 213 429 q 174 448 143 477 q 113 507 94 547 q 75 587 75 644 l 75 644 q 75 696 94 743 q 113 790 154 825 q 195 860 258 881 q 322 901 412 901 l 412 901 q 439 901 468 899 q 496 897 525 893 q 553 889 579 884 q 605 879 627 873 l 627 873 l 627 721 q 605 729 579 736 q 553 743 526 748 q 498 753 471 755 q 443 758 418 758 l 418 758 q 374 758 343 751 q 313 744 293 731 q 273 719 264 701 q 256 682 256 660 l 256 660 q 256 632 274 612 q 293 592 324 576 q 355 560 394 546 q 433 532 474 516 q 515 500 554 480 q 593 460 624 431 q 654 401 673 362 q 692 322 692 268 z m 673 1133 l 464 981 l 298 981 l 450 1133 l 673 1133 z m 0 886 l 0 886 z "},"Ŝ":{"ha":764,"x_min":0,"x_max":692,"o":"m 692 268 l 692 268 q 692 195 665 142 q 638 88 590 53 q 542 18 475 1 q 409 -16 330 -16 l 330 -16 q 260 -16 195 -7 q 130 1 66 20 l 66 20 l 66 184 q 98 174 132 164 q 165 155 200 148 q 234 140 268 136 q 302 132 334 132 l 334 132 q 381 132 414 140 q 448 149 469 163 q 490 177 499 197 q 509 216 509 240 l 509 240 q 509 273 490 295 q 471 317 441 334 q 410 351 371 364 q 332 378 292 393 q 252 409 213 429 q 174 448 143 477 q 113 507 94 547 q 75 587 75 644 l 75 644 q 75 696 94 743 q 113 790 154 825 q 195 860 258 881 q 322 901 412 901 l 412 901 q 439 901 468 899 q 496 897 525 893 q 553 889 579 884 q 605 879 627 873 l 627 873 l 627 721 q 605 729 579 736 q 553 743 526 748 q 498 753 471 755 q 443 758 418 758 l 418 758 q 374 758 343 751 q 313 744 293 731 q 273 719 264 701 q 256 682 256 660 l 256 660 q 256 632 274 612 q 293 592 324 576 q 355 560 394 546 q 433 532 474 516 q 515 500 554 480 q 593 460 624 431 q 654 401 673 362 q 692 322 692 268 z m 453 1133 l 614 981 l 465 981 l 382 1044 l 298 981 l 153 981 l 314 1133 l 453 1133 z m 0 886 l 0 886 z "},"Š":{"ha":764,"x_min":0,"x_max":692,"o":"m 692 268 l 692 268 q 692 195 665 142 q 638 88 590 53 q 542 18 475 1 q 409 -16 330 -16 l 330 -16 q 260 -16 195 -7 q 130 1 66 20 l 66 20 l 66 184 q 98 174 132 164 q 165 155 200 148 q 234 140 268 136 q 302 132 334 132 l 334 132 q 381 132 414 140 q 448 149 469 163 q 490 177 499 197 q 509 216 509 240 l 509 240 q 509 273 490 295 q 471 317 441 334 q 410 351 371 364 q 332 378 292 393 q 252 409 213 429 q 174 448 143 477 q 113 507 94 547 q 75 587 75 644 l 75 644 q 75 696 94 743 q 113 790 154 825 q 195 860 258 881 q 322 901 412 901 l 412 901 q 439 901 468 899 q 496 897 525 893 q 553 889 579 884 q 605 879 627 873 l 627 873 l 627 721 q 605 729 579 736 q 553 743 526 748 q 498 753 471 755 q 443 758 418 758 l 418 758 q 374 758 343 751 q 313 744 293 731 q 273 719 264 701 q 256 682 256 660 l 256 660 q 256 632 274 612 q 293 592 324 576 q 355 560 394 546 q 433 532 474 516 q 515 500 554 480 q 593 460 624 431 q 654 401 673 362 q 692 322 692 268 z m 313 981 l 151 1133 l 300 1133 l 383 1069 l 467 1133 l 612 1133 l 452 981 l 313 981 z m 0 886 l 0 886 z "},"Ş":{"ha":764,"x_min":66,"x_max":692,"o":"m 692 268 l 692 268 q 692 210 674 164 q 657 119 626 85 q 594 52 550 29 q 505 7 451 -4 l 451 -4 l 378 -200 l 257 -200 l 295 -15 q 235 -14 179 -5 q 122 3 66 20 l 66 20 l 66 184 q 98 174 132 164 q 165 155 200 148 q 234 140 268 136 q 302 132 334 132 l 334 132 q 381 132 414 140 q 448 149 469 163 q 490 177 499 197 q 509 216 509 240 l 509 240 q 509 273 490 295 q 471 317 441 334 q 410 351 371 364 q 332 378 292 393 q 252 409 213 429 q 174 448 143 477 q 113 507 94 547 q 75 587 75 644 l 75 644 q 75 696 94 743 q 113 790 154 825 q 195 860 258 881 q 322 901 412 901 l 412 901 q 439 901 468 899 q 496 897 525 893 q 553 889 579 884 q 605 879 627 873 l 627 873 l 627 721 q 605 729 579 736 q 553 743 526 748 q 498 753 471 755 q 443 758 418 758 l 418 758 q 374 758 343 751 q 313 744 293 731 q 273 719 264 701 q 256 682 256 660 l 256 660 q 256 632 274 612 q 293 592 324 576 q 355 560 394 546 q 433 532 474 516 q 515 500 554 480 q 593 460 624 431 q 654 401 673 362 q 692 322 692 268 z "},"Ș":{"ha":764,"x_min":66,"x_max":692,"o":"m 692 268 l 692 268 q 692 195 665 142 q 638 88 590 53 q 542 18 475 1 q 409 -16 330 -16 l 330 -16 q 260 -16 195 -7 q 130 1 66 20 l 66 20 l 66 184 q 98 174 132 164 q 165 155 200 148 q 234 140 268 136 q 302 132 334 132 l 334 132 q 381 132 414 140 q 448 149 469 163 q 490 177 499 197 q 509 216 509 240 l 509 240 q 509 273 490 295 q 471 317 441 334 q 410 351 371 364 q 332 378 292 393 q 252 409 213 429 q 174 448 143 477 q 113 507 94 547 q 75 587 75 644 l 75 644 q 75 696 94 743 q 113 790 154 825 q 195 860 258 881 q 322 901 412 901 l 412 901 q 439 901 468 899 q 496 897 525 893 q 553 889 579 884 q 605 879 627 873 l 627 873 l 627 721 q 605 729 579 736 q 553 743 526 748 q 498 753 471 755 q 443 758 418 758 l 418 758 q 374 758 343 751 q 313 744 293 731 q 273 719 264 701 q 256 682 256 660 l 256 660 q 256 632 274 612 q 293 592 324 576 q 355 560 394 546 q 433 532 474 516 q 515 500 554 480 q 593 460 624 431 q 654 401 673 362 q 692 322 692 268 z m 309 -78 l 463 -78 l 400 -278 l 269 -278 l 309 -78 z "},"Ť":{"ha":764,"x_min":0,"x_max":710,"o":"m 710 747 l 467 747 l 467 0 l 296 0 l 296 747 l 54 747 l 54 886 l 710 886 l 710 747 z m 313 981 l 151 1133 l 300 1133 l 383 1069 l 467 1133 l 612 1133 l 452 981 l 313 981 z m 0 886 l 0 886 z "},"Ț":{"ha":764,"x_min":54,"x_max":710,"o":"m 710 747 l 467 747 l 467 0 l 296 0 l 296 747 l 54 747 l 54 886 l 710 886 l 710 747 z m 309 -78 l 463 -78 l 400 -278 l 269 -278 l 309 -78 z "},"Ŧ":{"ha":764,"x_min":54,"x_max":710,"o":"m 710 747 l 467 747 l 467 500 l 629 500 l 629 363 l 467 363 l 467 0 l 296 0 l 296 363 l 136 363 l 136 500 l 296 500 l 296 747 l 54 747 l 54 886 l 710 886 l 710 747 z "},"Ù":{"ha":764,"x_min":0,"x_max":705,"o":"m 705 886 l 705 326 q 705 241 682 177 q 659 113 617 71 q 574 28 513 6 q 452 -16 376 -16 l 376 -16 q 291 -16 230 6 q 169 28 131 68 q 93 109 76 168 q 59 226 59 298 l 59 298 l 59 886 l 226 886 l 226 309 q 226 264 234 229 q 241 195 261 171 q 280 146 309 134 q 338 122 382 122 l 382 122 q 424 122 452 133 q 481 143 500 166 q 519 190 528 227 q 538 263 538 315 l 538 315 l 538 886 l 705 886 z m 90 1133 l 314 1133 l 465 981 l 300 981 l 90 1133 z m 0 886 l 0 886 z "},"Ú":{"ha":764,"x_min":0,"x_max":705,"o":"m 705 886 l 705 326 q 705 241 682 177 q 659 113 617 71 q 574 28 513 6 q 452 -16 376 -16 l 376 -16 q 291 -16 230 6 q 169 28 131 68 q 93 109 76 168 q 59 226 59 298 l 59 298 l 59 886 l 226 886 l 226 309 q 226 264 234 229 q 241 195 261 171 q 280 146 309 134 q 338 122 382 122 l 382 122 q 424 122 452 133 q 481 143 500 166 q 519 190 528 227 q 538 263 538 315 l 538 315 l 538 886 l 705 886 z m 673 1133 l 464 981 l 298 981 l 450 1133 l 673 1133 z m 0 886 l 0 886 z "},"Û":{"ha":764,"x_min":0,"x_max":705,"o":"m 705 886 l 705 326 q 705 241 682 177 q 659 113 617 71 q 574 28 513 6 q 452 -16 376 -16 l 376 -16 q 291 -16 230 6 q 169 28 131 68 q 93 109 76 168 q 59 226 59 298 l 59 298 l 59 886 l 226 886 l 226 309 q 226 264 234 229 q 241 195 261 171 q 280 146 309 134 q 338 122 382 122 l 382 122 q 424 122 452 133 q 481 143 500 166 q 519 190 528 227 q 538 263 538 315 l 538 315 l 538 886 l 705 886 z m 453 1133 l 614 981 l 465 981 l 382 1044 l 298 981 l 153 981 l 314 1133 l 453 1133 z m 0 886 l 0 886 z "},"Ũ":{"ha":764,"x_min":0,"x_max":705,"o":"m 705 886 l 705 326 q 705 241 682 177 q 659 113 617 71 q 574 28 513 6 q 452 -16 376 -16 l 376 -16 q 291 -16 230 6 q 169 28 131 68 q 93 109 76 168 q 59 226 59 298 l 59 298 l 59 886 l 226 886 l 226 309 q 226 264 234 229 q 241 195 261 171 q 280 146 309 134 q 338 122 382 122 l 382 122 q 424 122 452 133 q 481 143 500 166 q 519 190 528 227 q 538 263 538 315 l 538 315 l 538 886 l 705 886 z m 564 1141 l 637 1071 q 609 1017 571 990 q 533 964 478 964 l 478 964 q 438 964 411 975 q 383 985 362 999 q 340 1012 322 1023 q 304 1034 282 1034 l 282 1034 q 257 1034 238 1018 q 219 1002 200 972 l 200 972 l 126 1043 q 155 1098 193 1124 q 231 1150 286 1150 l 286 1150 q 326 1150 354 1139 q 381 1128 402 1115 q 424 1102 442 1091 q 460 1080 482 1080 l 482 1080 q 507 1080 526 1096 q 545 1112 564 1141 l 564 1141 z m 0 886 l 0 886 z "},"Ü":{"ha":764,"x_min":0,"x_max":705,"o":"m 705 886 l 705 326 q 705 241 682 177 q 659 113 617 71 q 574 28 513 6 q 452 -16 376 -16 l 376 -16 q 291 -16 230 6 q 169 28 131 68 q 93 109 76 168 q 59 226 59 298 l 59 298 l 59 886 l 226 886 l 226 309 q 226 264 234 229 q 241 195 261 171 q 280 146 309 134 q 338 122 382 122 l 382 122 q 424 122 452 133 q 481 143 500 166 q 519 190 528 227 q 538 263 538 315 l 538 315 l 538 886 l 705 886 z m 325 1053 l 325 1053 q 325 1034 318 1017 q 311 1000 298 987 q 285 975 268 967 q 251 960 232 960 l 232 960 q 212 960 196 967 q 179 975 166 987 q 153 1000 146 1017 q 139 1034 139 1053 l 139 1053 q 139 1072 146 1089 q 153 1106 166 1119 q 179 1131 196 1139 q 212 1146 232 1146 l 232 1146 q 251 1146 268 1139 q 285 1131 298 1119 q 311 1106 318 1089 q 325 1072 325 1053 z m 625 1053 l 625 1053 q 625 1034 617 1017 q 610 1000 597 987 q 585 975 568 967 q 551 960 532 960 l 532 960 q 513 960 496 967 q 479 975 466 987 q 454 1000 446 1017 q 439 1034 439 1053 l 439 1053 q 439 1072 446 1089 q 454 1106 466 1119 q 479 1131 496 1139 q 513 1146 532 1146 l 532 1146 q 551 1146 568 1139 q 585 1131 597 1119 q 610 1106 617 1089 q 625 1072 625 1053 z m 0 886 l 0 886 z "},"Ū":{"ha":764,"x_min":0,"x_max":705,"o":"m 705 886 l 705 326 q 705 241 682 177 q 659 113 617 71 q 574 28 513 6 q 452 -16 376 -16 l 376 -16 q 291 -16 230 6 q 169 28 131 68 q 93 109 76 168 q 59 226 59 298 l 59 298 l 59 886 l 226 886 l 226 309 q 226 264 234 229 q 241 195 261 171 q 280 146 309 134 q 338 122 382 122 l 382 122 q 424 122 452 133 q 481 143 500 166 q 519 190 528 227 q 538 263 538 315 l 538 315 l 538 886 l 705 886 z m 579 991 l 184 991 l 184 1109 l 579 1109 l 579 991 z m 0 886 l 0 886 z "},"Ŭ":{"ha":764,"x_min":0,"x_max":705,"o":"m 705 886 l 705 326 q 705 241 682 177 q 659 113 617 71 q 574 28 513 6 q 452 -16 376 -16 l 376 -16 q 291 -16 230 6 q 169 28 131 68 q 93 109 76 168 q 59 226 59 298 l 59 298 l 59 886 l 226 886 l 226 309 q 226 264 234 229 q 241 195 261 171 q 280 146 309 134 q 338 122 382 122 l 382 122 q 424 122 452 133 q 481 143 500 166 q 519 190 528 227 q 538 263 538 315 l 538 315 l 538 886 l 705 886 z m 463 1139 l 581 1139 q 581 1105 569 1074 q 557 1042 532 1019 q 507 995 469 981 q 431 966 380 966 l 380 966 q 328 966 291 981 q 254 996 230 1020 q 205 1044 194 1075 q 182 1106 182 1139 l 182 1139 l 301 1139 q 301 1127 306 1116 q 311 1105 320 1096 q 330 1086 345 1081 q 360 1075 382 1075 l 382 1075 q 422 1075 443 1093 q 463 1112 463 1139 l 463 1139 z m 0 886 l 0 886 z "},"Ů":{"ha":764,"x_min":0,"x_max":705,"o":"m 705 886 l 705 326 q 705 241 682 177 q 659 113 617 71 q 574 28 513 6 q 452 -16 376 -16 l 376 -16 q 291 -16 230 6 q 169 28 131 68 q 93 109 76 168 q 59 226 59 298 l 59 298 l 59 886 l 226 886 l 226 309 q 226 264 234 229 q 241 195 261 171 q 280 146 309 134 q 338 122 382 122 l 382 122 q 424 122 452 133 q 481 143 500 166 q 519 190 528 227 q 538 263 538 315 l 538 315 l 538 886 l 705 886 z m 534 1044 l 534 1044 q 534 1013 523 987 q 511 962 490 944 q 469 926 441 917 q 414 907 382 907 l 382 907 q 350 907 322 916 q 294 926 274 943 q 253 961 241 986 q 229 1011 229 1044 l 229 1044 q 229 1076 241 1102 q 253 1127 274 1145 q 294 1162 322 1172 q 350 1181 382 1181 l 382 1181 q 414 1181 442 1172 q 470 1162 490 1145 q 511 1127 523 1102 q 534 1076 534 1044 z m 440 1044 l 440 1044 q 440 1069 424 1084 q 408 1099 382 1099 l 382 1099 q 356 1099 340 1084 q 323 1069 323 1044 l 323 1044 q 323 1018 340 1003 q 356 988 382 988 l 382 988 q 408 988 424 1003 q 440 1018 440 1044 z m 0 886 l 0 886 z "},"Ű":{"ha":764,"x_min":0,"x_max":800,"o":"m 705 886 l 705 326 q 705 241 682 177 q 659 113 617 71 q 574 28 513 6 q 452 -16 376 -16 l 376 -16 q 291 -16 230 6 q 169 28 131 68 q 93 109 76 168 q 59 226 59 298 l 59 298 l 59 886 l 226 886 l 226 309 q 226 264 234 229 q 241 195 261 171 q 280 146 309 134 q 338 122 382 122 l 382 122 q 424 122 452 133 q 481 143 500 166 q 519 190 528 227 q 538 263 538 315 l 538 315 l 538 886 l 705 886 z m 315 1133 l 513 1133 l 317 981 l 170 981 l 315 1133 z m 590 1133 l 800 1133 l 583 981 l 432 981 l 590 1133 z m 0 886 l 0 886 z "},"Ų":{"ha":764,"x_min":59,"x_max":705,"o":"m 521 -161 l 521 -261 q 499 -267 472 -271 q 445 -275 424 -275 l 424 -275 q 380 -275 351 -266 q 321 -256 302 -240 q 284 -224 276 -202 q 268 -180 268 -154 l 268 -154 q 268 -137 271 -120 q 274 -104 282 -87 q 290 -70 302 -52 q 315 -34 336 -14 l 336 -14 q 262 -9 210 14 q 157 37 123 78 q 90 118 74 174 q 59 229 59 298 l 59 298 l 59 886 l 226 886 l 226 309 q 226 264 233 229 q 241 195 260 171 q 280 146 309 134 q 338 122 382 122 l 382 122 q 424 122 452 133 q 481 143 500 166 q 519 190 528 227 q 538 263 538 315 l 538 315 l 538 886 l 705 886 l 705 326 q 705 201 653 117 q 602 33 494 0 l 494 0 q 469 -26 454 -44 q 439 -63 431 -77 q 422 -92 420 -103 q 418 -115 418 -125 l 418 -125 q 418 -146 429 -156 q 440 -167 471 -167 l 471 -167 q 481 -167 496 -165 q 511 -163 521 -161 l 521 -161 z "},"Ẁ":{"ha":764,"x_min":0,"x_max":742,"o":"m 742 886 l 692 0 l 496 0 l 408 273 l 376 385 l 346 271 l 260 0 l 72 0 l 22 886 l 170 886 l 191 318 l 196 163 l 236 301 l 334 616 l 439 616 l 542 282 l 575 164 l 578 302 l 600 886 l 742 886 z m 90 1133 l 314 1133 l 465 981 l 300 981 l 90 1133 z m 0 886 l 0 886 z "},"Ẃ":{"ha":764,"x_min":0,"x_max":742,"o":"m 742 886 l 692 0 l 496 0 l 408 273 l 376 385 l 346 271 l 260 0 l 72 0 l 22 886 l 170 886 l 191 318 l 196 163 l 236 301 l 334 616 l 439 616 l 542 282 l 575 164 l 578 302 l 600 886 l 742 886 z m 673 1133 l 464 981 l 298 981 l 450 1133 l 673 1133 z m 0 886 l 0 886 z "},"Ŵ":{"ha":764,"x_min":0,"x_max":742,"o":"m 742 886 l 692 0 l 496 0 l 408 273 l 376 385 l 346 271 l 260 0 l 72 0 l 22 886 l 170 886 l 191 318 l 196 163 l 236 301 l 334 616 l 439 616 l 542 282 l 575 164 l 578 302 l 600 886 l 742 886 z m 453 1133 l 614 981 l 465 981 l 382 1044 l 298 981 l 153 981 l 314 1133 l 453 1133 z m 0 886 l 0 886 z "},"Ẅ":{"ha":764,"x_min":0,"x_max":742,"o":"m 742 886 l 692 0 l 496 0 l 408 273 l 376 385 l 346 271 l 260 0 l 72 0 l 22 886 l 170 886 l 191 318 l 196 163 l 236 301 l 334 616 l 439 616 l 542 282 l 575 164 l 578 302 l 600 886 l 742 886 z m 325 1053 l 325 1053 q 325 1034 318 1017 q 311 1000 298 987 q 285 975 268 967 q 251 960 232 960 l 232 960 q 212 960 196 967 q 179 975 166 987 q 153 1000 146 1017 q 139 1034 139 1053 l 139 1053 q 139 1072 146 1089 q 153 1106 166 1119 q 179 1131 196 1139 q 212 1146 232 1146 l 232 1146 q 251 1146 268 1139 q 285 1131 298 1119 q 311 1106 318 1089 q 325 1072 325 1053 z m 625 1053 l 625 1053 q 625 1034 617 1017 q 610 1000 597 987 q 585 975 568 967 q 551 960 532 960 l 532 960 q 513 960 496 967 q 479 975 466 987 q 454 1000 446 1017 q 439 1034 439 1053 l 439 1053 q 439 1072 446 1089 q 454 1106 466 1119 q 479 1131 496 1139 q 513 1146 532 1146 l 532 1146 q 551 1146 568 1139 q 585 1131 597 1119 q 610 1106 617 1089 q 625 1072 625 1053 z m 0 886 l 0 886 z "},"Ỳ":{"ha":764,"x_min":0,"x_max":755,"o":"m 755 886 l 465 314 l 465 0 l 295 0 l 295 313 l 7 886 l 192 886 l 322 612 l 382 478 l 441 616 l 578 886 l 755 886 z m 90 1133 l 314 1133 l 465 981 l 300 981 l 90 1133 z m 0 886 l 0 886 z "},"Ý":{"ha":764,"x_min":0,"x_max":755,"o":"m 755 886 l 465 314 l 465 0 l 295 0 l 295 313 l 7 886 l 192 886 l 322 612 l 382 478 l 441 616 l 578 886 l 755 886 z m 673 1133 l 464 981 l 298 981 l 450 1133 l 673 1133 z m 0 886 l 0 886 z "},"Ŷ":{"ha":764,"x_min":0,"x_max":755,"o":"m 755 886 l 465 314 l 465 0 l 295 0 l 295 313 l 7 886 l 192 886 l 322 612 l 382 478 l 441 616 l 578 886 l 755 886 z m 453 1133 l 614 981 l 465 981 l 382 1044 l 298 981 l 153 981 l 314 1133 l 453 1133 z m 0 886 l 0 886 z "},"Ÿ":{"ha":764,"x_min":0,"x_max":755,"o":"m 755 886 l 465 314 l 465 0 l 295 0 l 295 313 l 7 886 l 192 886 l 322 612 l 382 478 l 441 616 l 578 886 l 755 886 z m 325 1053 l 325 1053 q 325 1034 318 1017 q 311 1000 298 987 q 285 975 268 967 q 251 960 232 960 l 232 960 q 212 960 196 967 q 179 975 166 987 q 153 1000 146 1017 q 139 1034 139 1053 l 139 1053 q 139 1072 146 1089 q 153 1106 166 1119 q 179 1131 196 1139 q 212 1146 232 1146 l 232 1146 q 251 1146 268 1139 q 285 1131 298 1119 q 311 1106 318 1089 q 325 1072 325 1053 z m 625 1053 l 625 1053 q 625 1034 617 1017 q 610 1000 597 987 q 585 975 568 967 q 551 960 532 960 l 532 960 q 513 960 496 967 q 479 975 466 987 q 454 1000 446 1017 q 439 1034 439 1053 l 439 1053 q 439 1072 446 1089 q 454 1106 466 1119 q 479 1131 496 1139 q 513 1146 532 1146 l 532 1146 q 551 1146 568 1139 q 585 1131 597 1119 q 610 1106 617 1089 q 625 1072 625 1053 z m 0 886 l 0 886 z "},"Ź":{"ha":764,"x_min":0,"x_max":693,"o":"m 693 0 l 71 0 l 71 126 l 476 735 l 83 735 l 83 886 l 688 886 l 688 751 l 279 151 l 693 151 l 693 0 z m 673 1133 l 464 981 l 298 981 l 450 1133 l 673 1133 z m 0 886 l 0 886 z "},"Ž":{"ha":764,"x_min":0,"x_max":693,"o":"m 693 0 l 71 0 l 71 126 l 476 735 l 83 735 l 83 886 l 688 886 l 688 751 l 279 151 l 693 151 l 693 0 z m 313 981 l 151 1133 l 300 1133 l 383 1069 l 467 1133 l 612 1133 l 452 981 l 313 981 z m 0 886 l 0 886 z "},"Ż":{"ha":764,"x_min":0,"x_max":693,"o":"m 693 0 l 71 0 l 71 126 l 476 735 l 83 735 l 83 886 l 688 886 l 688 751 l 279 151 l 693 151 l 693 0 z m 486 1053 l 486 1053 q 486 1031 478 1013 q 471 994 456 981 q 442 967 423 959 q 404 951 382 951 l 382 951 q 360 951 341 959 q 323 967 309 981 q 296 994 288 1013 q 279 1031 279 1053 l 279 1053 q 279 1074 288 1093 q 296 1112 309 1125 q 323 1139 341 1146 q 360 1154 382 1154 l 382 1154 q 403 1154 422 1146 q 441 1139 455 1125 q 469 1112 478 1093 q 486 1074 486 1053 z m 0 886 l 0 886 z "},"a":{"ha":764,"x_min":74,"x_max":668,"o":"m 668 0 l 526 0 l 522 90 q 500 67 477 48 q 453 28 425 14 q 396 0 362 -8 q 329 -16 289 -16 l 289 -16 q 236 -16 196 0 q 156 16 129 43 q 102 71 88 111 q 74 150 74 197 l 74 197 q 74 246 95 288 q 115 329 158 359 q 200 389 263 406 q 327 422 412 422 l 412 422 l 503 422 l 503 464 q 503 490 495 512 q 488 533 471 548 q 454 563 428 571 q 401 579 363 579 l 363 579 q 302 579 242 565 q 183 551 127 526 l 127 526 l 127 659 q 177 678 242 691 q 307 704 376 704 l 376 704 q 453 704 508 689 q 563 675 598 646 q 634 616 651 573 q 668 529 668 471 l 668 471 l 668 0 z m 503 212 l 503 304 l 401 304 q 359 304 330 296 q 301 288 283 274 q 264 260 256 241 q 248 222 248 201 l 248 201 q 248 159 275 137 q 302 115 349 115 l 349 115 q 383 115 420 140 q 458 165 503 212 l 503 212 z "},"b":{"ha":764,"x_min":94,"x_max":714,"o":"m 714 357 l 714 357 q 714 262 687 193 q 661 123 613 78 q 565 32 500 10 q 435 -12 358 -12 l 358 -12 q 283 -12 218 -1 q 153 10 94 29 l 94 29 l 94 958 l 260 958 l 260 733 l 253 597 q 290 646 340 675 q 390 704 460 704 l 460 704 q 521 704 568 680 q 616 655 648 610 q 680 565 697 501 q 714 437 714 357 z m 541 350 l 541 350 q 541 407 532 447 q 524 487 509 513 q 494 538 472 550 q 450 562 421 562 l 421 562 q 379 562 341 528 q 302 494 260 436 l 260 436 l 260 135 q 279 127 308 123 q 337 118 367 118 l 367 118 q 406 118 438 134 q 471 151 493 180 q 516 210 528 253 q 541 296 541 350 z "},"c":{"ha":764,"x_min":90,"x_max":652,"o":"m 652 174 l 652 26 q 603 7 551 -3 q 498 -12 441 -12 l 441 -12 q 359 -12 294 10 q 229 33 184 77 q 138 121 114 186 q 90 251 90 336 l 90 336 q 90 419 116 486 q 142 553 190 601 q 237 648 304 674 q 371 700 453 700 l 453 700 q 520 700 566 693 q 612 686 648 675 l 648 675 l 648 514 q 606 535 557 547 q 508 558 464 558 l 464 558 q 418 558 381 543 q 345 527 319 499 q 294 471 281 432 q 268 392 268 345 l 268 345 q 268 295 282 256 q 296 216 322 189 q 349 161 385 147 q 422 132 467 132 l 467 132 q 488 132 512 135 q 536 138 561 144 q 585 150 608 157 q 631 165 652 174 l 652 174 z "},"d":{"ha":764,"x_min":52,"x_max":671,"o":"m 671 0 l 528 0 l 524 102 q 502 75 479 54 q 456 32 429 17 q 403 1 373 -7 q 342 -16 306 -16 l 306 -16 q 245 -16 197 9 q 150 33 118 78 q 85 123 68 188 q 52 252 52 332 l 52 332 q 52 427 78 496 q 105 566 153 611 q 200 657 265 679 q 330 701 407 701 l 407 701 q 433 701 459 698 q 485 694 505 689 l 505 689 l 505 958 l 671 958 l 671 0 z m 225 339 l 225 339 q 225 282 233 242 q 241 201 256 176 q 271 150 294 138 q 316 126 345 126 l 345 126 q 387 126 425 160 q 463 194 505 253 l 505 253 l 505 554 q 486 562 457 566 q 428 571 399 571 l 399 571 q 359 571 327 555 q 295 538 272 509 q 250 479 237 436 q 225 393 225 339 z "},"e":{"ha":764,"x_min":69,"x_max":694,"o":"m 694 397 l 694 397 q 694 380 693 353 q 692 326 690 302 l 690 302 l 237 302 q 237 257 251 222 q 265 188 291 164 q 316 141 352 129 q 387 117 431 117 l 431 117 q 481 117 538 124 q 595 132 657 150 l 657 150 l 657 18 q 631 11 600 5 q 568 -1 536 -6 q 503 -11 470 -13 q 437 -16 406 -16 l 406 -16 q 327 -16 264 7 q 202 29 159 73 q 115 117 92 181 q 69 245 69 330 l 69 330 q 69 414 92 483 q 115 552 157 601 q 199 650 259 677 q 319 704 393 704 l 393 704 q 467 704 523 681 q 579 659 617 618 q 655 577 675 521 q 694 465 694 397 z m 240 421 l 526 421 q 527 462 516 492 q 505 522 487 542 q 468 562 443 571 q 418 581 390 581 l 390 581 q 328 581 288 539 q 248 497 240 421 l 240 421 z "},"f":{"ha":764,"x_min":0,"x_max":713,"o":"m 713 951 l 713 818 q 683 827 642 834 q 601 840 558 840 l 558 840 q 529 840 504 832 q 479 825 460 808 q 442 791 432 765 q 421 739 421 701 l 421 701 l 421 590 l 692 590 l 692 461 l 421 461 l 421 0 l 254 0 l 254 461 l 54 461 l 54 590 l 254 590 l 254 694 q 254 768 276 820 q 297 873 336 906 q 375 940 430 956 q 485 971 553 971 l 553 971 q 597 971 638 965 q 678 960 713 951 l 713 951 z m 0 689 l 0 689 z "},"g":{"ha":764,"x_min":52,"x_max":720,"o":"m 720 568 l 611 568 q 630 545 638 518 q 646 492 646 465 l 646 465 q 646 408 626 363 q 606 319 569 290 q 533 260 483 244 q 432 229 371 229 l 371 229 q 335 229 304 236 q 274 243 258 253 l 258 253 q 247 241 239 228 q 231 214 231 196 l 231 196 q 231 185 236 174 q 241 163 252 155 q 262 146 277 141 q 292 136 310 135 l 310 135 l 473 129 q 528 127 573 115 q 617 102 649 79 q 681 56 698 23 q 715 -9 715 -52 l 715 -52 q 715 -100 694 -142 q 672 -185 628 -217 q 585 -248 519 -267 q 454 -285 368 -285 l 368 -285 q 285 -285 225 -272 q 165 -258 126 -235 q 88 -211 70 -178 q 52 -145 52 -106 l 52 -106 q 52 -82 58 -62 q 64 -41 76 -23 q 88 -4 106 14 q 125 31 150 49 l 150 49 q 117 68 99 98 q 82 127 82 161 l 82 161 q 82 184 88 204 q 94 224 104 243 q 114 261 127 278 q 140 295 154 311 l 154 311 q 129 336 112 372 q 96 408 96 461 l 96 461 q 96 519 116 564 q 137 609 174 640 q 210 671 261 687 q 311 703 371 703 l 371 703 q 401 703 430 700 q 458 696 481 689 l 481 689 l 720 689 l 720 568 z m 221 -92 l 221 -92 q 221 -132 261 -151 q 302 -170 375 -170 l 375 -170 q 422 -170 454 -161 q 486 -152 507 -138 q 527 -123 536 -104 q 545 -85 545 -65 l 545 -65 q 545 -47 536 -34 q 528 -22 512 -13 q 497 -5 476 0 q 456 4 431 5 l 431 5 l 285 8 q 265 -5 253 -18 q 240 -30 233 -42 q 226 -54 223 -66 q 221 -78 221 -92 z m 249 461 l 249 461 q 249 406 281 374 q 313 342 371 342 l 371 342 q 401 342 424 352 q 447 362 462 379 q 477 396 484 418 q 492 441 492 465 l 492 465 q 492 523 459 555 q 427 587 370 587 l 370 587 q 339 587 316 577 q 294 567 279 550 q 264 532 256 509 q 249 486 249 461 z "},"h":{"ha":764,"x_min":94,"x_max":671,"o":"m 671 0 l 505 0 l 505 449 q 505 562 421 562 l 421 562 q 379 562 341 528 q 302 494 260 436 l 260 436 l 260 0 l 94 0 l 94 958 l 260 958 l 260 722 l 252 597 q 273 623 294 643 q 316 663 341 676 q 366 690 395 697 q 425 704 460 704 l 460 704 q 513 704 552 687 q 591 669 618 638 q 644 606 657 562 q 671 517 671 463 l 671 463 l 671 0 z "},"i":{"ha":764,"x_min":98,"x_max":685,"o":"m 500 878 l 500 878 q 500 855 492 836 q 484 816 469 801 q 454 787 435 778 q 415 770 392 770 l 392 770 q 369 770 349 778 q 329 787 314 801 q 300 816 292 836 q 283 855 283 878 l 283 878 q 283 900 292 920 q 300 939 314 954 q 329 969 349 978 q 369 986 392 986 l 392 986 q 415 986 435 978 q 454 969 469 954 q 484 939 492 920 q 500 900 500 878 z m 317 129 l 317 560 l 122 560 l 122 689 l 486 689 l 486 129 l 685 129 l 685 0 l 98 0 l 98 129 l 317 129 z "},"j":{"ha":764,"x_min":81,"x_max":612,"o":"m 599 689 l 599 20 q 599 -58 576 -115 q 553 -172 511 -210 q 469 -248 409 -266 q 350 -285 277 -285 l 277 -285 q 217 -285 165 -275 q 114 -264 81 -250 l 81 -250 l 81 -98 q 100 -109 124 -118 q 148 -128 174 -136 q 200 -144 227 -148 q 254 -153 281 -153 l 281 -153 q 356 -153 393 -109 q 431 -66 431 18 l 431 18 l 431 560 l 103 560 l 103 689 l 599 689 z m 612 878 l 612 878 q 612 855 604 836 q 596 816 582 801 q 567 787 547 778 q 527 770 504 770 l 504 770 q 481 770 461 778 q 441 787 427 801 q 412 816 404 836 q 396 855 396 878 l 396 878 q 396 900 404 920 q 412 939 427 954 q 441 969 461 978 q 481 986 504 986 l 504 986 q 527 986 547 978 q 567 969 582 954 q 596 939 604 920 q 612 900 612 878 z "},"k":{"ha":764,"x_min":101,"x_max":737,"o":"m 737 0 l 521 0 l 267 345 l 267 0 l 101 0 l 101 958 l 267 958 l 267 397 l 507 689 l 714 689 l 435 375 l 737 0 z "},"l":{"ha":764,"x_min":98,"x_max":685,"o":"m 317 129 l 317 829 l 122 829 l 122 958 l 486 958 l 486 129 l 685 129 l 685 0 l 98 0 l 98 129 l 317 129 z "},"m":{"ha":764,"x_min":40,"x_max":724,"o":"m 724 0 l 581 0 l 581 469 q 581 495 579 514 q 578 534 574 547 q 570 559 562 566 q 554 572 541 572 l 541 572 q 519 572 499 544 q 479 515 453 447 l 453 447 l 453 0 l 311 0 l 311 469 q 311 495 310 514 q 309 534 304 547 q 300 559 292 566 q 284 572 271 572 l 271 572 q 253 572 231 544 q 210 515 183 447 l 183 447 l 183 0 l 40 0 l 40 689 l 163 689 l 165 589 q 180 619 195 641 q 210 663 227 676 q 244 690 263 696 q 283 703 307 703 l 307 703 q 365 703 395 672 q 425 642 429 589 l 429 589 q 446 619 461 641 q 477 663 495 676 q 512 690 532 696 q 552 703 576 703 l 576 703 q 652 703 688 650 q 724 597 724 494 l 724 494 l 724 0 z "},"n":{"ha":764,"x_min":94,"x_max":671,"o":"m 671 0 l 505 0 l 505 449 q 505 562 421 562 l 421 562 q 379 562 341 528 q 302 494 260 436 l 260 436 l 260 0 l 94 0 l 94 689 l 237 689 l 241 587 q 262 614 285 635 q 308 657 334 672 q 361 688 391 696 q 422 704 460 704 l 460 704 q 513 704 552 687 q 591 669 618 638 q 644 606 657 562 q 671 517 671 463 l 671 463 l 671 0 z "},"o":{"ha":764,"x_min":49,"x_max":715,"o":"m 715 350 l 715 350 q 715 269 692 201 q 669 134 625 85 q 582 37 519 11 q 456 -16 375 -16 l 375 -16 q 298 -16 238 7 q 178 29 136 74 q 94 118 71 185 q 49 252 49 340 l 49 340 q 49 422 72 490 q 96 557 139 604 q 183 652 246 678 q 309 704 389 704 l 389 704 q 466 704 526 681 q 587 659 629 614 q 671 569 693 503 q 715 437 715 350 z m 543 346 l 543 346 q 543 453 502 507 q 462 561 383 561 l 383 561 q 340 561 309 544 q 279 527 259 497 q 239 468 230 429 q 221 389 221 345 l 221 345 q 221 237 264 182 q 308 127 383 127 l 383 127 q 425 127 455 144 q 486 161 505 190 q 524 220 533 260 q 543 300 543 346 z "},"p":{"ha":764,"x_min":94,"x_max":714,"o":"m 714 357 l 714 357 q 714 262 687 193 q 661 123 613 78 q 565 32 500 10 q 435 -12 358 -12 l 358 -12 q 332 -12 307 -9 q 281 -5 260 0 l 260 0 l 260 -269 l 94 -269 l 94 689 l 237 689 l 241 587 q 262 614 285 635 q 308 657 334 672 q 361 688 391 696 q 422 704 460 704 l 460 704 q 521 704 568 680 q 616 655 648 610 q 680 565 697 501 q 714 437 714 357 z m 541 350 l 541 350 q 541 407 532 447 q 524 487 509 513 q 494 538 472 550 q 450 562 421 562 l 421 562 q 379 562 341 528 q 302 494 260 436 l 260 436 l 260 135 q 279 127 308 123 q 337 118 367 118 l 367 118 q 406 118 438 134 q 471 151 493 180 q 516 210 528 253 q 541 296 541 350 z "},"q":{"ha":764,"x_min":52,"x_max":671,"o":"m 671 -269 l 505 -269 l 505 -43 l 513 92 q 494 68 472 48 q 451 28 426 14 q 400 0 370 -8 q 340 -16 306 -16 l 306 -16 q 245 -16 197 9 q 150 33 118 78 q 85 123 68 188 q 52 252 52 332 l 52 332 q 52 414 74 482 q 96 550 141 599 q 185 648 252 674 q 318 701 407 701 l 407 701 q 424 701 444 699 q 465 697 485 694 q 505 691 524 687 q 543 682 557 677 l 557 677 l 671 703 l 671 -269 z m 225 339 l 225 339 q 225 282 233 242 q 241 201 256 176 q 271 150 294 138 q 316 126 345 126 l 345 126 q 387 126 425 160 q 463 194 505 253 l 505 253 l 505 554 q 486 562 457 566 q 428 571 399 571 l 399 571 q 359 571 327 555 q 295 538 272 509 q 250 479 237 436 q 225 393 225 339 z "},"r":{"ha":764,"x_min":122,"x_max":706,"o":"m 704 421 l 538 421 q 539 460 534 487 q 529 514 518 532 q 507 549 490 557 q 474 566 453 566 l 453 566 q 416 566 377 535 q 338 505 292 436 l 292 436 l 292 0 l 122 0 l 122 689 l 272 689 l 278 589 q 295 615 316 636 q 338 657 364 672 q 390 688 422 696 q 454 704 492 704 l 492 704 q 544 704 584 686 q 625 668 652 633 q 680 597 693 544 q 706 491 704 421 l 704 421 z "},"s":{"ha":764,"x_min":106,"x_max":663,"o":"m 663 203 l 663 203 q 663 144 636 102 q 610 60 567 34 q 524 8 470 -4 q 415 -16 358 -16 l 358 -16 q 282 -16 221 -8 q 160 -1 106 12 l 106 12 l 106 161 q 170 135 233 123 q 296 111 353 111 l 353 111 q 418 111 450 132 q 482 153 482 186 l 482 186 q 482 201 475 214 q 469 227 450 239 q 431 251 397 263 q 363 276 309 292 l 309 292 q 258 306 219 324 q 181 342 156 366 q 131 391 118 423 q 106 455 106 498 l 106 498 q 106 541 125 578 q 144 615 181 643 q 219 671 275 688 q 332 704 407 704 l 407 704 q 472 704 522 697 q 572 690 611 682 l 611 682 l 611 547 q 552 566 500 574 q 448 582 397 582 l 397 582 q 347 582 316 564 q 285 545 285 513 l 285 513 q 285 497 291 485 q 297 473 315 461 q 333 450 365 437 q 397 425 450 410 l 450 410 q 510 393 551 373 q 591 354 616 330 q 641 305 652 274 q 663 243 663 203 z "},"t":{"ha":764,"x_min":40,"x_max":663,"o":"m 663 139 l 663 7 q 618 -3 572 -9 q 527 -16 486 -16 l 486 -16 q 418 -16 369 -1 q 320 13 288 42 q 256 71 240 116 q 225 161 225 224 l 225 224 l 225 560 l 40 560 l 40 689 l 225 689 l 225 865 l 395 909 l 395 689 l 663 689 l 663 560 l 395 560 l 395 236 q 395 177 422 147 q 449 117 513 117 l 513 117 q 553 117 592 123 q 631 130 663 139 l 663 139 z "},"u":{"ha":764,"x_min":93,"x_max":669,"o":"m 93 689 l 258 689 l 258 240 q 258 184 279 155 q 300 126 343 126 l 343 126 q 385 126 423 160 q 461 195 504 253 l 504 253 l 504 689 l 669 689 l 669 0 l 526 0 l 522 102 q 500 75 478 54 q 456 32 430 17 q 404 1 373 -7 q 342 -16 304 -16 l 304 -16 q 252 -16 212 2 q 172 19 146 51 q 119 83 106 127 q 93 172 93 227 l 93 227 l 93 689 z "},"v":{"ha":764,"x_min":16,"x_max":750,"o":"m 750 689 l 479 0 l 289 0 l 16 689 l 200 689 l 343 298 l 386 172 l 428 293 l 572 689 l 750 689 z "},"w":{"ha":764,"x_min":5,"x_max":757,"o":"m 757 689 l 660 0 l 476 0 l 403 218 l 380 294 l 358 216 l 288 0 l 103 0 l 5 689 l 163 689 l 212 300 l 224 193 l 252 289 l 321 498 l 447 498 l 521 290 l 553 192 l 566 301 l 607 689 l 757 689 z "},"x":{"ha":764,"x_min":22,"x_max":743,"o":"m 743 0 l 538 0 l 380 232 l 222 0 l 22 0 l 281 347 l 36 689 l 237 689 l 392 463 l 545 689 l 730 689 l 493 349 l 743 0 z "},"y":{"ha":764,"x_min":16,"x_max":750,"o":"m 750 689 l 509 75 q 473 -14 434 -82 q 395 -149 348 -194 q 301 -239 244 -262 q 186 -285 115 -285 l 115 -285 q 98 -285 78 -283 q 58 -281 37 -278 l 37 -278 l 37 -138 q 45 -139 56 -141 q 66 -142 78 -143 q 90 -144 101 -145 q 113 -146 123 -146 l 123 -146 q 152 -146 176 -135 q 201 -124 221 -105 q 242 -85 259 -59 q 276 -32 289 0 l 289 0 l 16 689 l 200 689 l 343 298 l 386 172 l 428 293 l 572 689 l 750 689 z "},"z":{"ha":764,"x_min":102,"x_max":663,"o":"m 663 0 l 102 0 l 102 115 l 439 547 l 110 547 l 110 689 l 657 689 l 657 572 l 328 146 l 663 146 l 663 0 z "},"à":{"ha":764,"x_min":0,"x_max":668,"o":"m 668 0 l 526 0 l 522 90 q 500 67 477 48 q 453 28 425 14 q 396 0 362 -8 q 329 -16 289 -16 l 289 -16 q 236 -16 196 0 q 156 16 129 43 q 102 71 88 111 q 74 150 74 197 l 74 197 q 74 246 95 288 q 115 329 158 359 q 200 389 263 406 q 327 422 412 422 l 412 422 l 503 422 l 503 464 q 503 490 495 512 q 488 533 471 548 q 454 563 428 571 q 401 579 363 579 l 363 579 q 302 579 242 565 q 183 551 127 526 l 127 526 l 127 659 q 177 678 242 691 q 307 704 376 704 l 376 704 q 453 704 508 689 q 563 675 598 646 q 634 616 651 573 q 668 529 668 471 l 668 471 l 668 0 z m 503 212 l 503 304 l 401 304 q 359 304 330 296 q 301 288 283 274 q 264 260 256 241 q 248 222 248 201 l 248 201 q 248 159 275 137 q 302 115 349 115 l 349 115 q 383 115 420 140 q 458 165 503 212 l 503 212 z m 62 958 l 286 958 l 464 781 l 298 781 l 62 958 z m 0 689 l 0 689 z "},"á":{"ha":764,"x_min":0,"x_max":700,"o":"m 668 0 l 526 0 l 522 90 q 500 67 477 48 q 453 28 425 14 q 396 0 362 -8 q 329 -16 289 -16 l 289 -16 q 236 -16 196 0 q 156 16 129 43 q 102 71 88 111 q 74 150 74 197 l 74 197 q 74 246 95 288 q 115 329 158 359 q 200 389 263 406 q 327 422 412 422 l 412 422 l 503 422 l 503 464 q 503 490 495 512 q 488 533 471 548 q 454 563 428 571 q 401 579 363 579 l 363 579 q 302 579 242 565 q 183 551 127 526 l 127 526 l 127 659 q 177 678 242 691 q 307 704 376 704 l 376 704 q 453 704 508 689 q 563 675 598 646 q 634 616 651 573 q 668 529 668 471 l 668 471 l 668 0 z m 503 212 l 503 304 l 401 304 q 359 304 330 296 q 301 288 283 274 q 264 260 256 241 q 248 222 248 201 l 248 201 q 248 159 275 137 q 302 115 349 115 l 349 115 q 383 115 420 140 q 458 165 503 212 l 503 212 z m 700 958 l 464 781 l 298 781 l 476 958 l 700 958 z m 0 689 l 0 689 z "},"â":{"ha":764,"x_min":0,"x_max":668,"o":"m 668 0 l 526 0 l 522 90 q 500 67 477 48 q 453 28 425 14 q 396 0 362 -8 q 329 -16 289 -16 l 289 -16 q 236 -16 196 0 q 156 16 129 43 q 102 71 88 111 q 74 150 74 197 l 74 197 q 74 246 95 288 q 115 329 158 359 q 200 389 263 406 q 327 422 412 422 l 412 422 l 503 422 l 503 464 q 503 490 495 512 q 488 533 471 548 q 454 563 428 571 q 401 579 363 579 l 363 579 q 302 579 242 565 q 183 551 127 526 l 127 526 l 127 659 q 177 678 242 691 q 307 704 376 704 l 376 704 q 453 704 508 689 q 563 675 598 646 q 634 616 651 573 q 668 529 668 471 l 668 471 l 668 0 z m 503 212 l 503 304 l 401 304 q 359 304 330 296 q 301 288 283 274 q 264 260 256 241 q 248 222 248 201 l 248 201 q 248 159 275 137 q 302 115 349 115 l 349 115 q 383 115 420 140 q 458 165 503 212 l 503 212 z m 321 958 l 446 958 l 612 781 l 465 781 l 382 864 l 298 781 l 154 781 l 321 958 z m 0 689 l 0 689 z "},"ã":{"ha":764,"x_min":0,"x_max":668,"o":"m 668 0 l 526 0 l 522 90 q 500 67 477 48 q 453 28 425 14 q 396 0 362 -8 q 329 -16 289 -16 l 289 -16 q 236 -16 196 0 q 156 16 129 43 q 102 71 88 111 q 74 150 74 197 l 74 197 q 74 246 95 288 q 115 329 158 359 q 200 389 263 406 q 327 422 412 422 l 412 422 l 503 422 l 503 464 q 503 490 495 512 q 488 533 471 548 q 454 563 428 571 q 401 579 363 579 l 363 579 q 302 579 242 565 q 183 551 127 526 l 127 526 l 127 659 q 177 678 242 691 q 307 704 376 704 l 376 704 q 453 704 508 689 q 563 675 598 646 q 634 616 651 573 q 668 529 668 471 l 668 471 l 668 0 z m 503 212 l 503 304 l 401 304 q 359 304 330 296 q 301 288 283 274 q 264 260 256 241 q 248 222 248 201 l 248 201 q 248 159 275 137 q 302 115 349 115 l 349 115 q 383 115 420 140 q 458 165 503 212 l 503 212 z m 564 958 l 637 885 q 609 830 571 804 q 533 778 478 778 l 478 778 q 438 778 411 789 q 383 801 362 815 q 340 829 322 841 q 304 852 282 852 l 282 852 q 257 852 238 837 q 219 821 200 791 l 200 791 l 126 865 q 155 920 193 946 q 231 972 286 972 l 286 972 q 326 972 354 960 q 381 948 402 935 q 424 921 442 909 q 460 897 482 897 l 482 897 q 507 897 526 913 q 545 929 564 958 l 564 958 z m 0 689 l 0 689 z "},"ä":{"ha":764,"x_min":0,"x_max":668,"o":"m 668 0 l 526 0 l 522 90 q 500 67 477 48 q 453 28 425 14 q 396 0 362 -8 q 329 -16 289 -16 l 289 -16 q 236 -16 196 0 q 156 16 129 43 q 102 71 88 111 q 74 150 74 197 l 74 197 q 74 246 95 288 q 115 329 158 359 q 200 389 263 406 q 327 422 412 422 l 412 422 l 503 422 l 503 464 q 503 490 495 512 q 488 533 471 548 q 454 563 428 571 q 401 579 363 579 l 363 579 q 302 579 242 565 q 183 551 127 526 l 127 526 l 127 659 q 177 678 242 691 q 307 704 376 704 l 376 704 q 453 704 508 689 q 563 675 598 646 q 634 616 651 573 q 668 529 668 471 l 668 471 l 668 0 z m 503 212 l 503 304 l 401 304 q 359 304 330 296 q 301 288 283 274 q 264 260 256 241 q 248 222 248 201 l 248 201 q 248 159 275 137 q 302 115 349 115 l 349 115 q 383 115 420 140 q 458 165 503 212 l 503 212 z m 333 876 l 333 876 q 333 857 326 840 q 318 823 306 811 q 294 798 276 791 q 259 783 240 783 l 240 783 q 221 783 204 791 q 187 798 175 811 q 162 823 155 840 q 147 857 147 876 l 147 876 q 147 895 155 912 q 162 930 175 942 q 187 955 204 962 q 221 970 240 970 l 240 970 q 259 970 276 962 q 294 955 306 942 q 318 930 326 912 q 333 895 333 876 z m 616 876 l 616 876 q 616 857 609 840 q 602 823 589 811 q 576 798 559 791 q 543 783 524 783 l 524 783 q 504 783 487 791 q 471 798 458 811 q 445 823 438 840 q 431 857 431 876 l 431 876 q 431 895 438 912 q 445 930 458 942 q 471 955 487 962 q 504 970 524 970 l 524 970 q 543 970 559 962 q 576 955 589 942 q 602 930 609 912 q 616 895 616 876 z m 0 689 l 0 689 z "},"ā":{"ha":764,"x_min":0,"x_max":668,"o":"m 668 0 l 526 0 l 522 90 q 500 67 477 48 q 453 28 425 14 q 396 0 362 -8 q 329 -16 289 -16 l 289 -16 q 236 -16 196 0 q 156 16 129 43 q 102 71 88 111 q 74 150 74 197 l 74 197 q 74 246 95 288 q 115 329 158 359 q 200 389 263 406 q 327 422 412 422 l 412 422 l 503 422 l 503 464 q 503 490 495 512 q 488 533 471 548 q 454 563 428 571 q 401 579 363 579 l 363 579 q 302 579 242 565 q 183 551 127 526 l 127 526 l 127 659 q 177 678 242 691 q 307 704 376 704 l 376 704 q 453 704 508 689 q 563 675 598 646 q 634 616 651 573 q 668 529 668 471 l 668 471 l 668 0 z m 503 212 l 503 304 l 401 304 q 359 304 330 296 q 301 288 283 274 q 264 260 256 241 q 248 222 248 201 l 248 201 q 248 159 275 137 q 302 115 349 115 l 349 115 q 383 115 420 140 q 458 165 503 212 l 503 212 z m 571 817 l 193 817 l 193 935 l 571 935 l 571 817 z m 0 689 l 0 689 z "},"ă":{"ha":764,"x_min":0,"x_max":668,"o":"m 668 0 l 526 0 l 522 90 q 500 67 477 48 q 453 28 425 14 q 396 0 362 -8 q 329 -16 289 -16 l 289 -16 q 236 -16 196 0 q 156 16 129 43 q 102 71 88 111 q 74 150 74 197 l 74 197 q 74 246 95 288 q 115 329 158 359 q 200 389 263 406 q 327 422 412 422 l 412 422 l 503 422 l 503 464 q 503 490 495 512 q 488 533 471 548 q 454 563 428 571 q 401 579 363 579 l 363 579 q 302 579 242 565 q 183 551 127 526 l 127 526 l 127 659 q 177 678 242 691 q 307 704 376 704 l 376 704 q 453 704 508 689 q 563 675 598 646 q 634 616 651 573 q 668 529 668 471 l 668 471 l 668 0 z m 503 212 l 503 304 l 401 304 q 359 304 330 296 q 301 288 283 274 q 264 260 256 241 q 248 222 248 201 l 248 201 q 248 159 275 137 q 302 115 349 115 l 349 115 q 383 115 420 140 q 458 165 503 212 l 503 212 z m 454 958 l 577 958 q 577 920 564 885 q 550 851 525 826 q 499 800 463 786 q 426 771 380 771 l 380 771 q 334 771 298 786 q 262 801 237 827 q 212 852 199 886 q 186 920 186 958 l 186 958 l 309 958 q 309 943 314 930 q 319 917 329 907 q 338 897 352 891 q 365 885 381 885 l 381 885 q 412 885 433 904 q 454 922 454 958 l 454 958 z m 0 689 l 0 689 z "},"å":{"ha":764,"x_min":0,"x_max":668,"o":"m 668 0 l 526 0 l 522 90 q 500 67 477 48 q 453 28 425 14 q 396 0 362 -8 q 329 -16 289 -16 l 289 -16 q 236 -16 196 0 q 156 16 129 43 q 102 71 88 111 q 74 150 74 197 l 74 197 q 74 246 95 288 q 115 329 158 359 q 200 389 263 406 q 327 422 412 422 l 412 422 l 503 422 l 503 464 q 503 490 495 512 q 488 533 471 548 q 454 563 428 571 q 401 579 363 579 l 363 579 q 302 579 242 565 q 183 551 127 526 l 127 526 l 127 659 q 177 678 242 691 q 307 704 376 704 l 376 704 q 453 704 508 689 q 563 675 598 646 q 634 616 651 573 q 668 529 668 471 l 668 471 l 668 0 z m 503 212 l 503 304 l 401 304 q 359 304 330 296 q 301 288 283 274 q 264 260 256 241 q 248 222 248 201 l 248 201 q 248 159 275 137 q 302 115 349 115 l 349 115 q 383 115 420 140 q 458 165 503 212 l 503 212 z m 545 899 l 545 899 q 545 866 532 838 q 519 809 496 788 q 474 767 445 755 q 415 743 382 743 l 382 743 q 349 743 319 755 q 290 766 267 787 q 245 808 232 836 q 219 864 219 898 l 219 898 q 219 932 232 960 q 245 989 267 1009 q 290 1029 319 1041 q 349 1053 382 1053 l 382 1053 q 416 1053 445 1041 q 475 1029 497 1009 q 519 989 532 961 q 545 932 545 899 z m 446 898 l 446 898 q 446 925 427 943 q 409 962 382 962 l 382 962 q 355 962 336 943 q 318 925 318 898 l 318 898 q 318 871 336 852 q 355 834 382 834 l 382 834 q 409 834 427 852 q 446 871 446 898 z m 0 689 l 0 689 z "},"ǻ":{"ha":764,"x_min":0,"x_max":680,"o":"m 668 0 l 526 0 l 522 90 q 500 67 477 48 q 453 28 425 14 q 396 0 362 -8 q 329 -16 289 -16 l 289 -16 q 236 -16 196 0 q 156 16 129 43 q 102 71 88 111 q 74 150 74 197 l 74 197 q 74 246 95 288 q 115 329 158 359 q 200 389 263 406 q 327 422 412 422 l 412 422 l 503 422 l 503 464 q 503 490 495 512 q 488 533 471 548 q 454 563 428 571 q 401 579 363 579 l 363 579 q 302 579 242 565 q 183 551 127 526 l 127 526 l 127 659 q 177 678 242 691 q 307 704 376 704 l 376 704 q 453 704 508 689 q 563 675 598 646 q 634 616 651 573 q 668 529 668 471 l 668 471 l 668 0 z m 503 212 l 503 304 l 401 304 q 359 304 330 296 q 301 288 283 274 q 264 260 256 241 q 248 222 248 201 l 248 201 q 248 159 275 137 q 302 115 349 115 l 349 115 q 383 115 420 140 q 458 165 503 212 l 503 212 z m 545 899 l 545 899 q 545 866 532 838 q 519 809 496 788 q 474 767 445 755 q 415 743 382 743 l 382 743 q 349 743 319 755 q 290 766 267 787 q 245 808 232 836 q 219 864 219 898 l 219 898 q 219 932 232 960 q 245 989 267 1009 q 290 1029 319 1041 q 349 1053 382 1053 l 382 1053 q 416 1053 445 1041 q 475 1029 497 1009 q 519 989 532 961 q 545 932 545 899 z m 446 898 l 446 898 q 446 925 427 943 q 409 962 382 962 l 382 962 q 355 962 336 943 q 318 925 318 898 l 318 898 q 318 871 336 852 q 355 834 382 834 l 382 834 q 409 834 427 852 q 446 871 446 898 z m 0 689 l 0 689 z m 680 1242 l 471 1089 l 305 1089 l 457 1242 l 680 1242 z m 7 995 l 7 995 z "},"ą":{"ha":764,"x_min":74,"x_max":694,"o":"m 694 -161 l 694 -261 q 673 -267 646 -271 q 618 -275 597 -275 l 597 -275 q 554 -275 524 -266 q 494 -256 476 -240 q 458 -224 450 -202 q 441 -180 441 -154 l 441 -154 q 441 -136 445 -118 q 449 -100 458 -81 q 468 -62 484 -42 q 500 -22 526 0 l 526 0 l 522 90 q 500 67 477 48 q 453 28 425 14 q 396 0 362 -8 q 329 -16 289 -16 l 289 -16 q 236 -16 196 0 q 156 16 129 43 q 102 71 88 111 q 74 150 74 197 l 74 197 q 74 246 95 288 q 115 329 158 359 q 200 389 263 406 q 327 422 412 422 l 412 422 l 503 422 l 503 464 q 503 490 495 512 q 488 533 471 548 q 454 563 428 571 q 401 579 363 579 l 363 579 q 302 579 242 565 q 183 551 127 526 l 127 526 l 127 659 q 177 678 242 691 q 307 704 376 704 l 376 704 q 453 704 508 689 q 563 675 598 646 q 634 616 651 573 q 668 529 668 471 l 668 471 l 668 0 q 642 -26 627 -44 q 612 -63 604 -77 q 596 -92 594 -103 q 591 -115 591 -125 l 591 -125 q 591 -146 603 -156 q 614 -167 644 -167 l 644 -167 q 655 -167 669 -165 q 684 -163 694 -161 l 694 -161 z m 503 212 l 503 304 l 401 304 q 359 304 330 296 q 301 288 283 274 q 264 260 256 241 q 248 222 248 201 l 248 201 q 248 159 275 137 q 302 115 349 115 l 349 115 q 383 115 420 140 q 458 165 503 212 l 503 212 z "},"æ":{"ha":764,"x_min":12,"x_max":747,"o":"m 229 704 l 229 704 q 290 704 332 686 q 374 669 399 637 l 399 637 q 424 668 461 686 q 498 704 545 704 l 545 704 q 600 704 639 682 q 677 660 702 620 q 726 579 736 522 q 747 465 747 395 l 747 395 q 747 387 747 375 q 747 364 746 352 q 746 340 746 329 q 745 317 745 309 l 745 309 l 443 309 q 443 261 452 223 q 461 186 478 160 q 494 134 518 120 q 543 106 572 106 l 572 106 q 606 106 644 116 q 682 126 721 143 l 721 143 l 721 17 q 687 3 641 -6 q 595 -16 545 -16 l 545 -16 q 509 -16 480 -8 q 452 -1 430 14 q 408 28 392 48 q 375 68 363 93 l 363 93 q 322 36 281 10 q 241 -16 189 -16 l 189 -16 q 106 -16 59 35 q 12 85 12 189 l 12 189 q 12 240 26 281 q 41 323 71 352 q 100 380 148 396 q 195 412 261 412 l 261 412 l 315 412 l 315 463 q 315 488 311 510 q 307 532 295 549 q 284 566 265 575 q 246 585 216 585 l 216 585 q 201 585 181 581 q 161 576 140 569 q 119 562 97 551 q 75 541 54 528 l 54 528 l 54 660 q 91 681 137 692 q 183 704 229 704 z m 315 309 l 253 309 q 226 309 207 300 q 189 291 177 276 q 165 260 160 240 q 155 220 155 197 l 155 197 q 155 153 170 130 q 185 106 216 106 l 216 106 q 240 106 265 130 q 290 155 315 197 l 315 197 l 315 309 z m 534 585 l 534 585 q 492 585 471 540 q 450 495 444 412 l 444 412 l 615 412 q 616 500 594 543 q 572 585 534 585 z "},"ǽ":{"ha":764,"x_min":0,"x_max":747,"o":"m 229 704 l 229 704 q 290 704 332 686 q 374 669 399 637 l 399 637 q 424 668 461 686 q 498 704 545 704 l 545 704 q 600 704 639 682 q 677 660 702 620 q 726 579 736 522 q 747 465 747 395 l 747 395 q 747 387 747 375 q 747 364 746 352 q 746 340 746 329 q 745 317 745 309 l 745 309 l 443 309 q 443 261 452 223 q 461 186 478 160 q 494 134 518 120 q 543 106 572 106 l 572 106 q 606 106 644 116 q 682 126 721 143 l 721 143 l 721 17 q 687 3 641 -6 q 595 -16 545 -16 l 545 -16 q 509 -16 480 -8 q 452 -1 430 14 q 408 28 392 48 q 375 68 363 93 l 363 93 q 322 36 281 10 q 241 -16 189 -16 l 189 -16 q 106 -16 59 35 q 12 85 12 189 l 12 189 q 12 240 26 281 q 41 323 71 352 q 100 380 148 396 q 195 412 261 412 l 261 412 l 315 412 l 315 463 q 315 488 311 510 q 307 532 295 549 q 284 566 265 575 q 246 585 216 585 l 216 585 q 201 585 181 581 q 161 576 140 569 q 119 562 97 551 q 75 541 54 528 l 54 528 l 54 660 q 91 681 137 692 q 183 704 229 704 z m 315 309 l 253 309 q 226 309 207 300 q 189 291 177 276 q 165 260 160 240 q 155 220 155 197 l 155 197 q 155 153 170 130 q 185 106 216 106 l 216 106 q 240 106 265 130 q 290 155 315 197 l 315 197 l 315 309 z m 534 585 l 534 585 q 492 585 471 540 q 450 495 444 412 l 444 412 l 615 412 q 616 500 594 543 q 572 585 534 585 z m 700 958 l 464 781 l 298 781 l 476 958 l 700 958 z m 0 689 l 0 689 z "},"ć":{"ha":764,"x_min":28,"x_max":728,"o":"m 652 174 l 652 26 q 603 7 551 -3 q 498 -12 441 -12 l 441 -12 q 359 -12 294 10 q 229 33 184 77 q 138 121 114 186 q 90 251 90 336 l 90 336 q 90 419 116 486 q 142 553 190 601 q 237 648 304 674 q 371 700 453 700 l 453 700 q 520 700 566 693 q 612 686 648 675 l 648 675 l 648 514 q 606 535 557 547 q 508 558 464 558 l 464 558 q 418 558 381 543 q 345 527 319 499 q 294 471 281 432 q 268 392 268 345 l 268 345 q 268 295 282 256 q 296 216 322 189 q 349 161 385 147 q 422 132 467 132 l 467 132 q 488 132 512 135 q 536 138 561 144 q 585 150 608 157 q 631 165 652 174 l 652 174 z m 728 958 l 492 781 l 326 781 l 504 958 l 728 958 z m 28 689 l 28 689 z "},"ĉ":{"ha":764,"x_min":28,"x_max":652,"o":"m 652 174 l 652 26 q 603 7 551 -3 q 498 -12 441 -12 l 441 -12 q 359 -12 294 10 q 229 33 184 77 q 138 121 114 186 q 90 251 90 336 l 90 336 q 90 419 116 486 q 142 553 190 601 q 237 648 304 674 q 371 700 453 700 l 453 700 q 520 700 566 693 q 612 686 648 675 l 648 675 l 648 514 q 606 535 557 547 q 508 558 464 558 l 464 558 q 418 558 381 543 q 345 527 319 499 q 294 471 281 432 q 268 392 268 345 l 268 345 q 268 295 282 256 q 296 216 322 189 q 349 161 385 147 q 422 132 467 132 l 467 132 q 488 132 512 135 q 536 138 561 144 q 585 150 608 157 q 631 165 652 174 l 652 174 z m 349 958 l 473 958 l 640 781 l 493 781 l 410 864 l 326 781 l 182 781 l 349 958 z m 28 689 l 28 689 z "},"č":{"ha":764,"x_min":28,"x_max":652,"o":"m 652 174 l 652 26 q 603 7 551 -3 q 498 -12 441 -12 l 441 -12 q 359 -12 294 10 q 229 33 184 77 q 138 121 114 186 q 90 251 90 336 l 90 336 q 90 419 116 486 q 142 553 190 601 q 237 648 304 674 q 371 700 453 700 l 453 700 q 520 700 566 693 q 612 686 648 675 l 648 675 l 648 514 q 606 535 557 547 q 508 558 464 558 l 464 558 q 418 558 381 543 q 345 527 319 499 q 294 471 281 432 q 268 392 268 345 l 268 345 q 268 295 282 256 q 296 216 322 189 q 349 161 385 147 q 422 132 467 132 l 467 132 q 488 132 512 135 q 536 138 561 144 q 585 150 608 157 q 631 165 652 174 l 652 174 z m 472 781 l 347 781 l 180 958 l 328 958 l 411 875 l 494 958 l 639 958 l 472 781 z m 28 689 l 28 689 z "},"ċ":{"ha":764,"x_min":28,"x_max":652,"o":"m 652 174 l 652 26 q 603 7 551 -3 q 498 -12 441 -12 l 441 -12 q 359 -12 294 10 q 229 33 184 77 q 138 121 114 186 q 90 251 90 336 l 90 336 q 90 419 116 486 q 142 553 190 601 q 237 648 304 674 q 371 700 453 700 l 453 700 q 520 700 566 693 q 612 686 648 675 l 648 675 l 648 514 q 606 535 557 547 q 508 558 464 558 l 464 558 q 418 558 381 543 q 345 527 319 499 q 294 471 281 432 q 268 392 268 345 l 268 345 q 268 295 282 256 q 296 216 322 189 q 349 161 385 147 q 422 132 467 132 l 467 132 q 488 132 512 135 q 536 138 561 144 q 585 150 608 157 q 631 165 652 174 l 652 174 z m 517 878 l 517 878 q 517 856 509 837 q 500 819 486 804 q 472 790 452 782 q 433 774 410 774 l 410 774 q 388 774 369 782 q 349 790 335 804 q 321 819 313 837 q 304 856 304 878 l 304 878 q 304 899 313 918 q 321 937 335 951 q 349 966 369 974 q 388 982 410 982 l 410 982 q 431 982 451 974 q 471 966 485 951 q 500 937 508 918 q 517 899 517 878 z m 28 689 l 28 689 z "},"ç":{"ha":764,"x_min":90,"x_max":652,"o":"m 652 174 l 652 26 q 612 10 569 1 q 526 -8 481 -11 l 481 -11 l 410 -200 l 289 -200 l 330 0 q 216 26 153 112 q 90 197 90 336 l 90 336 q 90 419 116 486 q 142 553 190 601 q 237 648 304 674 q 371 700 453 700 l 453 700 q 520 700 566 693 q 612 686 648 675 l 648 675 l 648 514 q 606 535 557 547 q 508 558 464 558 l 464 558 q 418 558 381 543 q 345 527 319 499 q 294 471 281 432 q 268 392 268 345 l 268 345 q 268 295 282 256 q 296 216 322 189 q 349 161 385 147 q 422 132 467 132 l 467 132 q 488 132 512 135 q 536 138 561 144 q 585 150 608 157 q 631 165 652 174 l 652 174 z "},"ď":{"ha":764,"x_min":14,"x_max":871,"o":"m 636 0 l 493 0 l 489 102 q 467 75 444 54 q 421 32 395 17 q 368 1 338 -7 q 308 -16 271 -16 l 271 -16 q 210 -16 163 9 q 115 33 83 78 q 51 123 34 188 q 17 252 17 332 l 17 332 q 17 427 44 496 q 71 566 118 611 q 165 657 231 679 q 296 701 372 701 l 372 701 q 398 701 424 698 q 450 694 471 689 l 471 689 l 471 958 l 636 958 l 636 0 z m 191 339 l 191 339 q 191 282 198 242 q 206 201 221 176 q 237 150 259 138 q 281 126 310 126 l 310 126 q 352 126 390 160 q 428 194 471 253 l 471 253 l 471 554 q 451 562 422 566 q 393 571 364 571 l 364 571 q 324 571 292 555 q 260 538 238 509 q 215 479 203 436 q 191 393 191 339 z m 871 1010 l 790 781 l 659 781 l 712 1010 l 871 1010 z m 14 689 l 14 689 z "},"ð":{"ha":764,"x_min":52,"x_max":697,"o":"m 436 911 l 639 954 l 639 829 l 519 804 q 570 736 604 678 q 637 619 659 564 q 680 509 688 456 q 697 404 697 347 l 697 347 q 697 304 691 261 q 685 218 670 177 q 655 137 631 102 q 606 66 569 40 q 532 14 482 -1 q 432 -16 366 -16 l 366 -16 q 285 -16 225 7 q 166 30 127 74 q 89 118 70 182 q 52 246 52 329 l 52 329 q 52 425 78 495 q 104 565 150 611 q 195 656 256 679 q 317 701 386 701 l 386 701 l 389 701 q 378 718 367 734 q 355 750 343 766 l 343 766 l 142 724 l 142 848 l 257 872 l 180 958 l 396 958 l 436 911 z m 225 338 l 225 338 q 225 227 262 177 q 298 126 375 126 l 375 126 q 406 126 433 139 q 460 153 480 179 q 500 205 512 245 q 524 286 524 339 l 524 339 q 524 399 510 452 q 496 505 471 561 l 471 561 q 454 566 434 568 q 413 571 395 571 l 395 571 q 357 571 326 555 q 294 538 272 508 q 250 478 237 435 q 225 392 225 338 z "},"đ":{"ha":764,"x_min":52,"x_max":754,"o":"m 665 0 l 522 0 l 518 102 q 496 75 474 54 q 451 32 425 17 q 399 1 369 -7 q 339 -16 302 -16 l 302 -16 q 241 -16 195 9 q 148 33 116 78 q 84 123 68 188 q 52 252 52 332 l 52 332 q 52 427 78 496 q 104 566 151 611 q 198 657 263 679 q 328 701 404 701 l 404 701 q 430 701 454 698 q 479 694 500 689 l 500 689 l 500 765 l 315 765 l 315 886 l 500 886 l 500 958 l 665 958 l 665 886 l 754 886 l 754 765 l 665 765 l 665 0 z m 225 339 l 225 339 q 225 225 255 176 q 284 126 342 126 l 342 126 q 363 126 382 135 q 401 144 420 160 q 439 177 459 200 q 478 224 500 253 l 500 253 l 500 554 q 480 562 453 566 q 425 571 396 571 l 396 571 q 356 571 325 555 q 293 538 271 509 q 249 479 237 436 q 225 393 225 339 z "},"è":{"ha":764,"x_min":0,"x_max":694,"o":"m 694 397 l 694 397 q 694 380 693 353 q 692 326 690 302 l 690 302 l 237 302 q 237 257 251 222 q 265 188 291 164 q 316 141 352 129 q 387 117 431 117 l 431 117 q 481 117 538 124 q 595 132 657 150 l 657 150 l 657 18 q 631 11 600 5 q 568 -1 536 -6 q 503 -11 470 -13 q 437 -16 406 -16 l 406 -16 q 327 -16 264 7 q 202 29 159 73 q 115 117 92 181 q 69 245 69 330 l 69 330 q 69 414 92 483 q 115 552 157 601 q 199 650 259 677 q 319 704 393 704 l 393 704 q 467 704 523 681 q 579 659 617 618 q 655 577 675 521 q 694 465 694 397 z m 240 421 l 526 421 q 527 462 516 492 q 505 522 487 542 q 468 562 443 571 q 418 581 390 581 l 390 581 q 328 581 288 539 q 248 497 240 421 l 240 421 z m 62 958 l 286 958 l 464 781 l 298 781 l 62 958 z m 0 689 l 0 689 z "},"é":{"ha":764,"x_min":0,"x_max":700,"o":"m 694 397 l 694 397 q 694 380 693 353 q 692 326 690 302 l 690 302 l 237 302 q 237 257 251 222 q 265 188 291 164 q 316 141 352 129 q 387 117 431 117 l 431 117 q 481 117 538 124 q 595 132 657 150 l 657 150 l 657 18 q 631 11 600 5 q 568 -1 536 -6 q 503 -11 470 -13 q 437 -16 406 -16 l 406 -16 q 327 -16 264 7 q 202 29 159 73 q 115 117 92 181 q 69 245 69 330 l 69 330 q 69 414 92 483 q 115 552 157 601 q 199 650 259 677 q 319 704 393 704 l 393 704 q 467 704 523 681 q 579 659 617 618 q 655 577 675 521 q 694 465 694 397 z m 240 421 l 526 421 q 527 462 516 492 q 505 522 487 542 q 468 562 443 571 q 418 581 390 581 l 390 581 q 328 581 288 539 q 248 497 240 421 l 240 421 z m 700 958 l 464 781 l 298 781 l 476 958 l 700 958 z m 0 689 l 0 689 z "},"ê":{"ha":764,"x_min":0,"x_max":694,"o":"m 694 397 l 694 397 q 694 380 693 353 q 692 326 690 302 l 690 302 l 237 302 q 237 257 251 222 q 265 188 291 164 q 316 141 352 129 q 387 117 431 117 l 431 117 q 481 117 538 124 q 595 132 657 150 l 657 150 l 657 18 q 631 11 600 5 q 568 -1 536 -6 q 503 -11 470 -13 q 437 -16 406 -16 l 406 -16 q 327 -16 264 7 q 202 29 159 73 q 115 117 92 181 q 69 245 69 330 l 69 330 q 69 414 92 483 q 115 552 157 601 q 199 650 259 677 q 319 704 393 704 l 393 704 q 467 704 523 681 q 579 659 617 618 q 655 577 675 521 q 694 465 694 397 z m 240 421 l 526 421 q 527 462 516 492 q 505 522 487 542 q 468 562 443 571 q 418 581 390 581 l 390 581 q 328 581 288 539 q 248 497 240 421 l 240 421 z m 321 958 l 446 958 l 612 781 l 465 781 l 382 864 l 298 781 l 154 781 l 321 958 z m 0 689 l 0 689 z "},"ě":{"ha":764,"x_min":0,"x_max":694,"o":"m 694 397 l 694 397 q 694 380 693 353 q 692 326 690 302 l 690 302 l 237 302 q 237 257 251 222 q 265 188 291 164 q 316 141 352 129 q 387 117 431 117 l 431 117 q 481 117 538 124 q 595 132 657 150 l 657 150 l 657 18 q 631 11 600 5 q 568 -1 536 -6 q 503 -11 470 -13 q 437 -16 406 -16 l 406 -16 q 327 -16 264 7 q 202 29 159 73 q 115 117 92 181 q 69 245 69 330 l 69 330 q 69 414 92 483 q 115 552 157 601 q 199 650 259 677 q 319 704 393 704 l 393 704 q 467 704 523 681 q 579 659 617 618 q 655 577 675 521 q 694 465 694 397 z m 240 421 l 526 421 q 527 462 516 492 q 505 522 487 542 q 468 562 443 571 q 418 581 390 581 l 390 581 q 328 581 288 539 q 248 497 240 421 l 240 421 z m 444 781 l 319 781 l 153 958 l 300 958 l 383 875 l 467 958 l 611 958 l 444 781 z m 0 689 l 0 689 z "},"ë":{"ha":764,"x_min":0,"x_max":694,"o":"m 694 397 l 694 397 q 694 380 693 353 q 692 326 690 302 l 690 302 l 237 302 q 237 257 251 222 q 265 188 291 164 q 316 141 352 129 q 387 117 431 117 l 431 117 q 481 117 538 124 q 595 132 657 150 l 657 150 l 657 18 q 631 11 600 5 q 568 -1 536 -6 q 503 -11 470 -13 q 437 -16 406 -16 l 406 -16 q 327 -16 264 7 q 202 29 159 73 q 115 117 92 181 q 69 245 69 330 l 69 330 q 69 414 92 483 q 115 552 157 601 q 199 650 259 677 q 319 704 393 704 l 393 704 q 467 704 523 681 q 579 659 617 618 q 655 577 675 521 q 694 465 694 397 z m 240 421 l 526 421 q 527 462 516 492 q 505 522 487 542 q 468 562 443 571 q 418 581 390 581 l 390 581 q 328 581 288 539 q 248 497 240 421 l 240 421 z m 333 876 l 333 876 q 333 857 326 840 q 318 823 306 811 q 294 798 276 791 q 259 783 240 783 l 240 783 q 221 783 204 791 q 187 798 175 811 q 162 823 155 840 q 147 857 147 876 l 147 876 q 147 895 155 912 q 162 930 175 942 q 187 955 204 962 q 221 970 240 970 l 240 970 q 259 970 276 962 q 294 955 306 942 q 318 930 326 912 q 333 895 333 876 z m 616 876 l 616 876 q 616 857 609 840 q 602 823 589 811 q 576 798 559 791 q 543 783 524 783 l 524 783 q 504 783 487 791 q 471 798 458 811 q 445 823 438 840 q 431 857 431 876 l 431 876 q 431 895 438 912 q 445 930 458 942 q 471 955 487 962 q 504 970 524 970 l 524 970 q 543 970 559 962 q 576 955 589 942 q 602 930 609 912 q 616 895 616 876 z m 0 689 l 0 689 z "},"ē":{"ha":764,"x_min":0,"x_max":694,"o":"m 694 397 l 694 397 q 694 380 693 353 q 692 326 690 302 l 690 302 l 237 302 q 237 257 251 222 q 265 188 291 164 q 316 141 352 129 q 387 117 431 117 l 431 117 q 481 117 538 124 q 595 132 657 150 l 657 150 l 657 18 q 631 11 600 5 q 568 -1 536 -6 q 503 -11 470 -13 q 437 -16 406 -16 l 406 -16 q 327 -16 264 7 q 202 29 159 73 q 115 117 92 181 q 69 245 69 330 l 69 330 q 69 414 92 483 q 115 552 157 601 q 199 650 259 677 q 319 704 393 704 l 393 704 q 467 704 523 681 q 579 659 617 618 q 655 577 675 521 q 694 465 694 397 z m 240 421 l 526 421 q 527 462 516 492 q 505 522 487 542 q 468 562 443 571 q 418 581 390 581 l 390 581 q 328 581 288 539 q 248 497 240 421 l 240 421 z m 571 817 l 193 817 l 193 935 l 571 935 l 571 817 z m 0 689 l 0 689 z "},"ĕ":{"ha":764,"x_min":0,"x_max":694,"o":"m 694 397 l 694 397 q 694 380 693 353 q 692 326 690 302 l 690 302 l 237 302 q 237 257 251 222 q 265 188 291 164 q 316 141 352 129 q 387 117 431 117 l 431 117 q 481 117 538 124 q 595 132 657 150 l 657 150 l 657 18 q 631 11 600 5 q 568 -1 536 -6 q 503 -11 470 -13 q 437 -16 406 -16 l 406 -16 q 327 -16 264 7 q 202 29 159 73 q 115 117 92 181 q 69 245 69 330 l 69 330 q 69 414 92 483 q 115 552 157 601 q 199 650 259 677 q 319 704 393 704 l 393 704 q 467 704 523 681 q 579 659 617 618 q 655 577 675 521 q 694 465 694 397 z m 240 421 l 526 421 q 527 462 516 492 q 505 522 487 542 q 468 562 443 571 q 418 581 390 581 l 390 581 q 328 581 288 539 q 248 497 240 421 l 240 421 z m 454 958 l 577 958 q 577 920 564 885 q 550 851 525 826 q 499 800 463 786 q 426 771 380 771 l 380 771 q 334 771 298 786 q 262 801 237 827 q 212 852 199 886 q 186 920 186 958 l 186 958 l 309 958 q 309 943 314 930 q 319 917 329 907 q 338 897 352 891 q 365 885 381 885 l 381 885 q 412 885 433 904 q 454 922 454 958 l 454 958 z m 0 689 l 0 689 z "},"ė":{"ha":764,"x_min":0,"x_max":694,"o":"m 694 397 l 694 397 q 694 380 693 353 q 692 326 690 302 l 690 302 l 237 302 q 237 257 251 222 q 265 188 291 164 q 316 141 352 129 q 387 117 431 117 l 431 117 q 481 117 538 124 q 595 132 657 150 l 657 150 l 657 18 q 631 11 600 5 q 568 -1 536 -6 q 503 -11 470 -13 q 437 -16 406 -16 l 406 -16 q 327 -16 264 7 q 202 29 159 73 q 115 117 92 181 q 69 245 69 330 l 69 330 q 69 414 92 483 q 115 552 157 601 q 199 650 259 677 q 319 704 393 704 l 393 704 q 467 704 523 681 q 579 659 617 618 q 655 577 675 521 q 694 465 694 397 z m 240 421 l 526 421 q 527 462 516 492 q 505 522 487 542 q 468 562 443 571 q 418 581 390 581 l 390 581 q 328 581 288 539 q 248 497 240 421 l 240 421 z m 489 878 l 489 878 q 489 856 481 837 q 473 819 458 804 q 444 790 425 782 q 405 774 382 774 l 382 774 q 360 774 341 782 q 321 790 307 804 q 293 819 285 837 q 277 856 277 878 l 277 878 q 277 899 285 918 q 293 937 307 951 q 321 966 341 974 q 360 982 382 982 l 382 982 q 404 982 423 974 q 443 966 457 951 q 472 937 480 918 q 489 899 489 878 z m 0 689 l 0 689 z "},"ę":{"ha":764,"x_min":69,"x_max":694,"o":"m 600 -161 l 600 -261 q 578 -267 551 -271 q 524 -275 503 -275 l 503 -275 q 459 -275 430 -266 q 400 -256 382 -240 q 363 -224 355 -202 q 347 -180 347 -154 l 347 -154 q 347 -137 350 -120 q 353 -104 361 -87 q 368 -71 381 -53 q 394 -35 414 -16 l 414 -16 l 406 -16 q 327 -16 264 7 q 202 29 159 73 q 115 117 92 181 q 69 245 69 330 l 69 330 q 69 414 92 483 q 115 552 157 601 q 199 650 259 677 q 319 704 393 704 l 393 704 q 467 704 523 681 q 579 659 617 618 q 655 577 675 521 q 694 465 694 397 l 694 397 q 694 380 693 353 q 692 326 690 302 l 690 302 l 237 302 q 237 257 251 222 q 265 188 291 164 q 316 141 352 129 q 387 117 431 117 l 431 117 q 481 117 538 124 q 595 132 657 150 l 657 150 l 657 18 q 618 7 573 0 l 573 0 q 547 -26 532 -44 q 517 -63 510 -77 q 502 -92 499 -103 q 497 -115 497 -125 l 497 -125 q 497 -146 508 -156 q 519 -167 550 -167 l 550 -167 q 560 -167 575 -165 q 589 -163 600 -161 l 600 -161 z m 240 421 l 526 421 q 527 462 516 492 q 505 522 487 542 q 468 562 443 571 q 418 581 390 581 l 390 581 q 328 581 288 539 q 248 497 240 421 l 240 421 z "},"ﬁ":{"ha":764,"x_min":0,"x_max":664,"o":"m 664 619 l 664 0 l 501 0 l 501 490 l 292 490 l 292 0 l 129 0 l 129 490 l 22 490 l 22 619 l 129 619 l 129 692 q 129 766 152 819 q 174 872 217 906 q 260 940 321 956 q 382 971 460 971 l 460 971 q 482 971 506 969 q 530 968 554 964 q 578 961 600 957 q 623 952 642 947 l 642 947 l 642 814 q 625 820 603 825 q 581 829 558 833 q 534 836 510 838 q 486 840 465 840 l 465 840 q 427 840 395 832 q 363 825 340 807 q 317 789 304 762 q 292 734 292 694 l 292 694 l 292 619 l 664 619 z m 0 689 l 0 689 z "},"ﬂ":{"ha":764,"x_min":0,"x_max":664,"o":"m 664 947 l 664 0 l 501 0 l 501 836 q 492 838 476 839 q 460 840 446 840 l 446 840 q 366 840 329 806 q 292 772 292 694 l 292 694 l 292 619 l 415 619 l 415 490 l 292 490 l 292 0 l 129 0 l 129 490 l 22 490 l 22 619 l 129 619 l 129 692 q 129 766 152 819 q 174 872 216 906 q 257 940 316 956 q 374 971 447 971 l 447 971 q 502 971 555 965 q 609 960 664 947 l 664 947 z m 0 689 l 0 689 z "},"ĝ":{"ha":764,"x_min":0,"x_max":720,"o":"m 720 568 l 611 568 q 630 545 638 518 q 646 492 646 465 l 646 465 q 646 408 626 363 q 606 319 569 290 q 533 260 483 244 q 432 229 371 229 l 371 229 q 335 229 304 236 q 274 243 258 253 l 258 253 q 247 241 239 228 q 231 214 231 196 l 231 196 q 231 185 236 174 q 241 163 252 155 q 262 146 277 141 q 292 136 310 135 l 310 135 l 473 129 q 528 127 573 115 q 617 102 649 79 q 681 56 698 23 q 715 -9 715 -52 l 715 -52 q 715 -100 694 -142 q 672 -185 628 -217 q 585 -248 519 -267 q 454 -285 368 -285 l 368 -285 q 285 -285 225 -272 q 165 -258 126 -235 q 88 -211 70 -178 q 52 -145 52 -106 l 52 -106 q 52 -82 58 -62 q 64 -41 76 -23 q 88 -4 106 14 q 125 31 150 49 l 150 49 q 117 68 99 98 q 82 127 82 161 l 82 161 q 82 184 88 204 q 94 224 104 243 q 114 261 127 278 q 140 295 154 311 l 154 311 q 129 336 112 372 q 96 408 96 461 l 96 461 q 96 519 116 564 q 137 609 174 640 q 210 671 261 687 q 311 703 371 703 l 371 703 q 401 703 430 700 q 458 696 481 689 l 481 689 l 720 689 l 720 568 z m 221 -92 l 221 -92 q 221 -132 261 -151 q 302 -170 375 -170 l 375 -170 q 422 -170 454 -161 q 486 -152 507 -138 q 527 -123 536 -104 q 545 -85 545 -65 l 545 -65 q 545 -47 536 -34 q 528 -22 512 -13 q 497 -5 476 0 q 456 4 431 5 l 431 5 l 285 8 q 265 -5 253 -18 q 240 -30 233 -42 q 226 -54 223 -66 q 221 -78 221 -92 z m 249 461 l 249 461 q 249 406 281 374 q 313 342 371 342 l 371 342 q 401 342 424 352 q 447 362 462 379 q 477 396 484 418 q 492 441 492 465 l 492 465 q 492 523 459 555 q 427 587 370 587 l 370 587 q 339 587 316 577 q 294 567 279 550 q 264 532 256 509 q 249 486 249 461 z m 321 958 l 446 958 l 612 781 l 465 781 l 382 864 l 298 781 l 154 781 l 321 958 z m 0 689 l 0 689 z "},"ğ":{"ha":764,"x_min":0,"x_max":720,"o":"m 720 568 l 611 568 q 630 545 638 518 q 646 492 646 465 l 646 465 q 646 408 626 363 q 606 319 569 290 q 533 260 483 244 q 432 229 371 229 l 371 229 q 335 229 304 236 q 274 243 258 253 l 258 253 q 247 241 239 228 q 231 214 231 196 l 231 196 q 231 185 236 174 q 241 163 252 155 q 262 146 277 141 q 292 136 310 135 l 310 135 l 473 129 q 528 127 573 115 q 617 102 649 79 q 681 56 698 23 q 715 -9 715 -52 l 715 -52 q 715 -100 694 -142 q 672 -185 628 -217 q 585 -248 519 -267 q 454 -285 368 -285 l 368 -285 q 285 -285 225 -272 q 165 -258 126 -235 q 88 -211 70 -178 q 52 -145 52 -106 l 52 -106 q 52 -82 58 -62 q 64 -41 76 -23 q 88 -4 106 14 q 125 31 150 49 l 150 49 q 117 68 99 98 q 82 127 82 161 l 82 161 q 82 184 88 204 q 94 224 104 243 q 114 261 127 278 q 140 295 154 311 l 154 311 q 129 336 112 372 q 96 408 96 461 l 96 461 q 96 519 116 564 q 137 609 174 640 q 210 671 261 687 q 311 703 371 703 l 371 703 q 401 703 430 700 q 458 696 481 689 l 481 689 l 720 689 l 720 568 z m 221 -92 l 221 -92 q 221 -132 261 -151 q 302 -170 375 -170 l 375 -170 q 422 -170 454 -161 q 486 -152 507 -138 q 527 -123 536 -104 q 545 -85 545 -65 l 545 -65 q 545 -47 536 -34 q 528 -22 512 -13 q 497 -5 476 0 q 456 4 431 5 l 431 5 l 285 8 q 265 -5 253 -18 q 240 -30 233 -42 q 226 -54 223 -66 q 221 -78 221 -92 z m 249 461 l 249 461 q 249 406 281 374 q 313 342 371 342 l 371 342 q 401 342 424 352 q 447 362 462 379 q 477 396 484 418 q 492 441 492 465 l 492 465 q 492 523 459 555 q 427 587 370 587 l 370 587 q 339 587 316 577 q 294 567 279 550 q 264 532 256 509 q 249 486 249 461 z m 454 958 l 577 958 q 577 920 564 885 q 550 851 525 826 q 499 800 463 786 q 426 771 380 771 l 380 771 q 334 771 298 786 q 262 801 237 827 q 212 852 199 886 q 186 920 186 958 l 186 958 l 309 958 q 309 943 314 930 q 319 917 329 907 q 338 897 352 891 q 365 885 381 885 l 381 885 q 412 885 433 904 q 454 922 454 958 l 454 958 z m 0 689 l 0 689 z "},"ġ":{"ha":764,"x_min":0,"x_max":720,"o":"m 720 568 l 611 568 q 630 545 638 518 q 646 492 646 465 l 646 465 q 646 408 626 363 q 606 319 569 290 q 533 260 483 244 q 432 229 371 229 l 371 229 q 335 229 304 236 q 274 243 258 253 l 258 253 q 247 241 239 228 q 231 214 231 196 l 231 196 q 231 185 236 174 q 241 163 252 155 q 262 146 277 141 q 292 136 310 135 l 310 135 l 473 129 q 528 127 573 115 q 617 102 649 79 q 681 56 698 23 q 715 -9 715 -52 l 715 -52 q 715 -100 694 -142 q 672 -185 628 -217 q 585 -248 519 -267 q 454 -285 368 -285 l 368 -285 q 285 -285 225 -272 q 165 -258 126 -235 q 88 -211 70 -178 q 52 -145 52 -106 l 52 -106 q 52 -82 58 -62 q 64 -41 76 -23 q 88 -4 106 14 q 125 31 150 49 l 150 49 q 117 68 99 98 q 82 127 82 161 l 82 161 q 82 184 88 204 q 94 224 104 243 q 114 261 127 278 q 140 295 154 311 l 154 311 q 129 336 112 372 q 96 408 96 461 l 96 461 q 96 519 116 564 q 137 609 174 640 q 210 671 261 687 q 311 703 371 703 l 371 703 q 401 703 430 700 q 458 696 481 689 l 481 689 l 720 689 l 720 568 z m 221 -92 l 221 -92 q 221 -132 261 -151 q 302 -170 375 -170 l 375 -170 q 422 -170 454 -161 q 486 -152 507 -138 q 527 -123 536 -104 q 545 -85 545 -65 l 545 -65 q 545 -47 536 -34 q 528 -22 512 -13 q 497 -5 476 0 q 456 4 431 5 l 431 5 l 285 8 q 265 -5 253 -18 q 240 -30 233 -42 q 226 -54 223 -66 q 221 -78 221 -92 z m 249 461 l 249 461 q 249 406 281 374 q 313 342 371 342 l 371 342 q 401 342 424 352 q 447 362 462 379 q 477 396 484 418 q 492 441 492 465 l 492 465 q 492 523 459 555 q 427 587 370 587 l 370 587 q 339 587 316 577 q 294 567 279 550 q 264 532 256 509 q 249 486 249 461 z m 489 878 l 489 878 q 489 856 481 837 q 473 819 458 804 q 444 790 425 782 q 405 774 382 774 l 382 774 q 360 774 341 782 q 321 790 307 804 q 293 819 285 837 q 277 856 277 878 l 277 878 q 277 899 285 918 q 293 937 307 951 q 321 966 341 974 q 360 982 382 982 l 382 982 q 404 982 423 974 q 443 966 457 951 q 472 937 480 918 q 489 899 489 878 z m 0 689 l 0 689 z "},"ģ":{"ha":764,"x_min":0,"x_max":720,"o":"m 720 568 l 611 568 q 630 545 638 518 q 646 492 646 465 l 646 465 q 646 408 626 363 q 606 319 569 290 q 533 260 483 244 q 432 229 371 229 l 371 229 q 335 229 304 236 q 274 243 258 253 l 258 253 q 247 241 239 228 q 231 214 231 196 l 231 196 q 231 185 236 174 q 241 163 252 155 q 262 146 277 141 q 292 136 310 135 l 310 135 l 473 129 q 528 127 573 115 q 617 102 649 79 q 681 56 698 23 q 715 -9 715 -52 l 715 -52 q 715 -100 694 -142 q 672 -185 628 -217 q 585 -248 519 -267 q 454 -285 368 -285 l 368 -285 q 285 -285 225 -272 q 165 -258 126 -235 q 88 -211 70 -178 q 52 -145 52 -106 l 52 -106 q 52 -82 58 -62 q 64 -41 76 -23 q 88 -4 106 14 q 125 31 150 49 l 150 49 q 117 68 99 98 q 82 127 82 161 l 82 161 q 82 184 88 204 q 94 224 104 243 q 114 261 127 278 q 140 295 154 311 l 154 311 q 129 336 112 372 q 96 408 96 461 l 96 461 q 96 519 116 564 q 137 609 174 640 q 210 671 261 687 q 311 703 371 703 l 371 703 q 401 703 430 700 q 458 696 481 689 l 481 689 l 720 689 l 720 568 z m 221 -92 l 221 -92 q 221 -132 261 -151 q 302 -170 375 -170 l 375 -170 q 422 -170 454 -161 q 486 -152 507 -138 q 527 -123 536 -104 q 545 -85 545 -65 l 545 -65 q 545 -47 536 -34 q 528 -22 512 -13 q 497 -5 476 0 q 456 4 431 5 l 431 5 l 285 8 q 265 -5 253 -18 q 240 -30 233 -42 q 226 -54 223 -66 q 221 -78 221 -92 z m 249 461 l 249 461 q 249 406 281 374 q 313 342 371 342 l 371 342 q 401 342 424 352 q 447 362 462 379 q 477 396 484 418 q 492 441 492 465 l 492 465 q 492 523 459 555 q 427 587 370 587 l 370 587 q 339 587 316 577 q 294 567 279 550 q 264 532 256 509 q 249 486 249 461 z m 458 794 l 304 794 l 376 994 l 507 994 l 458 794 z m 0 689 l 0 689 z "},"ĥ":{"ha":764,"x_min":0,"x_max":671,"o":"m 671 0 l 505 0 l 505 449 q 505 562 421 562 l 421 562 q 379 562 341 528 q 302 494 260 436 l 260 436 l 260 0 l 94 0 l 94 958 l 260 958 l 260 722 l 252 597 q 273 623 294 643 q 316 663 341 676 q 366 690 395 697 q 425 704 460 704 l 460 704 q 513 704 552 687 q 591 669 618 638 q 644 606 657 562 q 671 517 671 463 l 671 463 l 671 0 z m 453 1181 l 614 1028 l 465 1028 l 382 1092 l 298 1028 l 153 1028 l 314 1181 l 453 1181 z m 0 934 l 0 934 z "},"ħ":{"ha":764,"x_min":0,"x_max":664,"o":"m 267 758 l 267 692 l 258 566 q 295 618 341 646 q 388 673 454 673 l 454 673 q 509 673 549 656 q 589 640 614 608 q 640 576 652 532 q 664 487 664 432 l 664 432 l 664 0 l 498 0 l 498 418 q 498 474 481 504 q 464 534 418 534 l 418 534 q 399 534 383 527 q 367 520 349 505 q 332 490 312 466 q 292 441 267 407 l 267 407 l 267 0 l 102 0 l 102 758 l 0 758 l 0 882 l 102 882 l 102 958 l 267 958 l 267 882 l 447 882 l 447 758 l 267 758 z m 0 704 l 0 704 z "},"ì":{"ha":764,"x_min":14,"x_max":685,"o":"m 317 129 l 317 560 l 122 560 l 122 689 l 486 689 l 486 129 l 685 129 l 685 0 l 98 0 l 98 129 l 317 129 z m 76 958 l 300 958 l 477 781 l 312 781 l 76 958 z m 14 689 l 14 689 z "},"í":{"ha":764,"x_min":14,"x_max":713,"o":"m 317 129 l 317 560 l 122 560 l 122 689 l 486 689 l 486 129 l 685 129 l 685 0 l 98 0 l 98 129 l 317 129 z m 713 958 l 477 781 l 312 781 l 490 958 l 713 958 z m 14 689 l 14 689 z "},"î":{"ha":764,"x_min":0,"x_max":685,"o":"m 317 129 l 317 560 l 122 560 l 122 689 l 486 689 l 486 129 l 685 129 l 685 0 l 98 0 l 98 129 l 317 129 z m 321 958 l 446 958 l 612 781 l 465 781 l 382 864 l 298 781 l 154 781 l 321 958 z m 0 689 l 0 689 z "},"ĩ":{"ha":764,"x_min":14,"x_max":685,"o":"m 317 129 l 317 560 l 122 560 l 122 689 l 486 689 l 486 129 l 685 129 l 685 0 l 98 0 l 98 129 l 317 129 z m 577 958 l 651 885 q 623 830 585 804 q 547 778 492 778 l 492 778 q 452 778 424 789 q 397 801 375 815 q 354 829 336 841 q 317 852 296 852 l 296 852 q 271 852 252 837 q 233 821 214 791 l 214 791 l 140 865 q 168 920 206 946 q 244 972 300 972 l 300 972 q 340 972 367 960 q 395 948 416 935 q 437 921 456 909 q 474 897 496 897 l 496 897 q 521 897 540 913 q 559 929 577 958 l 577 958 z m 14 689 l 14 689 z "},"ï":{"ha":764,"x_min":14,"x_max":685,"o":"m 317 129 l 317 560 l 122 560 l 122 689 l 486 689 l 486 129 l 685 129 l 685 0 l 98 0 l 98 129 l 317 129 z m 347 876 l 347 876 q 347 857 339 840 q 332 823 319 811 q 307 798 290 791 q 273 783 254 783 l 254 783 q 235 783 218 791 q 201 798 188 811 q 176 823 168 840 q 161 857 161 876 l 161 876 q 161 895 168 912 q 176 930 188 942 q 201 955 218 962 q 235 970 254 970 l 254 970 q 273 970 290 962 q 307 955 319 942 q 332 930 339 912 q 347 895 347 876 z m 630 876 l 630 876 q 630 857 623 840 q 616 823 603 811 q 590 798 573 791 q 556 783 537 783 l 537 783 q 517 783 501 791 q 484 798 471 811 q 458 823 451 840 q 444 857 444 876 l 444 876 q 444 895 451 912 q 458 930 471 942 q 484 955 501 962 q 517 970 537 970 l 537 970 q 556 970 573 962 q 590 955 603 942 q 616 930 623 912 q 630 895 630 876 z m 14 689 l 14 689 z "},"ī":{"ha":764,"x_min":14,"x_max":685,"o":"m 317 129 l 317 560 l 122 560 l 122 689 l 486 689 l 486 129 l 685 129 l 685 0 l 98 0 l 98 129 l 317 129 z m 585 817 l 206 817 l 206 935 l 585 935 l 585 817 z m 14 689 l 14 689 z "},"ĭ":{"ha":764,"x_min":14,"x_max":685,"o":"m 317 129 l 317 560 l 122 560 l 122 689 l 486 689 l 486 129 l 685 129 l 685 0 l 98 0 l 98 129 l 317 129 z m 468 958 l 591 958 q 591 920 577 885 q 564 851 538 826 q 513 800 476 786 q 439 771 393 771 l 393 771 q 347 771 311 786 q 275 801 251 827 q 226 852 213 886 q 200 920 200 958 l 200 958 l 323 958 q 323 943 328 930 q 333 917 342 907 q 352 897 365 891 q 378 885 395 885 l 395 885 q 425 885 447 904 q 468 922 468 958 l 468 958 z m 14 689 l 14 689 z "},"į":{"ha":764,"x_min":98,"x_max":711,"o":"m 711 -161 l 711 -261 q 690 -267 663 -271 q 635 -275 614 -275 l 614 -275 q 571 -275 541 -266 q 511 -256 493 -240 q 475 -224 467 -202 q 458 -180 458 -154 l 458 -154 q 458 -136 462 -118 q 466 -100 475 -81 q 485 -62 501 -42 q 517 -22 542 0 l 542 0 l 98 0 l 98 129 l 317 129 l 317 560 l 122 560 l 122 689 l 486 689 l 486 129 l 685 129 l 685 0 q 659 -26 644 -44 q 629 -63 621 -77 q 613 -92 611 -103 q 608 -115 608 -125 l 608 -125 q 608 -146 620 -156 q 631 -167 661 -167 l 661 -167 q 672 -167 686 -165 q 701 -163 711 -161 l 711 -161 z m 500 878 l 500 878 q 500 855 492 836 q 484 816 469 801 q 454 787 435 778 q 415 770 392 770 l 392 770 q 369 770 349 778 q 329 787 314 801 q 300 816 292 836 q 283 855 283 878 l 283 878 q 283 900 292 920 q 300 939 314 954 q 329 969 349 978 q 369 986 392 986 l 392 986 q 415 986 435 978 q 454 969 469 954 q 484 939 492 920 q 500 900 500 878 z "},"ı":{"ha":764,"x_min":98,"x_max":685,"o":"m 317 129 l 317 560 l 122 560 l 122 689 l 486 689 l 486 129 l 685 129 l 685 0 l 98 0 l 98 129 l 317 129 z "},"ĳ":{"ha":764,"x_min":71,"x_max":695,"o":"m 671 689 l 671 17 q 671 -65 652 -122 q 633 -180 597 -216 q 562 -252 512 -269 q 461 -285 399 -285 l 399 -285 q 360 -285 325 -281 q 290 -277 258 -268 l 258 -268 l 258 -127 q 271 -133 286 -138 q 302 -142 320 -146 q 338 -150 356 -152 q 374 -154 392 -154 l 392 -154 q 454 -154 480 -114 q 505 -73 505 8 l 505 8 l 505 689 l 671 689 z m 94 689 l 260 689 l 260 0 l 94 0 l 94 689 z m 283 878 l 283 878 q 283 855 275 836 q 267 817 253 802 q 239 787 219 779 q 200 771 178 771 l 178 771 q 155 771 135 779 q 115 787 101 802 q 87 817 79 836 q 71 855 71 878 l 71 878 q 71 899 79 919 q 87 938 101 952 q 115 966 135 975 q 155 983 178 983 l 178 983 q 200 983 219 975 q 239 966 253 952 q 267 938 275 919 q 283 899 283 878 z m 695 878 l 695 878 q 695 855 687 836 q 679 817 664 802 q 650 787 630 779 q 611 771 589 771 l 589 771 q 566 771 546 779 q 527 787 513 802 q 498 817 490 836 q 482 855 482 878 l 482 878 q 482 899 490 919 q 498 938 513 952 q 527 966 546 975 q 566 983 589 983 l 589 983 q 611 983 630 975 q 650 966 664 952 q 679 938 687 919 q 695 899 695 878 z "},"ȷ":{"ha":764,"x_min":81,"x_max":599,"o":"m 599 689 l 599 20 q 599 -58 576 -115 q 553 -172 511 -210 q 469 -248 409 -266 q 350 -285 277 -285 l 277 -285 q 217 -285 165 -275 q 114 -264 81 -250 l 81 -250 l 81 -98 q 100 -109 124 -118 q 148 -128 174 -136 q 200 -144 227 -148 q 254 -153 281 -153 l 281 -153 q 356 -153 393 -109 q 431 -66 431 18 l 431 18 l 431 560 l 103 560 l 103 689 l 599 689 z "},"ĵ":{"ha":764,"x_min":12,"x_max":624,"o":"m 599 689 l 599 20 q 599 -58 576 -115 q 553 -172 511 -210 q 469 -248 409 -266 q 350 -285 277 -285 l 277 -285 q 217 -285 165 -275 q 114 -264 81 -250 l 81 -250 l 81 -98 q 100 -109 124 -118 q 148 -128 174 -136 q 200 -144 227 -148 q 254 -153 281 -153 l 281 -153 q 356 -153 393 -109 q 431 -66 431 18 l 431 18 l 431 560 l 103 560 l 103 689 l 599 689 z m 332 958 l 457 958 l 624 781 l 477 781 l 393 864 l 310 781 l 165 781 l 332 958 z m 12 689 l 12 689 z "},"ķ":{"ha":764,"x_min":101,"x_max":737,"o":"m 737 0 l 521 0 l 267 345 l 267 0 l 101 0 l 101 958 l 267 958 l 267 397 l 507 689 l 714 689 l 435 375 l 737 0 z m 309 -78 l 463 -78 l 400 -278 l 269 -278 l 309 -78 z "},"ĸ":{"ha":764,"x_min":102,"x_max":736,"o":"m 736 0 l 524 0 l 264 345 l 264 0 l 102 0 l 102 689 l 264 689 l 264 397 l 509 689 l 713 689 l 433 375 l 736 0 z "},"ĺ":{"ha":764,"x_min":0,"x_max":685,"o":"m 317 129 l 317 829 l 122 829 l 122 958 l 486 958 l 486 129 l 685 129 l 685 0 l 98 0 l 98 129 l 317 129 z m 673 1181 l 464 1028 l 298 1028 l 450 1181 l 673 1181 z m 0 934 l 0 934 z "},"ľ":{"ha":764,"x_min":-90,"x_max":767,"o":"m 317 129 l 317 829 l 122 829 l 122 958 l 486 958 l 486 129 l 685 129 l 685 0 l 98 0 l 98 129 l 317 129 z m 767 1010 l 686 781 l 555 781 l 608 1010 l 767 1010 z m -90 689 l -90 689 z "},"ļ":{"ha":764,"x_min":98,"x_max":685,"o":"m 317 129 l 317 829 l 122 829 l 122 958 l 486 958 l 486 129 l 685 129 l 685 0 l 98 0 l 98 129 l 317 129 z m 336 -78 l 490 -78 l 428 -278 l 297 -278 l 336 -78 z "},"ł":{"ha":764,"x_min":98,"x_max":685,"o":"m 138 314 l 138 463 l 317 553 l 317 829 l 122 829 l 122 958 l 486 958 l 486 637 l 665 728 l 665 579 l 486 489 l 486 129 l 685 129 l 685 0 l 98 0 l 98 129 l 317 129 l 317 404 l 138 314 z "},"ŀ":{"ha":764,"x_min":58,"x_max":876,"o":"m 276 129 l 276 829 l 81 829 l 81 958 l 446 958 l 446 129 l 644 129 l 644 0 l 58 0 l 58 129 l 276 129 z m 742 555 l 742 555 q 770 555 795 545 q 819 534 837 516 q 855 498 865 474 q 876 450 876 422 l 876 422 q 876 395 865 371 q 855 347 837 329 q 819 311 795 301 q 770 290 742 290 l 742 290 q 715 290 691 301 q 667 311 650 329 q 632 347 622 371 q 612 395 612 422 l 612 422 q 612 450 622 474 q 632 498 650 516 q 667 534 691 545 q 715 555 742 555 z "},"ń":{"ha":764,"x_min":0,"x_max":700,"o":"m 671 0 l 505 0 l 505 449 q 505 562 421 562 l 421 562 q 379 562 341 528 q 302 494 260 436 l 260 436 l 260 0 l 94 0 l 94 689 l 237 689 l 241 587 q 262 614 285 635 q 308 657 334 672 q 361 688 391 696 q 422 704 460 704 l 460 704 q 513 704 552 687 q 591 669 618 638 q 644 606 657 562 q 671 517 671 463 l 671 463 l 671 0 z m 700 958 l 464 781 l 298 781 l 476 958 l 700 958 z m 0 689 l 0 689 z "},"ň":{"ha":764,"x_min":0,"x_max":671,"o":"m 671 0 l 505 0 l 505 449 q 505 562 421 562 l 421 562 q 379 562 341 528 q 302 494 260 436 l 260 436 l 260 0 l 94 0 l 94 689 l 237 689 l 241 587 q 262 614 285 635 q 308 657 334 672 q 361 688 391 696 q 422 704 460 704 l 460 704 q 513 704 552 687 q 591 669 618 638 q 644 606 657 562 q 671 517 671 463 l 671 463 l 671 0 z m 444 781 l 319 781 l 153 958 l 300 958 l 383 875 l 467 958 l 611 958 l 444 781 z m 0 689 l 0 689 z "},"ñ":{"ha":764,"x_min":0,"x_max":671,"o":"m 671 0 l 505 0 l 505 449 q 505 562 421 562 l 421 562 q 379 562 341 528 q 302 494 260 436 l 260 436 l 260 0 l 94 0 l 94 689 l 237 689 l 241 587 q 262 614 285 635 q 308 657 334 672 q 361 688 391 696 q 422 704 460 704 l 460 704 q 513 704 552 687 q 591 669 618 638 q 644 606 657 562 q 671 517 671 463 l 671 463 l 671 0 z m 564 958 l 637 885 q 609 830 571 804 q 533 778 478 778 l 478 778 q 438 778 411 789 q 383 801 362 815 q 340 829 322 841 q 304 852 282 852 l 282 852 q 257 852 238 837 q 219 821 200 791 l 200 791 l 126 865 q 155 920 193 946 q 231 972 286 972 l 286 972 q 326 972 354 960 q 381 948 402 935 q 424 921 442 909 q 460 897 482 897 l 482 897 q 507 897 526 913 q 545 929 564 958 l 564 958 z m 0 689 l 0 689 z "},"ņ":{"ha":764,"x_min":94,"x_max":671,"o":"m 671 0 l 505 0 l 505 449 q 505 562 421 562 l 421 562 q 379 562 341 528 q 302 494 260 436 l 260 436 l 260 0 l 94 0 l 94 689 l 237 689 l 241 587 q 262 614 285 635 q 308 657 334 672 q 361 688 391 696 q 422 704 460 704 l 460 704 q 513 704 552 687 q 591 669 618 638 q 644 606 657 562 q 671 517 671 463 l 671 463 l 671 0 z m 309 -78 l 463 -78 l 400 -278 l 269 -278 l 309 -78 z "},"ŉ":{"ha":764,"x_min":0,"x_max":684,"o":"m 684 0 l 519 0 l 519 449 q 519 562 435 562 l 435 562 q 393 562 354 528 q 316 494 273 436 l 273 436 l 273 0 l 108 0 l 108 689 l 251 689 l 255 587 q 276 614 299 635 q 321 657 348 672 q 374 688 405 696 q 435 704 473 704 l 473 704 q 526 704 566 687 q 605 669 631 638 q 658 606 671 562 q 684 517 684 463 l 684 463 l 684 0 z m 0 724 l 0 808 q 47 808 72 822 q 97 836 97 867 l 97 867 q 97 886 89 898 q 81 910 72 921 q 62 931 54 944 q 46 958 46 981 l 46 981 q 46 997 52 1011 q 58 1026 69 1038 q 80 1049 96 1056 q 112 1063 132 1063 l 132 1063 q 157 1063 177 1053 q 197 1042 210 1024 q 224 1006 231 982 q 237 958 237 930 l 237 930 q 237 886 223 849 q 209 811 179 783 q 150 755 105 740 q 60 724 0 724 l 0 724 z m 0 689 l 0 689 z "},"ŋ":{"ha":764,"x_min":94,"x_max":671,"o":"m 671 463 l 671 20 q 671 -58 649 -115 q 627 -172 585 -210 q 544 -248 485 -266 q 426 -285 353 -285 l 353 -285 l 353 -153 q 429 -153 467 -109 q 505 -66 505 18 l 505 18 l 505 449 q 505 562 421 562 l 421 562 q 379 562 341 528 q 302 494 260 436 l 260 436 l 260 0 l 94 0 l 94 689 l 237 689 l 241 587 q 262 614 285 635 q 308 657 334 672 q 361 688 391 696 q 422 704 460 704 l 460 704 q 513 704 552 687 q 591 669 618 638 q 644 606 657 562 q 671 517 671 463 l 671 463 z "},"ò":{"ha":764,"x_min":0,"x_max":715,"o":"m 715 350 l 715 350 q 715 269 692 201 q 669 134 625 85 q 582 37 519 11 q 456 -16 375 -16 l 375 -16 q 298 -16 238 7 q 178 29 136 74 q 94 118 71 185 q 49 252 49 340 l 49 340 q 49 422 72 490 q 96 557 139 604 q 183 652 246 678 q 309 704 389 704 l 389 704 q 466 704 526 681 q 587 659 629 614 q 671 569 693 503 q 715 437 715 350 z m 543 346 l 543 346 q 543 453 502 507 q 462 561 383 561 l 383 561 q 340 561 309 544 q 279 527 259 497 q 239 468 230 429 q 221 389 221 345 l 221 345 q 221 237 264 182 q 308 127 383 127 l 383 127 q 425 127 455 144 q 486 161 505 190 q 524 220 533 260 q 543 300 543 346 z m 62 958 l 286 958 l 464 781 l 298 781 l 62 958 z m 0 689 l 0 689 z "},"ó":{"ha":764,"x_min":0,"x_max":715,"o":"m 715 350 l 715 350 q 715 269 692 201 q 669 134 625 85 q 582 37 519 11 q 456 -16 375 -16 l 375 -16 q 298 -16 238 7 q 178 29 136 74 q 94 118 71 185 q 49 252 49 340 l 49 340 q 49 422 72 490 q 96 557 139 604 q 183 652 246 678 q 309 704 389 704 l 389 704 q 466 704 526 681 q 587 659 629 614 q 671 569 693 503 q 715 437 715 350 z m 543 346 l 543 346 q 543 453 502 507 q 462 561 383 561 l 383 561 q 340 561 309 544 q 279 527 259 497 q 239 468 230 429 q 221 389 221 345 l 221 345 q 221 237 264 182 q 308 127 383 127 l 383 127 q 425 127 455 144 q 486 161 505 190 q 524 220 533 260 q 543 300 543 346 z m 700 958 l 464 781 l 298 781 l 476 958 l 700 958 z m 0 689 l 0 689 z "},"ô":{"ha":764,"x_min":0,"x_max":715,"o":"m 715 350 l 715 350 q 715 269 692 201 q 669 134 625 85 q 582 37 519 11 q 456 -16 375 -16 l 375 -16 q 298 -16 238 7 q 178 29 136 74 q 94 118 71 185 q 49 252 49 340 l 49 340 q 49 422 72 490 q 96 557 139 604 q 183 652 246 678 q 309 704 389 704 l 389 704 q 466 704 526 681 q 587 659 629 614 q 671 569 693 503 q 715 437 715 350 z m 543 346 l 543 346 q 543 453 502 507 q 462 561 383 561 l 383 561 q 340 561 309 544 q 279 527 259 497 q 239 468 230 429 q 221 389 221 345 l 221 345 q 221 237 264 182 q 308 127 383 127 l 383 127 q 425 127 455 144 q 486 161 505 190 q 524 220 533 260 q 543 300 543 346 z m 321 958 l 446 958 l 612 781 l 465 781 l 382 864 l 298 781 l 154 781 l 321 958 z m 0 689 l 0 689 z "},"õ":{"ha":764,"x_min":0,"x_max":715,"o":"m 715 350 l 715 350 q 715 269 692 201 q 669 134 625 85 q 582 37 519 11 q 456 -16 375 -16 l 375 -16 q 298 -16 238 7 q 178 29 136 74 q 94 118 71 185 q 49 252 49 340 l 49 340 q 49 422 72 490 q 96 557 139 604 q 183 652 246 678 q 309 704 389 704 l 389 704 q 466 704 526 681 q 587 659 629 614 q 671 569 693 503 q 715 437 715 350 z m 543 346 l 543 346 q 543 453 502 507 q 462 561 383 561 l 383 561 q 340 561 309 544 q 279 527 259 497 q 239 468 230 429 q 221 389 221 345 l 221 345 q 221 237 264 182 q 308 127 383 127 l 383 127 q 425 127 455 144 q 486 161 505 190 q 524 220 533 260 q 543 300 543 346 z m 564 958 l 637 885 q 609 830 571 804 q 533 778 478 778 l 478 778 q 438 778 411 789 q 383 801 362 815 q 340 829 322 841 q 304 852 282 852 l 282 852 q 257 852 238 837 q 219 821 200 791 l 200 791 l 126 865 q 155 920 193 946 q 231 972 286 972 l 286 972 q 326 972 354 960 q 381 948 402 935 q 424 921 442 909 q 460 897 482 897 l 482 897 q 507 897 526 913 q 545 929 564 958 l 564 958 z m 0 689 l 0 689 z "},"ö":{"ha":764,"x_min":0,"x_max":715,"o":"m 715 350 l 715 350 q 715 269 692 201 q 669 134 625 85 q 582 37 519 11 q 456 -16 375 -16 l 375 -16 q 298 -16 238 7 q 178 29 136 74 q 94 118 71 185 q 49 252 49 340 l 49 340 q 49 422 72 490 q 96 557 139 604 q 183 652 246 678 q 309 704 389 704 l 389 704 q 466 704 526 681 q 587 659 629 614 q 671 569 693 503 q 715 437 715 350 z m 543 346 l 543 346 q 543 453 502 507 q 462 561 383 561 l 383 561 q 340 561 309 544 q 279 527 259 497 q 239 468 230 429 q 221 389 221 345 l 221 345 q 221 237 264 182 q 308 127 383 127 l 383 127 q 425 127 455 144 q 486 161 505 190 q 524 220 533 260 q 543 300 543 346 z m 333 876 l 333 876 q 333 857 326 840 q 318 823 306 811 q 294 798 276 791 q 259 783 240 783 l 240 783 q 221 783 204 791 q 187 798 175 811 q 162 823 155 840 q 147 857 147 876 l 147 876 q 147 895 155 912 q 162 930 175 942 q 187 955 204 962 q 221 970 240 970 l 240 970 q 259 970 276 962 q 294 955 306 942 q 318 930 326 912 q 333 895 333 876 z m 616 876 l 616 876 q 616 857 609 840 q 602 823 589 811 q 576 798 559 791 q 543 783 524 783 l 524 783 q 504 783 487 791 q 471 798 458 811 q 445 823 438 840 q 431 857 431 876 l 431 876 q 431 895 438 912 q 445 930 458 942 q 471 955 487 962 q 504 970 524 970 l 524 970 q 543 970 559 962 q 576 955 589 942 q 602 930 609 912 q 616 895 616 876 z m 0 689 l 0 689 z "},"ō":{"ha":764,"x_min":0,"x_max":715,"o":"m 715 350 l 715 350 q 715 269 692 201 q 669 134 625 85 q 582 37 519 11 q 456 -16 375 -16 l 375 -16 q 298 -16 238 7 q 178 29 136 74 q 94 118 71 185 q 49 252 49 340 l 49 340 q 49 422 72 490 q 96 557 139 604 q 183 652 246 678 q 309 704 389 704 l 389 704 q 466 704 526 681 q 587 659 629 614 q 671 569 693 503 q 715 437 715 350 z m 543 346 l 543 346 q 543 453 502 507 q 462 561 383 561 l 383 561 q 340 561 309 544 q 279 527 259 497 q 239 468 230 429 q 221 389 221 345 l 221 345 q 221 237 264 182 q 308 127 383 127 l 383 127 q 425 127 455 144 q 486 161 505 190 q 524 220 533 260 q 543 300 543 346 z m 571 817 l 193 817 l 193 935 l 571 935 l 571 817 z m 0 689 l 0 689 z "},"ŏ":{"ha":764,"x_min":0,"x_max":715,"o":"m 715 350 l 715 350 q 715 269 692 201 q 669 134 625 85 q 582 37 519 11 q 456 -16 375 -16 l 375 -16 q 298 -16 238 7 q 178 29 136 74 q 94 118 71 185 q 49 252 49 340 l 49 340 q 49 422 72 490 q 96 557 139 604 q 183 652 246 678 q 309 704 389 704 l 389 704 q 466 704 526 681 q 587 659 629 614 q 671 569 693 503 q 715 437 715 350 z m 543 346 l 543 346 q 543 453 502 507 q 462 561 383 561 l 383 561 q 340 561 309 544 q 279 527 259 497 q 239 468 230 429 q 221 389 221 345 l 221 345 q 221 237 264 182 q 308 127 383 127 l 383 127 q 425 127 455 144 q 486 161 505 190 q 524 220 533 260 q 543 300 543 346 z m 454 958 l 577 958 q 577 920 564 885 q 550 851 525 826 q 499 800 463 786 q 426 771 380 771 l 380 771 q 334 771 298 786 q 262 801 237 827 q 212 852 199 886 q 186 920 186 958 l 186 958 l 309 958 q 309 943 314 930 q 319 917 329 907 q 338 897 352 891 q 365 885 381 885 l 381 885 q 412 885 433 904 q 454 922 454 958 l 454 958 z m 0 689 l 0 689 z "},"ő":{"ha":764,"x_min":0,"x_max":802,"o":"m 715 350 l 715 350 q 715 269 692 201 q 669 134 625 85 q 582 37 519 11 q 456 -16 375 -16 l 375 -16 q 298 -16 238 7 q 178 29 136 74 q 94 118 71 185 q 49 252 49 340 l 49 340 q 49 422 72 490 q 96 557 139 604 q 183 652 246 678 q 309 704 389 704 l 389 704 q 466 704 526 681 q 587 659 629 614 q 671 569 693 503 q 715 437 715 350 z m 543 346 l 543 346 q 543 453 502 507 q 462 561 383 561 l 383 561 q 340 561 309 544 q 279 527 259 497 q 239 468 230 429 q 221 389 221 345 l 221 345 q 221 237 264 182 q 308 127 383 127 l 383 127 q 425 127 455 144 q 486 161 505 190 q 524 220 533 260 q 543 300 543 346 z m 493 958 l 315 781 l 168 781 l 304 958 l 493 958 z m 802 958 l 586 781 l 436 781 l 596 958 l 802 958 z m 0 689 l 0 689 z "},"ø":{"ha":764,"x_min":49,"x_max":715,"o":"m 485 835 l 618 835 l 559 665 q 634 625 675 546 q 715 467 715 350 l 715 350 q 715 273 694 207 q 673 140 631 91 q 589 41 526 13 q 463 -16 378 -16 l 378 -16 q 364 -16 351 -15 q 338 -14 325 -12 l 325 -12 l 279 -146 l 146 -146 l 204 22 q 129 62 89 141 q 49 220 49 340 l 49 340 q 49 418 70 484 q 92 551 134 600 q 176 648 239 676 q 302 704 386 704 l 386 704 q 399 704 412 703 q 425 703 437 701 l 437 701 l 485 835 z m 212 345 l 212 345 q 212 287 223 244 q 234 201 256 172 l 256 172 l 392 569 l 379 569 q 336 569 305 551 q 273 534 252 503 q 231 472 222 431 q 212 391 212 345 z m 552 346 l 552 346 q 552 404 542 446 q 531 488 507 516 l 507 516 l 371 119 l 385 119 q 426 119 457 137 q 489 154 510 184 q 531 215 542 256 q 552 298 552 346 z "},"ǿ":{"ha":764,"x_min":-40,"x_max":715,"o":"m 485 835 l 618 835 l 559 665 q 634 625 675 546 q 715 467 715 350 l 715 350 q 715 273 694 207 q 673 140 631 91 q 589 41 526 13 q 463 -16 378 -16 l 378 -16 q 364 -16 351 -15 q 338 -14 325 -12 l 325 -12 l 279 -146 l 146 -146 l 204 22 q 129 62 89 141 q 49 220 49 340 l 49 340 q 49 418 70 484 q 92 551 134 600 q 176 648 239 676 q 302 704 386 704 l 386 704 q 399 704 412 703 q 425 703 437 701 l 437 701 l 485 835 z m 212 345 l 212 345 q 212 287 223 244 q 234 201 256 172 l 256 172 l 392 569 l 379 569 q 336 569 305 551 q 273 534 252 503 q 231 472 222 431 q 212 391 212 345 z m 552 346 l 552 346 q 552 404 542 446 q 531 488 507 516 l 507 516 l 371 119 l 385 119 q 426 119 457 137 q 489 154 510 184 q 531 215 542 256 q 552 298 552 346 z m 633 1023 l 424 871 l 258 871 l 410 1023 l 633 1023 z m -40 777 l -40 777 z "},"œ":{"ha":764,"x_min":20,"x_max":745,"o":"m 383 93 l 383 93 q 374 69 359 49 q 343 29 323 15 q 302 1 278 -7 q 254 -16 227 -16 l 227 -16 q 173 -16 134 4 q 95 23 70 65 q 44 107 32 175 q 20 242 20 338 l 20 338 q 20 419 33 487 q 45 554 72 603 q 99 651 140 677 q 181 704 237 704 l 237 704 q 290 704 331 679 q 372 653 393 599 l 393 599 q 415 649 454 676 q 492 704 543 704 l 543 704 q 596 704 634 682 q 673 660 697 619 q 722 578 733 522 q 745 465 745 396 l 745 396 q 745 388 744 376 q 744 365 744 353 q 743 340 743 328 q 743 316 742 307 l 742 307 l 454 307 q 454 259 463 221 q 472 183 488 156 q 503 130 526 115 q 548 101 575 101 l 575 101 q 606 101 644 109 q 682 117 720 132 l 720 132 l 720 16 q 684 1 639 -7 q 595 -16 553 -16 l 553 -16 q 525 -16 499 -9 q 473 -2 450 11 q 428 24 411 45 q 393 65 383 93 z m 315 346 l 315 346 q 315 412 311 458 q 306 504 296 533 q 286 562 271 574 q 256 587 235 587 l 235 587 q 215 587 200 574 q 185 560 174 531 q 163 502 158 456 q 153 410 153 345 l 153 345 q 153 277 157 231 q 162 184 172 156 q 182 127 197 114 q 213 101 235 101 l 235 101 q 254 101 269 114 q 283 127 294 157 q 304 186 310 233 q 315 279 315 346 z m 454 412 l 612 412 q 612 505 593 546 q 574 587 541 587 l 541 587 q 500 587 479 542 q 458 497 454 412 l 454 412 z "},"þ":{"ha":764,"x_min":94,"x_max":714,"o":"m 714 357 l 714 357 q 714 262 687 193 q 661 123 613 78 q 565 32 500 10 q 435 -12 358 -12 l 358 -12 q 332 -12 307 -9 q 281 -5 260 0 l 260 0 l 260 -269 l 94 -269 l 94 958 l 260 958 l 260 733 l 253 597 q 290 646 340 675 q 390 704 460 704 l 460 704 q 521 704 568 680 q 616 655 648 610 q 680 565 697 501 q 714 437 714 357 z m 541 350 l 541 350 q 541 407 532 447 q 524 487 509 513 q 494 538 472 550 q 450 562 421 562 l 421 562 q 379 562 341 528 q 302 494 260 436 l 260 436 l 260 135 q 279 127 308 123 q 337 118 367 118 l 367 118 q 406 118 438 134 q 471 151 493 180 q 516 210 528 253 q 541 296 541 350 z "},"ŕ":{"ha":764,"x_min":0,"x_max":706,"o":"m 704 421 l 538 421 q 539 460 534 487 q 529 514 518 532 q 507 549 490 557 q 474 566 453 566 l 453 566 q 416 566 377 535 q 338 505 292 436 l 292 436 l 292 0 l 122 0 l 122 689 l 272 689 l 278 589 q 295 615 316 636 q 338 657 364 672 q 390 688 422 696 q 454 704 492 704 l 492 704 q 544 704 584 686 q 625 668 652 633 q 680 597 693 544 q 706 491 704 421 l 704 421 z m 700 958 l 464 781 l 298 781 l 476 958 l 700 958 z m 0 689 l 0 689 z "},"ř":{"ha":764,"x_min":0,"x_max":706,"o":"m 704 421 l 538 421 q 539 460 534 487 q 529 514 518 532 q 507 549 490 557 q 474 566 453 566 l 453 566 q 416 566 377 535 q 338 505 292 436 l 292 436 l 292 0 l 122 0 l 122 689 l 272 689 l 278 589 q 295 615 316 636 q 338 657 364 672 q 390 688 422 696 q 454 704 492 704 l 492 704 q 544 704 584 686 q 625 668 652 633 q 680 597 693 544 q 706 491 704 421 l 704 421 z m 444 781 l 319 781 l 153 958 l 300 958 l 383 875 l 467 958 l 611 958 l 444 781 z m 0 689 l 0 689 z "},"ŗ":{"ha":764,"x_min":122,"x_max":706,"o":"m 704 421 l 538 421 q 539 460 534 487 q 529 514 518 532 q 507 549 490 557 q 474 566 453 566 l 453 566 q 416 566 377 535 q 338 505 292 436 l 292 436 l 292 0 l 122 0 l 122 689 l 272 689 l 278 589 q 295 615 316 636 q 338 657 364 672 q 390 688 422 696 q 454 704 492 704 l 492 704 q 544 704 584 686 q 625 668 652 633 q 680 597 693 544 q 706 491 704 421 l 704 421 z m 309 -78 l 463 -78 l 400 -278 l 269 -278 l 309 -78 z "},"ś":{"ha":764,"x_min":0,"x_max":700,"o":"m 663 203 l 663 203 q 663 144 636 102 q 610 60 567 34 q 524 8 470 -4 q 415 -16 358 -16 l 358 -16 q 282 -16 221 -8 q 160 -1 106 12 l 106 12 l 106 161 q 170 135 233 123 q 296 111 353 111 l 353 111 q 418 111 450 132 q 482 153 482 186 l 482 186 q 482 201 475 214 q 469 227 450 239 q 431 251 397 263 q 363 276 309 292 l 309 292 q 258 306 219 324 q 181 342 156 366 q 131 391 118 423 q 106 455 106 498 l 106 498 q 106 541 125 578 q 144 615 181 643 q 219 671 275 688 q 332 704 407 704 l 407 704 q 472 704 522 697 q 572 690 611 682 l 611 682 l 611 547 q 552 566 500 574 q 448 582 397 582 l 397 582 q 347 582 316 564 q 285 545 285 513 l 285 513 q 285 497 291 485 q 297 473 315 461 q 333 450 365 437 q 397 425 450 410 l 450 410 q 510 393 551 373 q 591 354 616 330 q 641 305 652 274 q 663 243 663 203 z m 700 958 l 464 781 l 298 781 l 476 958 l 700 958 z m 0 689 l 0 689 z "},"ŝ":{"ha":764,"x_min":0,"x_max":663,"o":"m 663 203 l 663 203 q 663 144 636 102 q 610 60 567 34 q 524 8 470 -4 q 415 -16 358 -16 l 358 -16 q 282 -16 221 -8 q 160 -1 106 12 l 106 12 l 106 161 q 170 135 233 123 q 296 111 353 111 l 353 111 q 418 111 450 132 q 482 153 482 186 l 482 186 q 482 201 475 214 q 469 227 450 239 q 431 251 397 263 q 363 276 309 292 l 309 292 q 258 306 219 324 q 181 342 156 366 q 131 391 118 423 q 106 455 106 498 l 106 498 q 106 541 125 578 q 144 615 181 643 q 219 671 275 688 q 332 704 407 704 l 407 704 q 472 704 522 697 q 572 690 611 682 l 611 682 l 611 547 q 552 566 500 574 q 448 582 397 582 l 397 582 q 347 582 316 564 q 285 545 285 513 l 285 513 q 285 497 291 485 q 297 473 315 461 q 333 450 365 437 q 397 425 450 410 l 450 410 q 510 393 551 373 q 591 354 616 330 q 641 305 652 274 q 663 243 663 203 z m 321 958 l 446 958 l 612 781 l 465 781 l 382 864 l 298 781 l 154 781 l 321 958 z m 0 689 l 0 689 z "},"š":{"ha":764,"x_min":0,"x_max":663,"o":"m 663 203 l 663 203 q 663 144 636 102 q 610 60 567 34 q 524 8 470 -4 q 415 -16 358 -16 l 358 -16 q 282 -16 221 -8 q 160 -1 106 12 l 106 12 l 106 161 q 170 135 233 123 q 296 111 353 111 l 353 111 q 418 111 450 132 q 482 153 482 186 l 482 186 q 482 201 475 214 q 469 227 450 239 q 431 251 397 263 q 363 276 309 292 l 309 292 q 258 306 219 324 q 181 342 156 366 q 131 391 118 423 q 106 455 106 498 l 106 498 q 106 541 125 578 q 144 615 181 643 q 219 671 275 688 q 332 704 407 704 l 407 704 q 472 704 522 697 q 572 690 611 682 l 611 682 l 611 547 q 552 566 500 574 q 448 582 397 582 l 397 582 q 347 582 316 564 q 285 545 285 513 l 285 513 q 285 497 291 485 q 297 473 315 461 q 333 450 365 437 q 397 425 450 410 l 450 410 q 510 393 551 373 q 591 354 616 330 q 641 305 652 274 q 663 243 663 203 z m 444 781 l 319 781 l 153 958 l 300 958 l 383 875 l 467 958 l 611 958 l 444 781 z m 0 689 l 0 689 z "},"ş":{"ha":764,"x_min":106,"x_max":663,"o":"m 663 203 l 663 203 q 663 158 647 123 q 632 89 606 63 q 579 38 544 21 q 508 5 467 -4 l 467 -4 l 395 -200 l 273 -200 l 312 -15 q 252 -13 202 -6 q 151 1 106 12 l 106 12 l 106 161 q 170 135 233 123 q 296 111 353 111 l 353 111 q 418 111 450 132 q 482 153 482 186 l 482 186 q 482 201 475 214 q 469 227 450 239 q 431 251 397 263 q 363 276 309 292 l 309 292 q 258 306 219 324 q 181 342 156 366 q 131 391 118 423 q 106 455 106 498 l 106 498 q 106 541 125 578 q 144 615 181 643 q 219 671 275 688 q 332 704 407 704 l 407 704 q 472 704 522 697 q 572 690 611 682 l 611 682 l 611 547 q 552 566 500 574 q 448 582 397 582 l 397 582 q 347 582 316 564 q 285 545 285 513 l 285 513 q 285 497 291 485 q 297 473 315 461 q 333 450 365 437 q 397 425 450 410 l 450 410 q 510 393 551 373 q 591 354 616 330 q 641 305 652 274 q 663 243 663 203 z "},"ș":{"ha":764,"x_min":106,"x_max":663,"o":"m 663 203 l 663 203 q 663 144 636 102 q 610 60 567 34 q 524 8 470 -4 q 415 -16 358 -16 l 358 -16 q 282 -16 221 -8 q 160 -1 106 12 l 106 12 l 106 161 q 170 135 233 123 q 296 111 353 111 l 353 111 q 418 111 450 132 q 482 153 482 186 l 482 186 q 482 201 475 214 q 469 227 450 239 q 431 251 397 263 q 363 276 309 292 l 309 292 q 258 306 219 324 q 181 342 156 366 q 131 391 118 423 q 106 455 106 498 l 106 498 q 106 541 125 578 q 144 615 181 643 q 219 671 275 688 q 332 704 407 704 l 407 704 q 472 704 522 697 q 572 690 611 682 l 611 682 l 611 547 q 552 566 500 574 q 448 582 397 582 l 397 582 q 347 582 316 564 q 285 545 285 513 l 285 513 q 285 497 291 485 q 297 473 315 461 q 333 450 365 437 q 397 425 450 410 l 450 410 q 510 393 551 373 q 591 354 616 330 q 641 305 652 274 q 663 243 663 203 z m 309 -78 l 463 -78 l 400 -278 l 269 -278 l 309 -78 z "},"ß":{"ha":764,"x_min":94,"x_max":728,"o":"m 728 200 l 728 200 q 728 151 709 112 q 690 73 656 46 q 622 18 574 4 q 526 -11 468 -11 l 468 -11 q 433 -11 399 -8 q 366 -5 342 0 l 342 0 l 342 135 q 367 127 398 123 q 429 118 458 118 l 458 118 q 486 118 505 123 q 524 128 534 137 q 545 146 550 158 q 554 170 554 183 l 554 183 q 554 211 538 232 q 523 254 499 273 q 475 293 448 313 q 420 334 397 360 q 373 386 357 419 q 342 453 342 500 l 342 500 q 342 534 353 560 q 364 586 381 607 q 397 627 417 644 q 436 661 453 679 q 469 696 480 716 q 492 736 492 762 l 492 762 q 492 783 483 798 q 475 813 460 824 q 445 834 425 839 q 404 844 380 844 l 380 844 q 321 844 291 808 q 260 772 260 697 l 260 697 l 260 0 l 94 0 l 94 692 q 94 764 117 816 q 139 869 179 903 q 218 938 272 955 q 326 971 389 971 l 389 971 q 448 971 497 958 q 547 944 583 919 q 618 893 638 857 q 659 820 659 774 l 659 774 q 659 733 648 704 q 637 675 621 654 q 604 633 585 616 q 566 600 549 585 q 533 570 522 552 q 511 535 511 511 l 511 511 q 511 486 527 466 q 543 446 567 428 q 591 410 620 390 q 648 370 672 344 q 696 318 712 283 q 728 248 728 200 z "},"ſ":{"ha":764,"x_min":178,"x_max":710,"o":"m 178 0 l 178 648 q 178 713 197 772 q 216 831 258 876 q 300 921 366 947 q 432 974 525 974 l 525 974 q 574 974 623 968 q 671 962 710 953 l 710 953 l 710 814 q 692 820 671 825 q 649 829 626 833 q 603 836 580 838 q 557 840 538 840 l 538 840 q 484 840 448 827 q 412 814 390 791 q 368 768 358 736 q 349 704 349 667 l 349 667 l 349 0 l 178 0 z "},"ť":{"ha":764,"x_min":-106,"x_max":751,"o":"m 663 139 l 663 7 q 618 -3 572 -9 q 527 -16 486 -16 l 486 -16 q 418 -16 369 -1 q 320 13 288 42 q 256 71 240 116 q 225 161 225 224 l 225 224 l 225 560 l 40 560 l 40 689 l 225 689 l 225 865 l 395 909 l 395 689 l 663 689 l 663 560 l 395 560 l 395 236 q 395 177 422 147 q 449 117 513 117 l 513 117 q 553 117 592 123 q 631 130 663 139 l 663 139 z m 751 1010 l 671 781 l 540 781 l 593 1010 l 751 1010 z m -106 689 l -106 689 z "},"ț":{"ha":764,"x_min":40,"x_max":663,"o":"m 663 139 l 663 7 q 618 -3 572 -9 q 527 -16 486 -16 l 486 -16 q 418 -16 369 -1 q 320 13 288 42 q 256 71 240 116 q 225 161 225 224 l 225 224 l 225 560 l 40 560 l 40 689 l 225 689 l 225 865 l 395 909 l 395 689 l 663 689 l 663 560 l 395 560 l 395 236 q 395 177 422 147 q 449 117 513 117 l 513 117 q 553 117 592 123 q 631 130 663 139 l 663 139 z m 309 -78 l 463 -78 l 400 -278 l 269 -278 l 309 -78 z "},"ŧ":{"ha":764,"x_min":0,"x_max":663,"o":"m 395 292 l 395 236 q 395 177 422 147 q 449 117 513 117 l 513 117 q 553 117 592 123 q 631 130 663 139 l 663 139 l 663 7 q 618 -3 572 -9 q 527 -16 486 -16 l 486 -16 q 418 -16 369 -1 q 320 13 288 42 q 256 71 240 116 q 225 161 225 224 l 225 224 l 225 292 l 68 292 l 68 421 l 225 421 l 225 560 l 40 560 l 40 689 l 225 689 l 225 865 l 395 909 l 395 689 l 663 689 l 663 560 l 395 560 l 395 421 l 621 421 l 621 292 l 395 292 z m 0 689 l 0 689 z "},"ù":{"ha":764,"x_min":0,"x_max":669,"o":"m 93 689 l 258 689 l 258 240 q 258 184 279 155 q 300 126 343 126 l 343 126 q 385 126 423 160 q 461 195 504 253 l 504 253 l 504 689 l 669 689 l 669 0 l 526 0 l 522 102 q 500 75 478 54 q 456 32 430 17 q 404 1 373 -7 q 342 -16 304 -16 l 304 -16 q 252 -16 212 2 q 172 19 146 51 q 119 83 106 127 q 93 172 93 227 l 93 227 l 93 689 z m 62 958 l 286 958 l 464 781 l 298 781 l 62 958 z m 0 689 l 0 689 z "},"ú":{"ha":764,"x_min":0,"x_max":700,"o":"m 93 689 l 258 689 l 258 240 q 258 184 279 155 q 300 126 343 126 l 343 126 q 385 126 423 160 q 461 195 504 253 l 504 253 l 504 689 l 669 689 l 669 0 l 526 0 l 522 102 q 500 75 478 54 q 456 32 430 17 q 404 1 373 -7 q 342 -16 304 -16 l 304 -16 q 252 -16 212 2 q 172 19 146 51 q 119 83 106 127 q 93 172 93 227 l 93 227 l 93 689 z m 700 958 l 464 781 l 298 781 l 476 958 l 700 958 z m 0 689 l 0 689 z "},"û":{"ha":764,"x_min":0,"x_max":669,"o":"m 93 689 l 258 689 l 258 240 q 258 184 279 155 q 300 126 343 126 l 343 126 q 385 126 423 160 q 461 195 504 253 l 504 253 l 504 689 l 669 689 l 669 0 l 526 0 l 522 102 q 500 75 478 54 q 456 32 430 17 q 404 1 373 -7 q 342 -16 304 -16 l 304 -16 q 252 -16 212 2 q 172 19 146 51 q 119 83 106 127 q 93 172 93 227 l 93 227 l 93 689 z m 321 958 l 446 958 l 612 781 l 465 781 l 382 864 l 298 781 l 154 781 l 321 958 z m 0 689 l 0 689 z "},"ũ":{"ha":764,"x_min":0,"x_max":669,"o":"m 93 689 l 258 689 l 258 240 q 258 184 279 155 q 300 126 343 126 l 343 126 q 385 126 423 160 q 461 195 504 253 l 504 253 l 504 689 l 669 689 l 669 0 l 526 0 l 522 102 q 500 75 478 54 q 456 32 430 17 q 404 1 373 -7 q 342 -16 304 -16 l 304 -16 q 252 -16 212 2 q 172 19 146 51 q 119 83 106 127 q 93 172 93 227 l 93 227 l 93 689 z m 564 958 l 637 885 q 609 830 571 804 q 533 778 478 778 l 478 778 q 438 778 411 789 q 383 801 362 815 q 340 829 322 841 q 304 852 282 852 l 282 852 q 257 852 238 837 q 219 821 200 791 l 200 791 l 126 865 q 155 920 193 946 q 231 972 286 972 l 286 972 q 326 972 354 960 q 381 948 402 935 q 424 921 442 909 q 460 897 482 897 l 482 897 q 507 897 526 913 q 545 929 564 958 l 564 958 z m 0 689 l 0 689 z "},"ü":{"ha":764,"x_min":0,"x_max":669,"o":"m 93 689 l 258 689 l 258 240 q 258 184 279 155 q 300 126 343 126 l 343 126 q 385 126 423 160 q 461 195 504 253 l 504 253 l 504 689 l 669 689 l 669 0 l 526 0 l 522 102 q 500 75 478 54 q 456 32 430 17 q 404 1 373 -7 q 342 -16 304 -16 l 304 -16 q 252 -16 212 2 q 172 19 146 51 q 119 83 106 127 q 93 172 93 227 l 93 227 l 93 689 z m 333 876 l 333 876 q 333 857 326 840 q 318 823 306 811 q 294 798 276 791 q 259 783 240 783 l 240 783 q 221 783 204 791 q 187 798 175 811 q 162 823 155 840 q 147 857 147 876 l 147 876 q 147 895 155 912 q 162 930 175 942 q 187 955 204 962 q 221 970 240 970 l 240 970 q 259 970 276 962 q 294 955 306 942 q 318 930 326 912 q 333 895 333 876 z m 616 876 l 616 876 q 616 857 609 840 q 602 823 589 811 q 576 798 559 791 q 543 783 524 783 l 524 783 q 504 783 487 791 q 471 798 458 811 q 445 823 438 840 q 431 857 431 876 l 431 876 q 431 895 438 912 q 445 930 458 942 q 471 955 487 962 q 504 970 524 970 l 524 970 q 543 970 559 962 q 576 955 589 942 q 602 930 609 912 q 616 895 616 876 z m 0 689 l 0 689 z "},"ū":{"ha":764,"x_min":0,"x_max":669,"o":"m 93 689 l 258 689 l 258 240 q 258 184 279 155 q 300 126 343 126 l 343 126 q 385 126 423 160 q 461 195 504 253 l 504 253 l 504 689 l 669 689 l 669 0 l 526 0 l 522 102 q 500 75 478 54 q 456 32 430 17 q 404 1 373 -7 q 342 -16 304 -16 l 304 -16 q 252 -16 212 2 q 172 19 146 51 q 119 83 106 127 q 93 172 93 227 l 93 227 l 93 689 z m 571 817 l 193 817 l 193 935 l 571 935 l 571 817 z m 0 689 l 0 689 z "},"ŭ":{"ha":764,"x_min":0,"x_max":669,"o":"m 93 689 l 258 689 l 258 240 q 258 184 279 155 q 300 126 343 126 l 343 126 q 385 126 423 160 q 461 195 504 253 l 504 253 l 504 689 l 669 689 l 669 0 l 526 0 l 522 102 q 500 75 478 54 q 456 32 430 17 q 404 1 373 -7 q 342 -16 304 -16 l 304 -16 q 252 -16 212 2 q 172 19 146 51 q 119 83 106 127 q 93 172 93 227 l 93 227 l 93 689 z m 454 958 l 577 958 q 577 920 564 885 q 550 851 525 826 q 499 800 463 786 q 426 771 380 771 l 380 771 q 334 771 298 786 q 262 801 237 827 q 212 852 199 886 q 186 920 186 958 l 186 958 l 309 958 q 309 943 314 930 q 319 917 329 907 q 338 897 352 891 q 365 885 381 885 l 381 885 q 412 885 433 904 q 454 922 454 958 l 454 958 z m 0 689 l 0 689 z "},"ů":{"ha":764,"x_min":0,"x_max":669,"o":"m 93 689 l 258 689 l 258 240 q 258 184 279 155 q 300 126 343 126 l 343 126 q 385 126 423 160 q 461 195 504 253 l 504 253 l 504 689 l 669 689 l 669 0 l 526 0 l 522 102 q 500 75 478 54 q 456 32 430 17 q 404 1 373 -7 q 342 -16 304 -16 l 304 -16 q 252 -16 212 2 q 172 19 146 51 q 119 83 106 127 q 93 172 93 227 l 93 227 l 93 689 z m 545 899 l 545 899 q 545 866 532 838 q 519 809 496 788 q 474 767 445 755 q 415 743 382 743 l 382 743 q 349 743 319 755 q 290 766 267 787 q 245 808 232 836 q 219 864 219 898 l 219 898 q 219 932 232 960 q 245 989 267 1009 q 290 1029 319 1041 q 349 1053 382 1053 l 382 1053 q 416 1053 445 1041 q 475 1029 497 1009 q 519 989 532 961 q 545 932 545 899 z m 446 898 l 446 898 q 446 925 427 943 q 409 962 382 962 l 382 962 q 355 962 336 943 q 318 925 318 898 l 318 898 q 318 871 336 852 q 355 834 382 834 l 382 834 q 409 834 427 852 q 446 871 446 898 z m 0 689 l 0 689 z "},"ű":{"ha":764,"x_min":0,"x_max":802,"o":"m 93 689 l 258 689 l 258 240 q 258 184 279 155 q 300 126 343 126 l 343 126 q 385 126 423 160 q 461 195 504 253 l 504 253 l 504 689 l 669 689 l 669 0 l 526 0 l 522 102 q 500 75 478 54 q 456 32 430 17 q 404 1 373 -7 q 342 -16 304 -16 l 304 -16 q 252 -16 212 2 q 172 19 146 51 q 119 83 106 127 q 93 172 93 227 l 93 227 l 93 689 z m 493 958 l 315 781 l 168 781 l 304 958 l 493 958 z m 802 958 l 586 781 l 436 781 l 596 958 l 802 958 z m 0 689 l 0 689 z "},"ų":{"ha":764,"x_min":93,"x_max":696,"o":"m 696 -161 l 696 -261 q 674 -267 647 -271 q 620 -275 599 -275 l 599 -275 q 555 -275 526 -266 q 496 -256 477 -240 q 459 -224 451 -202 q 443 -180 443 -154 l 443 -154 q 443 -136 447 -118 q 450 -100 460 -81 q 469 -62 485 -42 q 501 -22 526 0 l 526 0 l 522 102 q 500 75 478 54 q 456 32 430 17 q 404 1 373 -7 q 342 -16 304 -16 l 304 -16 q 252 -16 212 2 q 172 19 146 51 q 119 83 106 127 q 93 172 93 227 l 93 227 l 93 689 l 258 689 l 258 240 q 258 184 279 155 q 300 126 343 126 l 343 126 q 385 126 423 160 q 461 195 504 253 l 504 253 l 504 689 l 669 689 l 669 0 q 644 -26 629 -44 q 614 -63 606 -77 q 597 -92 595 -103 q 593 -115 593 -125 l 593 -125 q 593 -146 604 -156 q 615 -167 646 -167 l 646 -167 q 656 -167 671 -165 q 685 -163 696 -161 l 696 -161 z "},"ẁ":{"ha":764,"x_min":0,"x_max":757,"o":"m 757 689 l 660 0 l 476 0 l 403 218 l 380 294 l 358 216 l 288 0 l 103 0 l 5 689 l 163 689 l 212 300 l 224 193 l 252 289 l 321 498 l 447 498 l 521 290 l 553 192 l 566 301 l 607 689 l 757 689 z m 62 958 l 286 958 l 464 781 l 298 781 l 62 958 z m 0 689 l 0 689 z "},"ẃ":{"ha":764,"x_min":0,"x_max":757,"o":"m 757 689 l 660 0 l 476 0 l 403 218 l 380 294 l 358 216 l 288 0 l 103 0 l 5 689 l 163 689 l 212 300 l 224 193 l 252 289 l 321 498 l 447 498 l 521 290 l 553 192 l 566 301 l 607 689 l 757 689 z m 700 958 l 464 781 l 298 781 l 476 958 l 700 958 z m 0 689 l 0 689 z "},"ŵ":{"ha":764,"x_min":0,"x_max":757,"o":"m 757 689 l 660 0 l 476 0 l 403 218 l 380 294 l 358 216 l 288 0 l 103 0 l 5 689 l 163 689 l 212 300 l 224 193 l 252 289 l 321 498 l 447 498 l 521 290 l 553 192 l 566 301 l 607 689 l 757 689 z m 321 958 l 446 958 l 612 781 l 465 781 l 382 864 l 298 781 l 154 781 l 321 958 z m 0 689 l 0 689 z "},"ẅ":{"ha":764,"x_min":0,"x_max":757,"o":"m 757 689 l 660 0 l 476 0 l 403 218 l 380 294 l 358 216 l 288 0 l 103 0 l 5 689 l 163 689 l 212 300 l 224 193 l 252 289 l 321 498 l 447 498 l 521 290 l 553 192 l 566 301 l 607 689 l 757 689 z m 333 876 l 333 876 q 333 857 326 840 q 318 823 306 811 q 294 798 276 791 q 259 783 240 783 l 240 783 q 221 783 204 791 q 187 798 175 811 q 162 823 155 840 q 147 857 147 876 l 147 876 q 147 895 155 912 q 162 930 175 942 q 187 955 204 962 q 221 970 240 970 l 240 970 q 259 970 276 962 q 294 955 306 942 q 318 930 326 912 q 333 895 333 876 z m 616 876 l 616 876 q 616 857 609 840 q 602 823 589 811 q 576 798 559 791 q 543 783 524 783 l 524 783 q 504 783 487 791 q 471 798 458 811 q 445 823 438 840 q 431 857 431 876 l 431 876 q 431 895 438 912 q 445 930 458 942 q 471 955 487 962 q 504 970 524 970 l 524 970 q 543 970 559 962 q 576 955 589 942 q 602 930 609 912 q 616 895 616 876 z m 0 689 l 0 689 z "},"ỳ":{"ha":764,"x_min":0,"x_max":750,"o":"m 750 689 l 509 75 q 473 -14 434 -82 q 395 -149 348 -194 q 301 -239 244 -262 q 186 -285 115 -285 l 115 -285 q 98 -285 78 -283 q 58 -281 37 -278 l 37 -278 l 37 -138 q 45 -139 56 -141 q 66 -142 78 -143 q 90 -144 101 -145 q 113 -146 123 -146 l 123 -146 q 152 -146 176 -135 q 201 -124 221 -105 q 242 -85 259 -59 q 276 -32 289 0 l 289 0 l 16 689 l 200 689 l 343 298 l 386 172 l 428 293 l 572 689 l 750 689 z m 62 958 l 286 958 l 464 781 l 298 781 l 62 958 z m 0 689 l 0 689 z "},"ý":{"ha":764,"x_min":0,"x_max":750,"o":"m 750 689 l 509 75 q 473 -14 434 -82 q 395 -149 348 -194 q 301 -239 244 -262 q 186 -285 115 -285 l 115 -285 q 98 -285 78 -283 q 58 -281 37 -278 l 37 -278 l 37 -138 q 45 -139 56 -141 q 66 -142 78 -143 q 90 -144 101 -145 q 113 -146 123 -146 l 123 -146 q 152 -146 176 -135 q 201 -124 221 -105 q 242 -85 259 -59 q 276 -32 289 0 l 289 0 l 16 689 l 200 689 l 343 298 l 386 172 l 428 293 l 572 689 l 750 689 z m 700 958 l 464 781 l 298 781 l 476 958 l 700 958 z m 0 689 l 0 689 z "},"ŷ":{"ha":764,"x_min":0,"x_max":750,"o":"m 750 689 l 509 75 q 473 -14 434 -82 q 395 -149 348 -194 q 301 -239 244 -262 q 186 -285 115 -285 l 115 -285 q 98 -285 78 -283 q 58 -281 37 -278 l 37 -278 l 37 -138 q 45 -139 56 -141 q 66 -142 78 -143 q 90 -144 101 -145 q 113 -146 123 -146 l 123 -146 q 152 -146 176 -135 q 201 -124 221 -105 q 242 -85 259 -59 q 276 -32 289 0 l 289 0 l 16 689 l 200 689 l 343 298 l 386 172 l 428 293 l 572 689 l 750 689 z m 321 958 l 446 958 l 612 781 l 465 781 l 382 864 l 298 781 l 154 781 l 321 958 z m 0 689 l 0 689 z "},"ÿ":{"ha":764,"x_min":0,"x_max":750,"o":"m 750 689 l 509 75 q 473 -14 434 -82 q 395 -149 348 -194 q 301 -239 244 -262 q 186 -285 115 -285 l 115 -285 q 98 -285 78 -283 q 58 -281 37 -278 l 37 -278 l 37 -138 q 45 -139 56 -141 q 66 -142 78 -143 q 90 -144 101 -145 q 113 -146 123 -146 l 123 -146 q 152 -146 176 -135 q 201 -124 221 -105 q 242 -85 259 -59 q 276 -32 289 0 l 289 0 l 16 689 l 200 689 l 343 298 l 386 172 l 428 293 l 572 689 l 750 689 z m 333 876 l 333 876 q 333 857 326 840 q 318 823 306 811 q 294 798 276 791 q 259 783 240 783 l 240 783 q 221 783 204 791 q 187 798 175 811 q 162 823 155 840 q 147 857 147 876 l 147 876 q 147 895 155 912 q 162 930 175 942 q 187 955 204 962 q 221 970 240 970 l 240 970 q 259 970 276 962 q 294 955 306 942 q 318 930 326 912 q 333 895 333 876 z m 616 876 l 616 876 q 616 857 609 840 q 602 823 589 811 q 576 798 559 791 q 543 783 524 783 l 524 783 q 504 783 487 791 q 471 798 458 811 q 445 823 438 840 q 431 857 431 876 l 431 876 q 431 895 438 912 q 445 930 458 942 q 471 955 487 962 q 504 970 524 970 l 524 970 q 543 970 559 962 q 576 955 589 942 q 602 930 609 912 q 616 895 616 876 z m 0 689 l 0 689 z "},"ź":{"ha":764,"x_min":0,"x_max":700,"o":"m 663 0 l 102 0 l 102 115 l 439 547 l 110 547 l 110 689 l 657 689 l 657 572 l 328 146 l 663 146 l 663 0 z m 700 958 l 464 781 l 298 781 l 476 958 l 700 958 z m 0 689 l 0 689 z "},"ž":{"ha":764,"x_min":0,"x_max":663,"o":"m 663 0 l 102 0 l 102 115 l 439 547 l 110 547 l 110 689 l 657 689 l 657 572 l 328 146 l 663 146 l 663 0 z m 444 781 l 319 781 l 153 958 l 300 958 l 383 875 l 467 958 l 611 958 l 444 781 z m 0 689 l 0 689 z "},"ż":{"ha":764,"x_min":0,"x_max":663,"o":"m 663 0 l 102 0 l 102 115 l 439 547 l 110 547 l 110 689 l 657 689 l 657 572 l 328 146 l 663 146 l 663 0 z m 489 878 l 489 878 q 489 856 481 837 q 473 819 458 804 q 444 790 425 782 q 405 774 382 774 l 382 774 q 360 774 341 782 q 321 790 307 804 q 293 819 285 837 q 277 856 277 878 l 277 878 q 277 899 285 918 q 293 937 307 951 q 321 966 341 974 q 360 982 382 982 l 382 982 q 404 982 423 974 q 443 966 457 951 q 472 937 480 918 q 489 899 489 878 z m 0 689 l 0 689 z "},"&":{"ha":764,"x_min":21,"x_max":783,"o":"m 554 463 l 708 463 q 708 376 690 304 q 673 233 639 175 l 639 175 l 783 0 l 587 0 l 539 58 q 493 22 437 3 q 380 -16 317 -16 l 317 -16 q 246 -16 191 2 q 136 20 98 54 q 60 87 41 134 q 21 181 21 239 l 21 239 q 21 288 34 327 q 47 366 68 398 q 90 429 119 454 q 147 479 179 500 l 179 500 l 165 518 q 127 565 107 614 q 86 663 86 710 l 86 710 q 86 758 103 801 q 120 845 153 879 q 186 912 234 932 q 282 953 345 953 l 345 953 q 404 953 450 936 q 496 920 528 891 q 559 863 576 825 q 593 787 593 745 l 593 745 q 593 692 575 652 q 557 612 529 582 q 500 552 463 529 q 426 505 387 484 l 387 484 l 536 300 q 546 334 551 375 q 555 416 554 463 l 554 463 z m 184 253 l 184 253 q 184 223 195 198 q 205 174 223 156 q 242 138 269 128 q 295 118 328 118 l 328 118 q 363 118 396 129 q 428 140 454 163 l 454 163 l 260 401 q 226 373 205 338 q 184 303 184 253 z m 436 730 l 436 730 q 436 748 430 765 q 423 783 411 796 q 399 809 381 817 q 363 825 340 825 l 340 825 q 317 825 299 817 q 281 808 268 794 q 256 780 249 761 q 243 742 243 721 l 243 721 q 243 684 260 651 q 278 618 309 581 l 309 581 l 310 578 q 336 593 359 609 q 382 625 399 644 q 416 662 426 683 q 436 705 436 730 z "},"`":{"ha":764,"x_min":0,"x_max":464,"o":"m 62 958 l 286 958 l 464 781 l 298 781 l 62 958 z m 0 689 l 0 689 z "},"´":{"ha":764,"x_min":0,"x_max":700,"o":"m 700 958 l 464 781 l 298 781 l 476 958 l 700 958 z m 0 689 l 0 689 z "},"ˆ":{"ha":764,"x_min":0,"x_max":612,"o":"m 321 958 l 446 958 l 612 781 l 465 781 l 382 864 l 298 781 l 154 781 l 321 958 z m 0 689 l 0 689 z "},"ˇ":{"ha":764,"x_min":0,"x_max":611,"o":"m 444 781 l 319 781 l 153 958 l 300 958 l 383 875 l 467 958 l 611 958 l 444 781 z m 0 689 l 0 689 z "},"̕":{"ha":764,"x_min":0,"x_max":857,"o":"m 857 1010 l 777 781 l 646 781 l 699 1010 l 857 1010 z m 0 689 l 0 689 z "},"˜":{"ha":764,"x_min":0,"x_max":637,"o":"m 564 958 l 637 885 q 609 830 571 804 q 533 778 478 778 l 478 778 q 438 778 411 789 q 383 801 362 815 q 340 829 322 841 q 304 852 282 852 l 282 852 q 257 852 238 837 q 219 821 200 791 l 200 791 l 126 865 q 155 920 193 946 q 231 972 286 972 l 286 972 q 326 972 354 960 q 381 948 402 935 q 424 921 442 909 q 460 897 482 897 l 482 897 q 507 897 526 913 q 545 929 564 958 l 564 958 z m 0 689 l 0 689 z "},"¨":{"ha":764,"x_min":0,"x_max":616,"o":"m 333 876 l 333 876 q 333 857 326 840 q 318 823 306 811 q 294 798 276 791 q 259 783 240 783 l 240 783 q 221 783 204 791 q 187 798 175 811 q 162 823 155 840 q 147 857 147 876 l 147 876 q 147 895 155 912 q 162 930 175 942 q 187 955 204 962 q 221 970 240 970 l 240 970 q 259 970 276 962 q 294 955 306 942 q 318 930 326 912 q 333 895 333 876 z m 616 876 l 616 876 q 616 857 609 840 q 602 823 589 811 q 576 798 559 791 q 543 783 524 783 l 524 783 q 504 783 487 791 q 471 798 458 811 q 445 823 438 840 q 431 857 431 876 l 431 876 q 431 895 438 912 q 445 930 458 942 q 471 955 487 962 q 504 970 524 970 l 524 970 q 543 970 559 962 q 576 955 589 942 q 602 930 609 912 q 616 895 616 876 z m 0 689 l 0 689 z "},"¯":{"ha":764,"x_min":0,"x_max":571,"o":"m 571 817 l 193 817 l 193 935 l 571 935 l 571 817 z m 0 689 l 0 689 z "},"˘":{"ha":764,"x_min":0,"x_max":577,"o":"m 454 958 l 577 958 q 577 920 564 885 q 550 851 525 826 q 499 800 463 786 q 426 771 380 771 l 380 771 q 334 771 298 786 q 262 801 237 827 q 212 852 199 886 q 186 920 186 958 l 186 958 l 309 958 q 309 943 314 930 q 319 917 329 907 q 338 897 352 891 q 365 885 381 885 l 381 885 q 412 885 433 904 q 454 922 454 958 l 454 958 z m 0 689 l 0 689 z "},"˚":{"ha":764,"x_min":0,"x_max":545,"o":"m 545 899 l 545 899 q 545 866 532 838 q 519 809 496 788 q 474 767 445 755 q 415 743 382 743 l 382 743 q 349 743 319 755 q 290 766 267 787 q 245 808 232 836 q 219 864 219 898 l 219 898 q 219 932 232 960 q 245 989 267 1009 q 290 1029 319 1041 q 349 1053 382 1053 l 382 1053 q 416 1053 445 1041 q 475 1029 497 1009 q 519 989 532 961 q 545 932 545 899 z m 446 898 l 446 898 q 446 925 427 943 q 409 962 382 962 l 382 962 q 355 962 336 943 q 318 925 318 898 l 318 898 q 318 871 336 852 q 355 834 382 834 l 382 834 q 409 834 427 852 q 446 871 446 898 z m 0 689 l 0 689 z "},"˝":{"ha":764,"x_min":0,"x_max":802,"o":"m 493 958 l 315 781 l 168 781 l 304 958 l 493 958 z m 802 958 l 586 781 l 436 781 l 596 958 l 802 958 z m 0 689 l 0 689 z "},"˙":{"ha":764,"x_min":0,"x_max":489,"o":"m 489 878 l 489 878 q 489 856 481 837 q 473 819 458 804 q 444 790 425 782 q 405 774 382 774 l 382 774 q 360 774 341 782 q 321 790 307 804 q 293 819 285 837 q 277 856 277 878 l 277 878 q 277 899 285 918 q 293 937 307 951 q 321 966 341 974 q 360 982 382 982 l 382 982 q 404 982 423 974 q 443 966 457 951 q 472 937 480 918 q 489 899 489 878 z m 0 689 l 0 689 z "},"¸":{"ha":764,"x_min":285,"x_max":481,"o":"m 481 0 l 406 -200 l 285 -200 l 326 0 l 481 0 z "},"˛":{"ha":764,"x_min":439,"x_max":692,"o":"m 692 -161 l 692 -261 q 670 -267 643 -271 q 616 -275 595 -275 l 595 -275 q 551 -275 522 -266 q 492 -256 473 -240 q 455 -224 447 -202 q 439 -180 439 -154 l 439 -154 q 439 -136 443 -118 q 446 -100 456 -81 q 465 -62 481 -42 q 497 -22 522 0 l 522 0 l 665 0 q 640 -26 625 -44 q 610 -63 602 -77 q 593 -92 591 -103 q 589 -115 589 -125 l 589 -125 q 589 -146 600 -156 q 611 -167 642 -167 l 642 -167 q 652 -167 667 -165 q 681 -163 692 -161 l 692 -161 z "},"̦":{"ha":764,"x_min":269,"x_max":463,"o":"m 309 -78 l 463 -78 l 400 -278 l 269 -278 l 309 -78 z "},"̒":{"ha":764,"x_min":0,"x_max":507,"o":"m 458 794 l 304 794 l 376 994 l 507 994 l 458 794 z m 0 689 l 0 689 z "},",":{"ha":764,"x_min":143,"x_max":511,"o":"m 143 -239 l 143 -131 q 184 -132 219 -126 q 254 -120 280 -107 q 307 -94 321 -73 q 336 -53 336 -25 l 336 -25 q 336 -5 331 8 q 325 22 316 34 q 307 45 297 55 q 288 66 279 78 q 270 90 264 105 q 258 120 258 142 l 258 142 q 258 163 266 183 q 273 203 288 218 q 302 234 322 243 q 343 253 370 253 l 370 253 q 403 253 429 238 q 456 222 474 196 q 492 170 502 137 q 511 103 511 66 l 511 66 q 511 3 488 -52 q 465 -108 419 -149 q 373 -191 304 -215 q 235 -239 143 -239 l 143 -239 z "},";":{"ha":764,"x_min":151,"x_max":519,"o":"m 151 -239 l 151 -131 q 192 -132 227 -126 q 262 -120 289 -107 q 315 -94 330 -73 q 345 -53 345 -25 l 345 -25 q 345 -5 339 8 q 333 22 324 34 q 315 45 306 55 q 296 66 287 78 q 278 90 272 105 q 267 120 267 142 l 267 142 q 267 163 274 183 q 281 203 296 218 q 310 234 331 243 q 351 253 378 253 l 378 253 q 411 253 437 238 q 464 222 482 196 q 500 170 510 137 q 519 103 519 66 l 519 66 q 519 3 496 -52 q 473 -108 428 -149 q 382 -191 313 -215 q 243 -239 151 -239 l 151 -239 z m 382 696 l 382 696 q 408 696 430 686 q 452 677 469 660 q 485 644 494 621 q 504 599 504 574 l 504 574 q 504 548 494 526 q 485 503 469 487 q 452 471 430 461 q 408 452 382 452 l 382 452 q 356 452 334 461 q 312 471 295 487 q 279 503 269 526 q 260 548 260 574 l 260 574 q 260 599 269 621 q 279 644 295 660 q 312 677 334 686 q 356 696 382 696 z "},":":{"ha":764,"x_min":260,"x_max":504,"o":"m 382 696 l 382 696 q 408 696 430 686 q 452 677 469 660 q 485 644 494 621 q 504 599 504 574 l 504 574 q 504 548 494 526 q 485 503 469 487 q 452 471 430 461 q 408 452 382 452 l 382 452 q 356 452 334 461 q 312 471 295 487 q 279 503 269 526 q 260 548 260 574 l 260 574 q 260 599 269 621 q 279 644 295 660 q 312 677 334 686 q 356 696 382 696 z m 382 229 l 382 229 q 408 229 430 219 q 452 210 469 193 q 485 177 494 155 q 504 132 504 107 l 504 107 q 504 81 494 59 q 485 37 469 20 q 452 3 430 -6 q 408 -16 382 -16 l 382 -16 q 356 -16 334 -6 q 312 3 295 20 q 279 37 269 59 q 260 81 260 107 l 260 107 q 260 132 269 155 q 279 177 295 193 q 312 210 334 219 q 356 229 382 229 z "},".":{"ha":764,"x_min":248,"x_max":511,"o":"m 378 250 l 378 250 q 406 250 431 240 q 455 229 473 211 q 491 193 501 169 q 511 144 511 117 l 511 117 q 511 90 501 65 q 491 41 473 23 q 455 5 431 -5 q 406 -16 378 -16 l 378 -16 q 351 -16 327 -5 q 303 5 286 23 q 268 41 258 65 q 248 90 248 117 l 248 117 q 248 144 258 169 q 268 193 286 211 q 303 229 327 240 q 351 250 378 250 z "},"…":{"ha":764,"x_min":24,"x_max":745,"o":"m 222 87 l 222 87 q 222 66 214 47 q 206 28 192 15 q 178 1 160 -7 q 142 -16 121 -16 l 121 -16 q 101 -16 83 -7 q 66 1 53 15 q 39 28 32 47 q 24 66 24 87 l 24 87 q 24 108 32 126 q 39 144 53 158 q 66 172 83 179 q 101 187 121 187 l 121 187 q 142 187 160 179 q 178 172 192 158 q 206 144 214 126 q 222 108 222 87 z m 484 87 l 484 87 q 484 66 475 47 q 467 28 453 15 q 439 1 421 -7 q 403 -16 382 -16 l 382 -16 q 362 -16 345 -7 q 327 1 314 15 q 300 28 293 47 q 285 66 285 87 l 285 87 q 285 108 293 126 q 300 144 314 158 q 327 172 345 179 q 362 187 382 187 l 382 187 q 403 187 421 179 q 439 172 453 158 q 467 144 475 126 q 484 108 484 87 z m 745 87 l 745 87 q 745 66 736 47 q 728 28 714 15 q 701 1 682 -7 q 664 -16 643 -16 l 643 -16 q 623 -16 606 -7 q 588 1 575 15 q 562 28 554 47 q 546 66 546 87 l 546 87 q 546 108 554 126 q 562 144 575 158 q 588 172 606 179 q 623 187 643 187 l 643 187 q 664 187 682 179 q 701 172 714 158 q 728 144 736 126 q 745 108 745 87 z "},"-":{"ha":764,"x_min":171,"x_max":593,"o":"m 593 296 l 171 296 l 171 443 l 593 443 l 593 296 z "},"!":{"ha":764,"x_min":277,"x_max":488,"o":"m 478 958 l 453 275 l 311 275 l 286 958 l 478 958 z m 382 196 l 382 196 q 404 196 423 188 q 442 180 456 165 q 471 151 479 132 q 488 113 488 90 l 488 90 q 488 68 479 48 q 471 29 456 15 q 442 1 423 -7 q 404 -16 382 -16 l 382 -16 q 360 -16 341 -7 q 321 1 307 15 q 293 29 285 48 q 277 68 277 90 l 277 90 q 277 113 285 132 q 293 151 307 165 q 321 180 341 188 q 360 196 382 196 z "},"¡":{"ha":764,"x_min":277,"x_max":488,"o":"m 286 -269 l 311 414 l 453 414 l 478 -269 l 286 -269 z m 382 493 l 382 493 q 360 493 341 501 q 321 509 307 524 q 293 538 285 557 q 277 576 277 599 l 277 599 q 277 621 285 641 q 293 660 307 674 q 321 688 341 696 q 360 704 382 704 l 382 704 q 404 704 423 696 q 442 688 456 674 q 471 660 479 641 q 488 621 488 599 l 488 599 q 488 576 479 557 q 471 538 456 524 q 442 509 423 501 q 404 493 382 493 z "},"?":{"ha":764,"x_min":191,"x_max":654,"o":"m 654 664 l 654 664 q 654 607 637 562 q 620 517 588 484 q 555 451 510 431 q 465 410 408 403 l 408 403 l 401 275 l 260 275 l 248 530 l 346 530 q 379 530 403 540 q 427 549 443 566 q 458 582 465 603 q 472 625 472 648 l 472 648 q 472 681 458 709 q 444 737 415 759 q 385 780 340 792 q 294 804 231 804 l 231 804 l 191 804 l 191 958 l 237 958 q 342 958 420 933 q 498 909 550 868 q 602 827 628 774 q 654 721 654 664 z m 443 93 l 443 93 q 443 71 434 51 q 425 31 410 16 q 395 1 375 -7 q 355 -16 332 -16 l 332 -16 q 309 -16 289 -7 q 269 1 254 16 q 239 31 230 51 q 221 71 221 93 l 221 93 q 221 115 230 135 q 239 155 254 170 q 269 184 289 193 q 309 201 332 201 l 332 201 q 355 201 375 193 q 395 184 410 170 q 425 155 434 135 q 443 115 443 93 z "},"¿":{"ha":764,"x_min":110,"x_max":574,"o":"m 110 25 l 110 25 q 110 82 127 127 q 144 172 176 205 q 208 238 254 258 q 299 279 355 286 l 355 286 l 363 414 l 504 414 l 517 158 l 418 158 q 385 158 360 149 q 336 139 321 123 q 306 107 299 86 q 292 64 292 40 l 292 40 q 292 7 306 -21 q 319 -49 349 -70 q 378 -91 424 -103 q 470 -115 533 -115 l 533 -115 l 574 -115 l 574 -269 l 526 -269 q 422 -269 344 -244 q 266 -220 214 -179 q 162 -138 136 -85 q 110 -32 110 25 z m 321 596 l 321 596 q 321 618 330 638 q 338 658 354 672 q 369 687 389 695 q 409 704 432 704 l 432 704 q 455 704 475 695 q 495 687 510 672 q 526 658 534 638 q 543 618 543 596 l 543 596 q 543 574 534 554 q 526 534 510 519 q 495 505 475 496 q 455 488 432 488 l 432 488 q 409 488 389 496 q 369 505 354 519 q 338 534 330 554 q 321 574 321 596 z "},"‽":{"ha":764,"x_min":124,"x_max":656,"o":"m 371 397 l 366 275 l 224 275 l 208 804 q 187 804 164 804 l 164 804 l 124 804 l 124 953 l 171 953 q 187 953 204 952 l 204 952 l 199 1087 l 391 1087 l 387 940 q 429 935 475 916 q 522 897 563 864 q 604 830 630 777 q 656 724 656 665 l 656 665 q 656 607 638 562 q 621 516 589 482 q 556 448 503 425 q 450 401 371 397 l 371 397 z m 405 93 l 405 93 q 405 71 396 51 q 387 31 372 16 q 357 1 337 -7 q 317 -16 294 -16 l 294 -16 q 271 -16 251 -7 q 231 1 216 16 q 201 31 192 51 q 183 71 183 93 l 183 93 q 183 115 192 135 q 201 155 216 170 q 231 184 251 193 q 271 201 294 201 l 294 201 q 317 201 337 193 q 357 184 372 170 q 387 155 396 135 q 405 115 405 93 z m 483 648 l 483 648 q 483 684 467 714 q 451 745 427 763 q 404 780 382 786 l 382 786 l 374 521 q 391 523 411 532 q 431 541 449 558 q 467 575 475 598 q 483 622 483 648 z "},"‘":{"ha":764,"x_min":253,"x_max":621,"o":"m 621 971 l 621 863 q 580 863 545 858 q 510 852 484 839 q 458 826 443 806 q 428 785 428 757 l 428 757 q 428 737 434 723 q 439 709 448 698 q 456 687 467 676 q 477 666 485 654 q 494 642 499 627 q 505 612 505 590 l 505 590 q 505 569 498 549 q 490 530 476 514 q 463 498 442 489 q 421 479 395 479 l 395 479 q 361 479 335 495 q 309 510 290 536 q 272 562 262 595 q 253 629 253 665 l 253 665 q 253 728 276 784 q 299 840 345 881 q 391 923 459 947 q 528 971 621 971 l 621 971 z "},"’":{"ha":764,"x_min":143,"x_max":511,"o":"m 143 479 l 143 587 q 184 586 219 592 q 254 598 280 611 q 307 624 321 644 q 336 665 336 693 l 336 693 q 336 713 331 727 q 325 741 316 752 q 307 763 297 773 q 288 784 279 796 q 270 808 264 823 q 258 838 258 860 l 258 860 q 258 881 266 901 q 273 921 288 937 q 302 952 322 962 q 343 971 370 971 l 370 971 q 403 971 429 956 q 456 940 474 914 q 492 888 502 855 q 511 821 511 785 l 511 785 q 511 722 488 666 q 465 610 419 569 q 373 528 304 504 q 235 479 143 479 l 143 479 z "},"“":{"ha":764,"x_min":56,"x_max":726,"o":"m 371 971 l 371 867 q 300 869 262 851 q 224 833 224 790 l 224 790 q 224 766 233 752 q 243 738 254 725 q 266 711 275 695 q 285 679 285 652 l 285 652 q 285 632 278 614 q 271 595 257 581 q 244 567 225 558 q 205 550 182 550 l 182 550 q 152 550 129 563 q 105 576 89 598 q 73 620 64 649 q 56 679 56 711 l 56 711 q 56 768 75 815 q 95 863 134 897 q 174 932 233 951 q 292 971 371 971 l 371 971 z m 726 971 l 726 867 q 655 869 617 851 q 579 833 579 790 l 579 790 q 579 766 589 752 q 598 738 610 725 q 621 711 631 695 q 640 679 640 652 l 640 652 q 640 632 633 614 q 626 595 613 581 q 600 567 581 558 q 562 550 538 550 l 538 550 q 507 550 484 563 q 460 576 444 598 q 428 620 419 649 q 411 679 411 711 l 411 711 q 411 768 431 815 q 450 863 490 897 q 529 932 588 951 q 647 971 726 971 l 726 971 z "},"”":{"ha":764,"x_min":37,"x_max":708,"o":"m 393 550 l 393 654 q 465 652 503 670 q 541 688 541 730 l 541 730 q 541 754 531 769 q 522 783 510 797 q 498 810 489 826 q 479 842 479 869 l 479 869 q 479 889 487 907 q 494 926 507 940 q 520 954 539 963 q 558 971 582 971 l 582 971 q 612 971 636 958 q 659 945 675 923 q 691 901 700 872 q 708 842 708 810 l 708 810 q 708 753 688 706 q 669 659 630 624 q 591 589 532 570 q 473 550 393 550 l 393 550 z m 37 550 l 37 654 q 109 652 147 670 q 184 688 184 730 l 184 730 q 184 754 175 769 q 165 783 154 797 q 142 810 133 826 q 123 842 123 869 l 123 869 q 123 889 131 907 q 138 926 151 940 q 164 954 183 963 q 203 971 227 971 l 227 971 q 257 971 280 958 q 304 945 320 923 q 336 901 344 872 q 353 842 353 810 l 353 810 q 353 753 333 706 q 313 659 274 624 q 235 589 176 570 q 117 550 37 550 l 37 550 z "},"‚":{"ha":764,"x_min":143,"x_max":511,"o":"m 143 -239 l 143 -131 q 184 -132 219 -126 q 254 -120 280 -107 q 307 -94 321 -73 q 336 -53 336 -25 l 336 -25 q 336 -5 331 8 q 325 22 316 34 q 307 45 297 55 q 288 66 279 78 q 270 90 264 105 q 258 120 258 142 l 258 142 q 258 163 266 183 q 273 203 288 218 q 302 234 322 243 q 343 253 370 253 l 370 253 q 403 253 429 238 q 456 222 474 196 q 492 170 502 137 q 511 103 511 66 l 511 66 q 511 3 488 -52 q 465 -108 419 -149 q 373 -191 304 -215 q 235 -239 143 -239 l 143 -239 z "},"„":{"ha":764,"x_min":37,"x_max":708,"o":"m 393 -208 l 393 -104 q 465 -106 503 -89 q 541 -71 541 -28 l 541 -28 q 541 -4 531 10 q 522 24 510 38 q 498 51 489 67 q 479 83 479 111 l 479 111 q 479 131 487 149 q 494 168 507 181 q 520 195 539 204 q 558 212 582 212 l 582 212 q 612 212 636 199 q 659 186 675 165 q 691 143 700 114 q 708 84 708 52 l 708 52 q 708 -5 688 -52 q 669 -100 630 -134 q 591 -169 532 -189 q 473 -208 393 -208 l 393 -208 z m 37 -208 l 37 -104 q 109 -106 147 -89 q 184 -71 184 -28 l 184 -28 q 184 -4 175 10 q 165 24 154 38 q 142 51 133 67 q 123 83 123 111 l 123 111 q 123 131 131 149 q 138 168 151 181 q 164 195 183 204 q 203 212 227 212 l 227 212 q 257 212 280 199 q 304 186 320 165 q 336 143 344 114 q 353 84 353 52 l 353 52 q 353 -5 333 -52 q 313 -100 274 -134 q 235 -169 176 -189 q 117 -208 37 -208 l 37 -208 z "},"‹":{"ha":764,"x_min":176,"x_max":551,"o":"m 551 610 l 348 370 l 551 130 l 437 51 l 176 370 l 439 688 l 551 610 z "},"›":{"ha":764,"x_min":213,"x_max":587,"o":"m 213 130 l 416 370 l 213 610 l 326 688 l 587 370 l 325 51 l 213 130 z "},"«":{"ha":764,"x_min":78,"x_max":676,"o":"m 385 586 l 237 368 l 385 150 l 257 87 l 78 368 l 261 648 l 385 586 z m 676 579 l 528 368 l 676 157 l 553 94 l 368 368 l 557 642 l 676 579 z "},"»":{"ha":764,"x_min":87,"x_max":686,"o":"m 379 153 l 526 371 l 379 589 l 507 652 l 686 371 l 503 90 l 379 153 z m 87 160 l 236 371 l 87 582 l 211 644 l 396 371 l 207 97 l 87 160 z "},"/":{"ha":764,"x_min":49,"x_max":684,"o":"m 684 958 l 210 -146 l 49 -146 l 522 958 l 684 958 z "},"|":{"ha":764,"x_min":306,"x_max":458,"o":"m 458 -278 l 306 -278 l 306 1111 l 458 1111 l 458 -278 z "},"–":{"ha":764,"x_min":90,"x_max":673,"o":"m 673 297 l 90 297 l 90 441 l 673 441 l 673 297 z "},"—":{"ha":764,"x_min":-3,"x_max":766,"o":"m 766 297 l -3 297 l -3 441 l 766 441 l 766 297 z "},"―":{"ha":764,"x_min":-3,"x_max":766,"o":"m 766 297 l -3 297 l -3 441 l 766 441 l 766 297 z "},"•":{"ha":764,"x_min":136,"x_max":628,"o":"m 382 623 l 382 623 q 433 623 478 603 q 523 584 556 551 q 589 517 609 472 q 628 427 628 376 l 628 376 q 628 326 609 281 q 589 236 556 203 q 523 170 478 150 q 433 131 382 131 l 382 131 q 331 131 286 150 q 241 170 208 203 q 175 236 156 281 q 136 326 136 376 l 136 376 q 136 427 156 472 q 175 517 208 551 q 241 584 286 603 q 331 623 382 623 z "},"·":{"ha":764,"x_min":252,"x_max":515,"o":"m 382 514 l 382 514 q 410 514 435 504 q 459 493 477 475 q 495 457 505 433 q 515 408 515 380 l 515 380 q 515 353 505 330 q 495 306 477 288 q 459 270 435 259 q 410 249 382 249 l 382 249 q 355 249 331 259 q 307 270 290 288 q 272 306 262 330 q 252 353 252 380 l 252 380 q 252 408 262 433 q 272 457 290 475 q 307 493 331 504 q 355 514 382 514 z "},"(":{"ha":764,"x_min":184,"x_max":612,"o":"m 612 -184 l 514 -285 q 349 -145 267 15 q 184 175 184 359 l 184 359 q 184 463 209 554 q 233 646 278 727 q 322 808 384 879 q 445 949 518 1011 l 518 1011 l 612 917 q 480 798 414 661 q 347 523 347 371 l 347 371 q 347 217 414 75 q 480 -67 612 -184 l 612 -184 z "},")":{"ha":764,"x_min":155,"x_max":582,"o":"m 155 913 l 253 1011 q 419 873 500 712 q 582 552 582 367 l 582 367 q 582 264 557 172 q 533 81 489 -1 q 446 -82 385 -153 q 323 -224 250 -285 l 250 -285 l 155 -191 q 288 -72 355 66 q 421 205 421 357 l 421 357 q 421 510 355 652 q 288 795 155 913 l 155 913 z "},"[":{"ha":764,"x_min":207,"x_max":564,"o":"m 564 -269 l 207 -269 l 207 989 l 564 989 l 564 860 l 359 860 l 359 -140 l 564 -140 l 564 -269 z "},"]":{"ha":764,"x_min":179,"x_max":534,"o":"m 534 -269 l 179 -269 l 179 -140 l 382 -140 l 382 860 l 179 860 l 179 989 l 534 989 l 534 -269 z "},"{":{"ha":764,"x_min":103,"x_max":616,"o":"m 616 -269 l 559 -269 q 419 -269 350 -202 q 281 -134 281 12 l 281 12 l 281 184 q 281 254 250 290 q 218 325 146 325 l 146 325 l 103 325 l 103 453 l 146 453 q 182 453 208 461 q 234 469 250 485 q 267 501 274 527 q 281 552 281 587 l 281 587 l 281 707 q 281 777 297 829 q 313 882 347 918 q 380 953 433 971 q 486 989 559 989 l 559 989 l 616 989 l 616 861 l 574 861 q 541 861 515 853 q 489 846 470 828 q 451 810 441 782 q 431 753 431 710 l 431 710 l 431 591 q 431 541 422 505 q 414 469 396 445 q 378 420 351 407 q 324 394 288 389 l 288 389 q 360 380 395 332 q 431 283 431 183 l 431 183 l 431 11 q 431 -33 441 -62 q 451 -92 470 -109 q 489 -127 515 -134 q 541 -142 574 -142 l 574 -142 l 616 -142 l 616 -269 z "},"}":{"ha":764,"x_min":147,"x_max":661,"o":"m 147 989 l 204 989 q 345 989 414 921 q 484 854 484 707 l 484 707 l 484 593 q 484 523 514 488 q 545 453 618 453 l 618 453 l 661 453 l 661 325 l 618 325 q 581 325 555 317 q 530 309 514 293 q 498 277 491 251 q 484 226 484 191 l 484 191 l 484 12 q 484 -58 468 -110 q 452 -163 418 -198 q 384 -233 331 -251 q 278 -269 204 -269 l 204 -269 l 147 -269 l 147 -142 l 191 -142 q 223 -142 249 -134 q 275 -127 294 -109 q 313 -91 323 -62 q 334 -33 334 9 l 334 9 l 334 186 q 334 237 342 273 q 351 309 368 333 q 385 357 412 370 q 439 383 476 389 l 476 389 q 404 397 369 446 q 334 494 334 595 l 334 595 l 334 708 q 334 752 323 782 q 313 811 294 829 q 275 846 249 854 q 223 861 191 861 l 191 861 l 147 861 l 147 989 z "},"*":{"ha":764,"x_min":92,"x_max":672,"o":"m 433 582 l 453 372 l 311 372 l 330 582 l 160 460 l 92 578 l 282 665 l 92 753 l 160 871 l 330 749 l 311 958 l 453 958 l 433 749 l 604 871 l 672 753 l 482 665 l 672 578 l 604 460 l 433 582 z "},"†":{"ha":764,"x_min":109,"x_max":655,"o":"m 655 652 l 463 652 l 463 172 l 298 172 l 298 652 l 109 652 l 109 778 l 298 778 l 298 958 l 463 958 l 463 778 l 655 778 l 655 652 z "},"‡":{"ha":764,"x_min":109,"x_max":655,"o":"m 463 652 l 463 315 l 655 315 l 655 189 l 463 189 l 463 0 l 298 0 l 298 189 l 109 189 l 109 315 l 298 315 l 298 652 l 109 652 l 109 778 l 298 778 l 298 958 l 463 958 l 463 778 l 655 778 l 655 652 l 463 652 z "},"§":{"ha":764,"x_min":61,"x_max":711,"o":"m 591 154 l 591 154 q 605 138 613 114 q 621 90 621 60 l 621 60 q 621 0 595 -42 q 569 -83 527 -110 q 485 -136 431 -148 q 378 -160 322 -160 l 322 -160 q 248 -160 188 -153 q 128 -146 75 -132 l 75 -132 l 75 12 q 138 -13 200 -23 q 262 -33 317 -33 l 317 -33 q 380 -33 412 -12 q 444 9 444 41 l 444 41 q 444 64 428 84 q 411 103 384 122 q 357 140 323 159 q 288 178 253 199 q 217 220 182 245 q 148 270 121 301 q 94 332 78 370 q 61 408 61 456 l 61 456 q 61 483 69 511 q 77 539 92 566 q 107 593 130 616 q 153 640 183 659 l 183 659 q 169 682 160 707 q 151 732 151 764 l 151 764 q 151 807 170 845 q 189 882 226 910 q 263 939 318 955 q 374 971 447 971 l 447 971 q 510 971 559 964 q 608 957 647 949 l 647 949 l 647 812 q 589 830 538 838 q 488 846 437 846 l 437 846 q 389 846 357 828 q 326 811 326 778 l 326 778 q 326 756 343 737 q 359 718 387 699 q 414 681 448 662 q 483 643 519 621 q 555 600 589 574 q 624 549 651 518 q 678 487 695 449 q 711 411 711 364 l 711 364 q 711 330 703 300 q 694 269 678 243 q 662 216 640 194 q 618 172 591 154 z m 490 254 l 490 254 q 512 273 523 298 q 534 323 534 347 l 534 347 q 534 381 511 409 q 488 437 453 462 q 417 487 373 511 q 329 536 288 564 l 288 564 q 276 555 267 544 q 258 533 251 521 q 244 509 241 496 q 237 483 237 471 l 237 471 q 237 436 261 409 q 285 382 322 357 q 359 332 404 307 q 448 283 490 254 z "},"¶":{"ha":764,"x_min":50,"x_max":708,"o":"m 708 958 l 708 144 q 708 67 686 10 q 663 -47 622 -85 q 581 -123 521 -141 q 462 -160 389 -160 l 389 -160 q 325 -160 264 -139 q 203 -117 151 -75 l 151 -75 l 229 39 q 260 12 301 -8 q 341 -28 393 -28 l 393 -28 q 469 -28 507 16 q 546 59 546 143 l 546 143 l 546 829 l 457 829 l 457 345 q 352 345 275 366 q 199 387 149 426 q 99 466 75 522 q 50 578 50 648 l 50 648 q 50 718 75 775 q 100 833 149 873 q 198 914 271 936 q 345 958 441 958 l 441 958 l 708 958 z "},"Α":{"ha":764,"x_min":3,"x_max":761,"o":"m 761 0 l 576 0 l 528 175 l 218 175 l 168 0 l 3 0 l 265 886 l 498 886 l 761 0 z m 490 311 l 375 724 l 258 311 l 490 311 z "},"Β":{"ha":764,"x_min":87,"x_max":711,"o":"m 358 0 l 87 0 l 87 886 l 374 886 q 525 886 601 833 q 676 781 676 673 l 676 673 q 676 640 668 609 q 661 577 644 551 q 628 524 604 504 q 579 484 546 472 l 546 472 q 579 467 609 451 q 640 435 662 409 q 685 384 698 349 q 711 315 711 272 l 711 272 q 711 136 621 68 q 530 0 358 0 l 358 0 z m 503 644 l 503 644 q 503 669 494 690 q 486 710 468 724 q 450 739 422 746 q 394 754 354 754 l 354 754 l 253 754 l 253 519 l 354 519 q 395 519 423 529 q 451 539 469 556 q 487 574 495 596 q 503 618 503 644 z m 253 136 l 370 136 q 410 136 440 146 q 470 157 490 175 q 511 193 521 217 q 532 241 532 269 l 532 269 q 532 327 489 359 q 446 392 357 392 l 357 392 l 253 392 l 253 136 z "},"Γ":{"ha":764,"x_min":134,"x_max":677,"o":"m 677 886 l 677 745 l 300 745 l 300 0 l 134 0 l 134 886 l 677 886 z "},"Δ":{"ha":764,"x_min":39,"x_max":725,"o":"m 725 0 l 39 0 l 39 143 l 272 886 l 493 886 l 725 143 l 725 0 z m 539 147 l 425 538 l 376 713 l 326 528 l 214 147 l 539 147 z "},"Ε":{"ha":764,"x_min":125,"x_max":659,"o":"m 659 0 l 125 0 l 125 886 l 659 886 l 659 745 l 294 745 l 294 525 l 642 525 l 642 387 l 294 387 l 294 141 l 659 141 l 659 0 z "},"Ζ":{"ha":764,"x_min":71,"x_max":693,"o":"m 693 0 l 71 0 l 71 126 l 476 735 l 83 735 l 83 886 l 688 886 l 688 751 l 279 151 l 693 151 l 693 0 z "},"Η":{"ha":764,"x_min":64,"x_max":699,"o":"m 699 0 l 532 0 l 532 386 l 231 386 l 231 0 l 64 0 l 64 886 l 231 886 l 231 530 l 532 530 l 532 886 l 699 886 l 699 0 z "},"Θ":{"ha":764,"x_min":22,"x_max":742,"o":"m 742 453 l 742 453 q 742 333 713 244 q 684 156 635 98 q 585 41 518 13 q 452 -16 376 -16 l 376 -16 q 201 -16 112 100 q 22 216 22 435 l 22 435 q 22 554 51 642 q 80 730 130 787 q 179 845 245 873 q 312 901 387 901 l 387 901 q 475 901 541 872 q 608 842 652 785 q 696 728 719 645 q 742 562 742 453 z m 567 439 l 567 439 q 567 596 524 674 q 480 752 385 752 l 385 752 q 336 752 301 732 q 267 711 243 672 q 220 633 209 576 q 197 519 197 447 l 197 447 q 197 289 241 211 q 286 134 382 134 l 382 134 q 430 134 465 154 q 500 174 523 213 q 545 252 556 309 q 567 366 567 439 z m 253 387 l 253 525 l 511 525 l 511 387 l 253 387 z "},"Ι":{"ha":764,"x_min":102,"x_max":662,"o":"m 297 750 l 102 750 l 102 886 l 662 886 l 662 750 l 467 750 l 467 138 l 662 138 l 662 0 l 102 0 l 102 138 l 297 138 l 297 750 z "},"Κ":{"ha":764,"x_min":87,"x_max":739,"o":"m 739 0 l 524 0 l 257 429 l 257 0 l 87 0 l 87 886 l 257 886 l 257 483 l 522 886 l 724 886 l 422 464 l 739 0 z "},"Λ":{"ha":764,"x_min":3,"x_max":761,"o":"m 3 0 l 272 886 l 493 886 l 761 0 l 572 0 l 425 533 l 376 708 l 326 524 l 180 0 l 3 0 z "},"Μ":{"ha":764,"x_min":31,"x_max":733,"o":"m 733 0 l 586 0 l 570 501 l 564 701 l 521 566 l 422 264 l 318 264 l 229 566 l 192 701 l 187 505 l 172 0 l 31 0 l 74 886 l 262 886 l 340 635 l 378 493 l 415 627 l 497 886 l 689 886 l 733 0 z "},"Ν":{"ha":764,"x_min":64,"x_max":705,"o":"m 705 0 l 502 0 l 264 529 l 216 643 l 216 275 l 216 0 l 64 0 l 64 886 l 269 886 l 511 354 l 553 250 l 553 642 l 553 886 l 705 886 l 705 0 z "},"Ξ":{"ha":764,"x_min":98,"x_max":665,"o":"m 659 740 l 106 740 l 106 886 l 659 886 l 659 740 z m 621 385 l 143 385 l 143 528 l 621 528 l 621 385 z m 665 0 l 98 0 l 98 146 l 665 146 l 665 0 z "},"Ο":{"ha":764,"x_min":25,"x_max":739,"o":"m 739 447 l 739 447 q 739 326 710 239 q 682 151 633 95 q 584 39 518 12 q 452 -16 376 -16 l 376 -16 q 201 -16 113 101 q 25 217 25 439 l 25 439 q 25 559 53 647 q 81 734 131 791 q 180 847 246 874 q 312 901 387 901 l 387 901 q 562 901 650 785 q 739 669 739 447 z m 562 439 l 562 439 q 562 596 520 673 q 478 751 382 751 l 382 751 q 334 751 300 731 q 266 711 244 672 q 222 633 212 577 q 201 520 201 447 l 201 447 q 201 290 244 212 q 286 135 382 135 l 382 135 q 430 135 464 155 q 498 175 520 214 q 542 252 552 309 q 562 366 562 439 z "},"Π":{"ha":764,"x_min":64,"x_max":699,"o":"m 699 0 l 532 0 l 532 742 l 231 742 l 231 0 l 64 0 l 64 886 l 699 886 l 699 0 z "},"Ρ":{"ha":764,"x_min":92,"x_max":707,"o":"m 707 604 l 707 604 q 707 535 684 476 q 661 418 615 375 q 570 332 502 309 q 434 285 345 285 l 345 285 l 260 285 l 260 0 l 92 0 l 92 886 l 351 886 q 437 886 504 868 q 570 849 615 813 q 660 777 683 725 q 707 672 707 604 z m 532 593 l 532 593 q 532 628 520 657 q 509 686 487 706 q 464 726 429 737 q 395 748 347 748 l 347 748 l 260 748 l 260 423 l 353 423 q 396 423 429 435 q 463 447 485 469 q 508 492 520 523 q 532 554 532 593 z "},"Σ":{"ha":764,"x_min":69,"x_max":693,"o":"m 552 469 l 283 153 l 693 153 l 693 0 l 69 0 l 69 140 l 340 459 l 83 750 l 83 886 l 688 886 l 688 737 l 311 737 l 552 469 z "},"Τ":{"ha":764,"x_min":54,"x_max":710,"o":"m 710 747 l 467 747 l 467 0 l 296 0 l 296 747 l 54 747 l 54 886 l 710 886 l 710 747 z "},"Υ":{"ha":764,"x_min":7,"x_max":755,"o":"m 755 886 l 465 314 l 465 0 l 295 0 l 295 313 l 7 886 l 192 886 l 322 612 l 382 478 l 441 616 l 578 886 l 755 886 z "},"Φ":{"ha":764,"x_min":0,"x_max":741,"o":"m 302 943 l 461 943 l 461 867 q 602 845 672 740 q 741 634 741 453 l 741 453 q 741 355 721 280 q 700 204 663 150 q 626 96 574 63 q 523 31 461 18 l 461 18 l 461 -57 l 302 -57 l 302 18 q 160 40 91 146 q 22 252 22 435 l 22 435 q 22 531 43 606 q 64 680 101 734 q 138 788 189 821 q 241 854 302 867 l 302 867 l 302 943 z m 578 440 l 578 440 q 578 558 550 629 q 522 699 461 725 l 461 725 l 461 160 q 522 187 550 259 q 578 331 578 440 z m 186 449 l 186 449 q 186 330 214 259 q 242 187 302 160 l 302 160 l 302 725 q 243 696 214 625 q 186 554 186 449 z m 0 886 l 0 886 z "},"Χ":{"ha":764,"x_min":5,"x_max":758,"o":"m 758 0 l 546 0 l 375 326 l 207 0 l 5 0 l 261 454 l 22 886 l 218 886 l 379 578 l 534 886 l 730 886 l 493 454 l 758 0 z "},"Ψ":{"ha":764,"x_min":26,"x_max":737,"o":"m 460 254 l 460 0 l 304 0 l 304 254 q 235 260 183 282 q 131 305 96 343 q 61 380 44 432 q 26 483 26 546 l 26 546 l 26 886 l 184 886 l 184 555 q 184 480 217 439 q 249 398 304 387 l 304 387 l 304 886 l 460 886 l 460 387 q 486 393 508 406 q 530 418 546 440 q 562 462 570 492 q 579 522 579 562 l 579 562 l 579 886 l 737 886 l 737 579 q 737 506 717 449 q 697 392 661 351 q 624 311 573 287 q 522 262 460 254 l 460 254 z "},"Ω":{"ha":764,"x_min":24,"x_max":740,"o":"m 740 0 l 433 0 l 433 115 q 470 140 494 175 q 519 210 534 254 q 549 298 556 349 q 562 401 562 460 l 562 460 q 562 522 553 575 q 545 629 524 667 q 503 706 469 728 q 435 750 385 750 l 385 750 q 336 750 301 730 q 267 709 244 672 q 222 634 212 581 q 201 528 201 464 l 201 464 q 201 404 207 354 q 212 303 226 260 q 241 218 267 182 q 292 146 334 117 l 334 117 l 334 0 l 24 0 l 24 122 l 167 122 q 133 145 106 181 q 80 217 62 262 q 44 307 35 358 q 25 409 25 463 l 25 463 q 25 569 53 651 q 81 732 130 788 q 179 844 245 872 q 311 901 387 901 l 387 901 q 469 901 535 874 q 600 847 646 794 q 691 741 715 661 q 740 581 740 475 l 740 475 q 740 420 729 366 q 718 312 697 265 q 677 218 650 180 q 623 143 591 122 l 591 122 l 740 122 l 740 0 z "},"Ά":{"ha":764,"x_min":-40,"x_max":841,"o":"m 761 0 l 576 0 l 528 175 l 218 175 l 168 0 l 3 0 l 265 886 l 498 886 l 761 0 z m 490 311 l 375 724 l 258 311 l 490 311 z m 172 972 l 104 743 l -40 743 l 0 972 l 172 972 z m 841 886 l 841 886 z "},"Έ":{"ha":764,"x_min":-110,"x_max":771,"o":"m 659 0 l 125 0 l 125 886 l 659 886 l 659 745 l 294 745 l 294 525 l 642 525 l 642 387 l 294 387 l 294 141 l 659 141 l 659 0 z m 102 972 l 35 743 l -110 743 l -70 972 l 102 972 z m 771 886 l 771 886 z "},"Ή":{"ha":764,"x_min":-151,"x_max":730,"o":"m 699 0 l 532 0 l 532 386 l 231 386 l 231 0 l 64 0 l 64 886 l 231 886 l 231 530 l 532 530 l 532 886 l 699 886 l 699 0 z m 61 972 l -7 743 l -151 743 l -111 972 l 61 972 z m 730 886 l 730 886 z "},"Ί":{"ha":764,"x_min":-138,"x_max":743,"o":"m 297 750 l 102 750 l 102 886 l 662 886 l 662 750 l 467 750 l 467 138 l 662 138 l 662 0 l 102 0 l 102 138 l 297 138 l 297 750 z m 75 972 l 7 743 l -138 743 l -98 972 l 75 972 z m 743 886 l 743 886 z "},"Ϊ":{"ha":764,"x_min":0,"x_max":662,"o":"m 297 750 l 102 750 l 102 886 l 662 886 l 662 750 l 467 750 l 467 138 l 662 138 l 662 0 l 102 0 l 102 138 l 297 138 l 297 750 z m 325 1053 l 325 1053 q 325 1034 318 1017 q 311 1000 298 987 q 285 975 268 967 q 251 960 232 960 l 232 960 q 212 960 196 967 q 179 975 166 987 q 153 1000 146 1017 q 139 1034 139 1053 l 139 1053 q 139 1072 146 1089 q 153 1106 166 1119 q 179 1131 196 1139 q 212 1146 232 1146 l 232 1146 q 251 1146 268 1139 q 285 1131 298 1119 q 311 1106 318 1089 q 325 1072 325 1053 z m 625 1053 l 625 1053 q 625 1034 617 1017 q 610 1000 597 987 q 585 975 568 967 q 551 960 532 960 l 532 960 q 513 960 496 967 q 479 975 466 987 q 454 1000 446 1017 q 439 1034 439 1053 l 439 1053 q 439 1072 446 1089 q 454 1106 466 1119 q 479 1131 496 1139 q 513 1146 532 1146 l 532 1146 q 551 1146 568 1139 q 585 1131 597 1119 q 610 1106 617 1089 q 625 1072 625 1053 z m 0 886 l 0 886 z "},"Ό":{"ha":764,"x_min":-131,"x_max":750,"o":"m 739 447 l 739 447 q 739 326 710 239 q 682 151 633 95 q 584 39 518 12 q 452 -16 376 -16 l 376 -16 q 201 -16 113 101 q 25 217 25 439 l 25 439 q 25 559 53 647 q 81 734 131 791 q 180 847 246 874 q 312 901 387 901 l 387 901 q 562 901 650 785 q 739 669 739 447 z m 562 439 l 562 439 q 562 596 520 673 q 478 751 382 751 l 382 751 q 334 751 300 731 q 266 711 244 672 q 222 633 212 577 q 201 520 201 447 l 201 447 q 201 290 244 212 q 286 135 382 135 l 382 135 q 430 135 464 155 q 498 175 520 214 q 542 252 552 309 q 562 366 562 439 z m 81 972 l 14 743 l -131 743 l -91 972 l 81 972 z m 750 886 l 750 886 z "},"Ύ":{"ha":764,"x_min":-184,"x_max":755,"o":"m 755 886 l 465 314 l 465 0 l 295 0 l 295 313 l 7 886 l 192 886 l 322 612 l 382 478 l 441 616 l 578 886 l 755 886 z m 28 972 l -40 743 l -184 743 l -144 972 l 28 972 z m 696 886 l 696 886 z "},"Ϋ":{"ha":764,"x_min":0,"x_max":755,"o":"m 755 886 l 465 314 l 465 0 l 295 0 l 295 313 l 7 886 l 192 886 l 322 612 l 382 478 l 441 616 l 578 886 l 755 886 z m 325 1053 l 325 1053 q 325 1034 318 1017 q 311 1000 298 987 q 285 975 268 967 q 251 960 232 960 l 232 960 q 212 960 196 967 q 179 975 166 987 q 153 1000 146 1017 q 139 1034 139 1053 l 139 1053 q 139 1072 146 1089 q 153 1106 166 1119 q 179 1131 196 1139 q 212 1146 232 1146 l 232 1146 q 251 1146 268 1139 q 285 1131 298 1119 q 311 1106 318 1089 q 325 1072 325 1053 z m 625 1053 l 625 1053 q 625 1034 617 1017 q 610 1000 597 987 q 585 975 568 967 q 551 960 532 960 l 532 960 q 513 960 496 967 q 479 975 466 987 q 454 1000 446 1017 q 439 1034 439 1053 l 439 1053 q 439 1072 446 1089 q 454 1106 466 1119 q 479 1131 496 1139 q 513 1146 532 1146 l 532 1146 q 551 1146 568 1139 q 585 1131 597 1119 q 610 1106 617 1089 q 625 1072 625 1053 z m 0 886 l 0 886 z "}}}
